<?xml version="1.0" encoding="utf-8"?>
<!-- Generator: Adobe Illustrator 23.0.1, SVG Export Plug-In . SVG Version: 6.00 Build 0)  -->
<svg version="1.1" id="Layer_1" xmlns="http://www.w3.org/2000/svg" xmlns:xlink="http://www.w3.org/1999/xlink" x="0px" y="0px" viewBox="0 0 615 353.3" style="enable-background:new 0 0 615 353.3;" xml:space="preserve">
<style type="text/css">
	.st0{fill:none;stroke:#000000;stroke-width:2;stroke-miterlimit:10;}
	.st1{fill:none;stroke:#000000;stroke-width:0.75;stroke-miterlimit:10;stroke-dasharray:3;}
</style>
<g>
	<g>
		<line class="st0" x1="5.7" y1="318.1" x2="609.3" y2="318.1"/>
		<g>
			<polygon points="6.9,322.1 0,318.1 6.9,314.1 			"/>
		</g>
		<g>
			<polygon points="608.1,322.1 615,318.1 608.1,314.1 			"/>
		</g>
	</g>
</g>
<g>
	<path d="M423.4,339.8l0.1,1.5c0.5-0.5,1-1,1.7-1.3s1.4-0.5,2.3-0.5s1.6,0.2,2.3,0.5c0.7,0.3,1.2,0.9,1.5,1.6c0.4-0.6,1-1.1,1.7-1.5
		s1.5-0.6,2.5-0.6c0.7,0,1.3,0.1,1.9,0.3s1,0.5,1.4,0.9s0.7,0.9,0.9,1.5c0.2,0.6,0.3,1.3,0.3,2.2v8.7h-2.3v-8.7c0-0.6-0.1-1-0.2-1.4
		s-0.3-0.7-0.6-0.9c-0.2-0.2-0.5-0.4-0.9-0.5s-0.7-0.1-1.2-0.1s-0.9,0.1-1.2,0.2c-0.4,0.1-0.7,0.3-0.9,0.6s-0.5,0.5-0.6,0.9
		c-0.2,0.3-0.2,0.7-0.3,1.1v8.8h-2.3v-8.7c0-0.5-0.1-1-0.2-1.3c-0.1-0.4-0.3-0.7-0.6-0.9c-0.2-0.2-0.5-0.4-0.9-0.5
		c-0.3-0.1-0.7-0.2-1.2-0.2c-0.8,0-1.5,0.2-1.9,0.5s-0.9,0.8-1.1,1.4v9.7h-2.3v-13.2h2.1L423.4,339.8L423.4,339.8z"/>
	<path d="M442.7,346.3c0-1,0.1-1.9,0.4-2.7c0.3-0.8,0.7-1.5,1.2-2.1s1.1-1.1,1.9-1.4c0.7-0.3,1.6-0.5,2.5-0.5s1.8,0.2,2.5,0.5
		s1.4,0.8,1.9,1.4s0.9,1.3,1.2,2.1c0.3,0.8,0.4,1.7,0.4,2.7v0.3c0,1-0.1,1.9-0.4,2.7c-0.3,0.8-0.7,1.5-1.2,2.1s-1.2,1.1-1.9,1.4
		c-0.7,0.3-1.6,0.5-2.5,0.5s-1.8-0.2-2.5-0.5s-1.4-0.8-1.9-1.4s-0.9-1.3-1.2-2.1c-0.3-0.8-0.4-1.7-0.4-2.7V346.3z M445,346.6
		c0,0.7,0.1,1.3,0.2,1.9c0.2,0.6,0.4,1.1,0.7,1.5c0.3,0.4,0.7,0.8,1.2,1.1c0.5,0.3,1,0.4,1.6,0.4s1.2-0.1,1.6-0.4
		c0.5-0.3,0.9-0.6,1.2-1.1c0.3-0.4,0.5-1,0.7-1.5c0.2-0.6,0.2-1.2,0.2-1.9v-0.3c0-0.7-0.1-1.3-0.2-1.9c-0.2-0.6-0.4-1.1-0.7-1.6
		c-0.3-0.4-0.7-0.8-1.2-1.1c-0.5-0.3-1-0.4-1.7-0.4c-0.6,0-1.2,0.1-1.6,0.4c-0.5,0.3-0.9,0.6-1.2,1.1c-0.3,0.4-0.5,1-0.7,1.6
		s-0.2,1.2-0.2,1.9v0.3H445z"/>
	<path d="M457,346.3c0-1,0.1-1.9,0.4-2.8c0.2-0.8,0.6-1.5,1.1-2.1s1-1,1.6-1.4c0.6-0.3,1.4-0.5,2.1-0.5c0.8,0,1.5,0.1,2.1,0.4
		s1.1,0.7,1.6,1.2v-6.9h2.3V353h-2.1l-0.1-1.4c-0.4,0.5-1,1-1.6,1.2s-1.3,0.4-2.2,0.4c-0.8,0-1.5-0.2-2.1-0.5s-1.2-0.8-1.6-1.4
		s-0.8-1.3-1.1-2.1c-0.2-0.8-0.4-1.7-0.4-2.7L457,346.3L457,346.3z M459.3,346.6c0,0.7,0.1,1.3,0.2,1.9s0.3,1.1,0.6,1.5
		c0.3,0.4,0.6,0.8,1.1,1c0.4,0.3,1,0.4,1.6,0.4c0.4,0,0.8,0,1.1-0.1c0.3-0.1,0.6-0.2,0.9-0.4c0.3-0.2,0.5-0.4,0.7-0.6
		s0.4-0.5,0.5-0.8v-6.1c-0.1-0.3-0.3-0.5-0.5-0.7s-0.4-0.4-0.7-0.6c-0.3-0.2-0.5-0.3-0.9-0.4s-0.7-0.1-1.1-0.1
		c-0.6,0-1.2,0.1-1.6,0.4s-0.8,0.6-1.1,1c-0.3,0.4-0.5,1-0.6,1.5s-0.2,1.2-0.2,1.9V346.6z"/>
	<path d="M477.2,353.3c-0.9,0-1.8-0.2-2.5-0.5s-1.4-0.8-1.9-1.3c-0.5-0.6-0.9-1.2-1.2-2c-0.3-0.8-0.4-1.6-0.4-2.6v-0.5
		c0-1.1,0.2-2,0.5-2.9c0.3-0.8,0.8-1.6,1.3-2.1s1.2-1,1.8-1.3s1.4-0.5,2.2-0.5c0.9,0,1.8,0.2,2.4,0.5c0.7,0.3,1.3,0.8,1.7,1.4
		s0.8,1.3,1,2.1c0.2,0.8,0.3,1.7,0.3,2.6v1h-9c0,0.6,0.1,1.2,0.3,1.7s0.4,1,0.8,1.4c0.3,0.4,0.7,0.7,1.2,0.9s1,0.3,1.6,0.3
		c0.8,0,1.5-0.2,2-0.5c0.6-0.3,1-0.8,1.5-1.3l1.4,1.1c-0.2,0.3-0.5,0.6-0.8,0.9s-0.7,0.6-1.1,0.8c-0.4,0.2-0.9,0.4-1.4,0.6
		C478.5,353.2,477.9,353.3,477.2,353.3z M476.9,341.4c-0.5,0-0.9,0.1-1.3,0.3c-0.4,0.2-0.7,0.4-1,0.7s-0.6,0.7-0.8,1.2
		c-0.2,0.5-0.3,1-0.4,1.6h6.6V345c0-0.4-0.1-0.9-0.2-1.3s-0.3-0.8-0.6-1.2c-0.2-0.3-0.6-0.6-1-0.8
		C478,341.5,477.5,341.4,476.9,341.4z"/>
</g>
<g>
	<path d="M236.6,339.8l0.1,1.5c0.5-0.5,1-1,1.7-1.3s1.4-0.5,2.3-0.5c0.9,0,1.6,0.2,2.3,0.5s1.2,0.9,1.5,1.6c0.4-0.6,1-1.1,1.7-1.5
		s1.5-0.6,2.5-0.6c0.7,0,1.3,0.1,1.9,0.3s1,0.5,1.4,0.9s0.7,0.9,0.9,1.5s0.3,1.3,0.3,2.2v8.7h-2.3v-8.7c0-0.6-0.1-1-0.2-1.4
		c-0.1-0.4-0.3-0.7-0.6-0.9c-0.2-0.2-0.5-0.4-0.9-0.5s-0.7-0.1-1.2-0.1s-0.9,0.1-1.2,0.2c-0.4,0.1-0.7,0.3-0.9,0.6s-0.5,0.5-0.6,0.9
		c-0.2,0.3-0.2,0.7-0.3,1.1v8.8h-2.3v-8.7c0-0.5-0.1-1-0.2-1.3c-0.1-0.4-0.3-0.7-0.6-0.9c-0.2-0.2-0.5-0.4-0.9-0.5
		c-0.3-0.1-0.7-0.2-1.2-0.2c-0.8,0-1.5,0.2-1.9,0.5s-0.9,0.8-1.1,1.4v9.7h-2.3v-13.2h2.1V339.8z"/>
	<path d="M261.9,353.3c-0.9,0-1.8-0.2-2.5-0.5s-1.4-0.8-1.9-1.3c-0.5-0.6-0.9-1.2-1.2-2c-0.3-0.8-0.4-1.6-0.4-2.6v-0.5
		c0-1.1,0.2-2,0.5-2.9c0.3-0.8,0.8-1.6,1.3-2.1s1.2-1,1.8-1.3s1.4-0.5,2.2-0.5c0.9,0,1.8,0.2,2.4,0.5c0.7,0.3,1.3,0.8,1.7,1.4
		s0.8,1.3,1,2.1c0.2,0.8,0.3,1.7,0.3,2.6v1h-9c0,0.6,0.1,1.2,0.3,1.7s0.4,1,0.8,1.4c0.3,0.4,0.7,0.7,1.2,0.9s1,0.3,1.6,0.3
		c0.8,0,1.5-0.2,2-0.5c0.6-0.3,1-0.8,1.5-1.3l1.4,1.1c-0.2,0.3-0.5,0.6-0.8,0.9s-0.7,0.6-1.1,0.8c-0.4,0.2-0.9,0.4-1.4,0.6
		C263.1,353.2,262.6,353.3,261.9,353.3z M261.6,341.4c-0.5,0-0.9,0.1-1.3,0.3c-0.4,0.2-0.7,0.4-1,0.7s-0.6,0.7-0.8,1.2
		c-0.2,0.5-0.3,1-0.4,1.6h6.6V345c0-0.4-0.1-0.9-0.2-1.3s-0.3-0.8-0.6-1.2c-0.2-0.3-0.6-0.6-1-0.8
		C262.7,341.5,262.2,341.4,261.6,341.4z"/>
	<path d="M277.9,353c-0.1-0.2-0.1-0.4-0.2-0.6c0-0.2-0.1-0.5-0.1-0.8c-0.2,0.2-0.5,0.4-0.7,0.6c-0.3,0.2-0.6,0.4-0.9,0.5
		c-0.3,0.2-0.7,0.3-1,0.4c-0.4,0.1-0.8,0.1-1.2,0.1c-0.7,0-1.3-0.1-1.8-0.3c-0.5-0.2-1-0.5-1.4-0.8c-0.4-0.4-0.7-0.8-0.9-1.2
		c-0.2-0.5-0.3-1-0.3-1.5c0-0.7,0.1-1.3,0.4-1.9c0.3-0.5,0.7-1,1.2-1.4s1.1-0.6,1.9-0.8c0.7-0.2,1.6-0.3,2.5-0.3h2.3v-1
		c0-0.8-0.2-1.4-0.7-1.9s-1.2-0.7-2.1-0.7c-0.4,0-0.8,0.1-1.2,0.2s-0.7,0.3-0.9,0.5c-0.2,0.2-0.4,0.4-0.6,0.7
		c-0.1,0.3-0.2,0.5-0.2,0.8h-2.3c0-0.5,0.1-0.9,0.4-1.4c0.2-0.5,0.6-0.9,1.1-1.3s1-0.7,1.7-0.9s1.4-0.3,2.2-0.3c0.7,0,1.4,0.1,2,0.3
		s1.1,0.5,1.6,0.8c0.4,0.4,0.8,0.8,1,1.4s0.4,1.2,0.4,1.9v6.2c0,0.4,0,0.9,0.1,1.4s0.2,0.9,0.3,1.3v0.2h-2.6L277.9,353L277.9,353z
		 M274.1,351.3c0.4,0,0.8-0.1,1.2-0.2c0.4-0.1,0.7-0.3,1-0.4c0.3-0.2,0.5-0.4,0.8-0.6c0.2-0.2,0.4-0.5,0.5-0.7v-2.7h-1.9
		c-1.3,0-2.3,0.2-3,0.6s-1.1,1-1.1,1.8c0,0.3,0.1,0.6,0.2,0.9s0.3,0.5,0.5,0.7s0.5,0.4,0.8,0.5C273.3,351.3,273.7,351.3,274.1,351.3
		z"/>
	<path d="M285.5,339.8l0.1,1.7c0.5-0.6,1-1.1,1.7-1.4s1.4-0.5,2.3-0.5c0.6,0,1.2,0.1,1.7,0.3c0.5,0.2,1,0.5,1.3,0.8
		c0.4,0.4,0.7,0.9,0.9,1.5s0.3,1.3,0.3,2.2v8.7h-2.3v-8.7c0-0.5-0.1-1-0.2-1.3c-0.1-0.4-0.3-0.7-0.5-0.9c-0.2-0.2-0.5-0.4-0.8-0.5
		s-0.7-0.2-1.1-0.2c-0.7,0-1.4,0.2-1.9,0.6s-1,0.9-1.3,1.5v9.4h-2.3v-13.2H285.5z"/>
</g>
<g>
	<path d="M325.1,339.8l0.1,1.5c0.5-0.5,1-1,1.7-1.3s1.4-0.5,2.3-0.5s1.6,0.2,2.3,0.5c0.7,0.3,1.2,0.9,1.5,1.6c0.4-0.6,1-1.1,1.7-1.5
		s1.5-0.6,2.5-0.6c0.7,0,1.3,0.1,1.9,0.3s1,0.5,1.4,0.9s0.7,0.9,0.9,1.5c0.2,0.6,0.3,1.3,0.3,2.2v8.7h-2.3v-8.7c0-0.6-0.1-1-0.2-1.4
		s-0.3-0.7-0.6-0.9c-0.2-0.2-0.5-0.4-0.9-0.5s-0.7-0.1-1.2-0.1s-0.9,0.1-1.2,0.2c-0.4,0.1-0.7,0.3-0.9,0.6s-0.5,0.5-0.6,0.9
		c-0.2,0.3-0.2,0.7-0.3,1.1v8.8h-2.3v-8.7c0-0.5-0.1-1-0.2-1.3c-0.1-0.4-0.3-0.7-0.6-0.9c-0.2-0.2-0.5-0.4-0.9-0.5
		c-0.3-0.1-0.7-0.2-1.2-0.2c-0.8,0-1.5,0.2-1.9,0.5s-0.9,0.8-1.1,1.4v9.7H323v-13.2h2.1V339.8z"/>
	<path d="M350.4,353.3c-0.9,0-1.8-0.2-2.5-0.5s-1.4-0.8-1.9-1.3c-0.5-0.6-0.9-1.2-1.2-2c-0.3-0.8-0.4-1.6-0.4-2.6v-0.5
		c0-1.1,0.2-2,0.5-2.9c0.3-0.8,0.8-1.6,1.3-2.1s1.2-1,1.8-1.3s1.4-0.5,2.2-0.5c0.9,0,1.8,0.2,2.4,0.5c0.7,0.3,1.3,0.8,1.7,1.4
		s0.8,1.3,1,2.1c0.2,0.8,0.3,1.7,0.3,2.6v1h-9c0,0.6,0.1,1.2,0.3,1.7s0.4,1,0.8,1.4c0.3,0.4,0.7,0.7,1.2,0.9s1,0.3,1.6,0.3
		c0.8,0,1.5-0.2,2-0.5c0.6-0.3,1-0.8,1.5-1.3l1.4,1.1c-0.2,0.3-0.5,0.6-0.8,0.9s-0.7,0.6-1.1,0.8c-0.4,0.2-0.9,0.4-1.4,0.6
		C351.6,353.2,351.1,353.3,350.4,353.3z M350.1,341.4c-0.5,0-0.9,0.1-1.3,0.3c-0.4,0.2-0.7,0.4-1,0.7s-0.6,0.7-0.8,1.2
		c-0.2,0.5-0.3,1-0.4,1.6h6.6V345c0-0.4-0.1-0.9-0.2-1.3s-0.3-0.8-0.6-1.2c-0.2-0.3-0.6-0.6-1-0.8
		C351.2,341.5,350.7,341.4,350.1,341.4z"/>
	<path d="M357.6,346.3c0-1,0.1-1.9,0.4-2.8c0.2-0.8,0.6-1.5,1.1-2.1s1-1,1.6-1.4c0.6-0.3,1.4-0.5,2.1-0.5c0.8,0,1.5,0.1,2.1,0.4
		s1.1,0.7,1.6,1.2v-6.9h2.3V353h-2.1l-0.1-1.4c-0.4,0.5-1,1-1.6,1.2s-1.3,0.4-2.2,0.4c-0.8,0-1.5-0.2-2.1-0.5s-1.2-0.8-1.6-1.4
		s-0.8-1.3-1.1-2.1c-0.2-0.8-0.4-1.7-0.4-2.7L357.6,346.3L357.6,346.3z M359.9,346.6c0,0.7,0.1,1.3,0.2,1.9s0.3,1.1,0.6,1.5
		c0.3,0.4,0.6,0.8,1.1,1c0.4,0.3,1,0.4,1.6,0.4c0.4,0,0.8,0,1.1-0.1c0.3-0.1,0.6-0.2,0.9-0.4c0.3-0.2,0.5-0.4,0.7-0.6
		s0.4-0.5,0.5-0.8v-6.1c-0.1-0.3-0.3-0.5-0.5-0.7s-0.4-0.4-0.7-0.6c-0.3-0.2-0.5-0.3-0.9-0.4s-0.7-0.1-1.1-0.1
		c-0.6,0-1.2,0.1-1.6,0.4s-0.8,0.6-1.1,1c-0.3,0.4-0.5,1-0.6,1.5s-0.2,1.2-0.2,1.9V346.6z"/>
	<path d="M372.3,336.3c0-0.4,0.1-0.7,0.3-0.9s0.6-0.4,1-0.4s0.8,0.1,1,0.4s0.3,0.6,0.3,0.9s-0.1,0.7-0.3,0.9c-0.2,0.2-0.6,0.4-1,0.4
		s-0.8-0.1-1-0.4C372.4,337,372.3,336.7,372.3,336.3z M374.8,353h-2.3v-13.2h2.3V353z"/>
	<path d="M386.6,353c-0.1-0.2-0.1-0.4-0.2-0.6c0-0.2-0.1-0.5-0.1-0.8c-0.2,0.2-0.5,0.4-0.7,0.6c-0.3,0.2-0.6,0.4-0.9,0.5
		c-0.3,0.2-0.7,0.3-1,0.4c-0.4,0.1-0.8,0.1-1.2,0.1c-0.7,0-1.3-0.1-1.8-0.3c-0.5-0.2-1-0.5-1.4-0.8c-0.4-0.4-0.7-0.8-0.9-1.2
		c-0.2-0.5-0.3-1-0.3-1.5c0-0.7,0.1-1.3,0.4-1.9c0.3-0.5,0.7-1,1.2-1.4s1.1-0.6,1.9-0.8c0.7-0.2,1.6-0.3,2.5-0.3h2.3v-1
		c0-0.8-0.2-1.4-0.7-1.9s-1.2-0.7-2.1-0.7c-0.4,0-0.8,0.1-1.2,0.2s-0.7,0.3-0.9,0.5c-0.2,0.2-0.4,0.4-0.6,0.7
		c-0.1,0.3-0.2,0.5-0.2,0.8h-2.3c0-0.5,0.1-0.9,0.4-1.4c0.2-0.5,0.6-0.9,1.1-1.3s1-0.7,1.7-0.9s1.4-0.3,2.2-0.3c0.7,0,1.4,0.1,2,0.3
		s1.1,0.5,1.6,0.8c0.4,0.4,0.8,0.8,1,1.4s0.4,1.2,0.4,1.9v6.2c0,0.4,0,0.9,0.1,1.4s0.2,0.9,0.3,1.3v0.2h-2.6L386.6,353L386.6,353z
		 M382.8,351.3c0.4,0,0.8-0.1,1.2-0.2c0.4-0.1,0.7-0.3,1-0.4c0.3-0.2,0.5-0.4,0.8-0.6c0.2-0.2,0.4-0.5,0.5-0.7v-2.7h-1.9
		c-1.3,0-2.3,0.2-3,0.6s-1.1,1-1.1,1.8c0,0.3,0.1,0.6,0.2,0.9s0.3,0.5,0.5,0.7s0.5,0.4,0.8,0.5C382,351.3,382.4,351.3,382.8,351.3z"/>
	<path d="M394.2,339.8l0.1,1.7c0.5-0.6,1-1.1,1.7-1.4s1.4-0.5,2.3-0.5c0.6,0,1.2,0.1,1.7,0.3c0.5,0.2,1,0.5,1.3,0.8
		c0.4,0.4,0.7,0.9,0.9,1.5s0.3,1.3,0.3,2.2v8.7h-2.3v-8.7c0-0.5-0.1-1-0.2-1.3c-0.1-0.4-0.3-0.7-0.5-0.9c-0.2-0.2-0.5-0.4-0.8-0.5
		s-0.7-0.2-1.1-0.2c-0.7,0-1.4,0.2-1.9,0.6s-1,0.9-1.3,1.5v9.4H392v-13.2H394.2z"/>
</g>
<g id="XMLID_175_">
	<g>
		<path class="st0" d="M560.8,318.1c-18.9,0-49.8-14.2-66.5-53.9c-14.4-34.2-8.2-124.7-73.2-149.2c-10.5-3.9-22.8-6.2-37.4-6.2
			c-7.7,0-14.8,0.4-21.3,1.1c-33.6,3.6-54,16-68.9,33.1c-28.8,32.9-37.1,83.2-79.7,120.8c-50,44.1-131.2,52.9-172.9,54.3
			c-16.3,0.6-26.6,0-26.6,0"/>
		<line class="st1" x1="420.8" y1="115.9" x2="420.8" y2="318.1"/>
		<polyline class="st1" points="362.3,109.9 362.3,109.9 362.3,318.1 		"/>
		<polyline class="st1" points="293.4,142.9 293.4,143 293.4,318.1 		"/>
	</g>
</g>
<g>
	<g>
		<line class="st0" x1="5.7" y1="318.1" x2="609.3" y2="318.1"/>
		<g>
			<polygon points="6.9,322.1 0,318.1 6.9,314.1 			"/>
		</g>
		<g>
			<polygon points="608.1,322.1 615,318.1 608.1,314.1 			"/>
		</g>
	</g>
</g>
</svg>
