<?xml version="1.0" encoding="utf-8"?>
<!-- Generator: Adobe Illustrator 23.0.1, SVG Export Plug-In . SVG Version: 6.00 Build 0)  -->
<svg version="1.1" id="Layer_1" xmlns="http://www.w3.org/2000/svg" xmlns:xlink="http://www.w3.org/1999/xlink" x="0px" y="0px" viewBox="0 0 615 353.3" style="enable-background:new 0 0 615 353.3;" xml:space="preserve">
<style type="text/css">
	.st0{fill:none;stroke:#000000;stroke-width:2;stroke-miterlimit:10;}
	.st1{fill:none;stroke:#000000;stroke-width:0.75;stroke-miterlimit:10;stroke-dasharray:3;}
</style>
<g>
	<path d="M112.4,339.8l0.1,1.5c0.5-0.5,1-1,1.7-1.3s1.4-0.5,2.3-0.5s1.6,0.2,2.3,0.5c0.7,0.3,1.2,0.9,1.5,1.6c0.4-0.6,1-1.1,1.7-1.5
		s1.5-0.6,2.5-0.6c0.7,0,1.3,0.1,1.9,0.3s1,0.5,1.4,0.9c0.4,0.4,0.7,0.9,0.9,1.5s0.3,1.3,0.3,2.2v8.7h-2.3v-8.7c0-0.6-0.1-1-0.2-1.4
		s-0.3-0.7-0.6-0.9c-0.2-0.2-0.5-0.4-0.9-0.5s-0.7-0.1-1.2-0.1s-0.9,0.1-1.2,0.2c-0.4,0.1-0.7,0.3-0.9,0.6s-0.5,0.5-0.6,0.9
		c-0.2,0.3-0.2,0.7-0.3,1.1v8.8h-2.3v-8.7c0-0.5-0.1-1-0.2-1.3c-0.1-0.4-0.3-0.7-0.6-0.9c-0.2-0.2-0.5-0.4-0.9-0.5
		c-0.3-0.1-0.7-0.2-1.2-0.2c-0.8,0-1.5,0.2-1.9,0.5s-0.9,0.8-1.1,1.4v9.7h-2.3v-13.2h2.1V339.8z"/>
	<path d="M131.7,346.3c0-1,0.1-1.9,0.4-2.7c0.3-0.8,0.7-1.5,1.2-2.1s1.1-1.1,1.9-1.4c0.7-0.3,1.6-0.5,2.5-0.5s1.8,0.2,2.5,0.5
		s1.4,0.8,1.9,1.4s0.9,1.3,1.2,2.1c0.3,0.8,0.4,1.7,0.4,2.7v0.3c0,1-0.1,1.9-0.4,2.7c-0.3,0.8-0.7,1.5-1.2,2.1s-1.2,1.1-1.9,1.4
		s-1.6,0.5-2.5,0.5s-1.8-0.2-2.5-0.5s-1.4-0.8-1.9-1.4s-0.9-1.3-1.2-2.1c-0.3-0.8-0.4-1.7-0.4-2.7V346.3z M134,346.6
		c0,0.7,0.1,1.3,0.2,1.9c0.2,0.6,0.4,1.1,0.7,1.5s0.7,0.8,1.2,1.1c0.5,0.3,1,0.4,1.6,0.4s1.2-0.1,1.6-0.4c0.5-0.3,0.9-0.6,1.2-1.1
		c0.3-0.4,0.5-1,0.7-1.5c0.2-0.6,0.2-1.2,0.2-1.9v-0.3c0-0.7-0.1-1.3-0.2-1.9c-0.2-0.6-0.4-1.1-0.7-1.6c-0.3-0.4-0.7-0.8-1.2-1.1
		c-0.5-0.3-1-0.4-1.7-0.4c-0.6,0-1.2,0.1-1.6,0.4c-0.5,0.3-0.9,0.6-1.2,1.1c-0.3,0.4-0.5,1-0.7,1.6s-0.2,1.2-0.2,1.9L134,346.6
		L134,346.6z"/>
	<path d="M146,346.3c0-1,0.1-1.9,0.4-2.8c0.2-0.8,0.6-1.5,1.1-2.1s1-1,1.6-1.4c0.6-0.3,1.4-0.5,2.1-0.5c0.8,0,1.5,0.1,2.1,0.4
		s1.1,0.7,1.6,1.2v-6.9h2.3V353h-2.1l-0.1-1.4c-0.4,0.5-1,1-1.6,1.2s-1.3,0.4-2.2,0.4c-0.8,0-1.5-0.2-2.1-0.5s-1.2-0.8-1.6-1.4
		s-0.8-1.3-1.1-2.1c-0.2-0.8-0.4-1.7-0.4-2.7V346.3z M148.3,346.6c0,0.7,0.1,1.3,0.2,1.9c0.1,0.6,0.3,1.1,0.6,1.5s0.6,0.8,1.1,1
		c0.4,0.3,1,0.4,1.6,0.4c0.4,0,0.8,0,1.1-0.1s0.6-0.2,0.9-0.4c0.3-0.2,0.5-0.4,0.7-0.6s0.4-0.5,0.5-0.8v-6.1
		c-0.1-0.3-0.3-0.5-0.5-0.7s-0.4-0.4-0.7-0.6s-0.5-0.3-0.9-0.4s-0.7-0.1-1.1-0.1c-0.6,0-1.2,0.1-1.6,0.4c-0.4,0.3-0.8,0.6-1.1,1
		s-0.5,1-0.6,1.5s-0.2,1.2-0.2,1.9V346.6z"/>
	<path d="M166.2,353.3c-0.9,0-1.8-0.2-2.5-0.5s-1.4-0.8-1.9-1.3c-0.5-0.6-0.9-1.2-1.2-2s-0.4-1.6-0.4-2.6v-0.5c0-1.1,0.2-2,0.5-2.9
		c0.3-0.8,0.8-1.6,1.3-2.1s1.2-1,1.8-1.3s1.4-0.5,2.2-0.5c0.9,0,1.8,0.2,2.4,0.5c0.7,0.3,1.3,0.8,1.7,1.4s0.8,1.3,1,2.1
		c0.2,0.8,0.3,1.7,0.3,2.6v1h-9c0,0.6,0.1,1.2,0.3,1.7s0.4,1,0.8,1.4c0.3,0.4,0.7,0.7,1.2,0.9s1,0.3,1.6,0.3c0.8,0,1.5-0.2,2-0.5
		c0.6-0.3,1-0.8,1.5-1.3l1.4,1.1c-0.2,0.3-0.5,0.6-0.8,0.9s-0.7,0.6-1.1,0.8c-0.4,0.2-0.9,0.4-1.4,0.6
		C167.5,353.2,166.9,353.3,166.2,353.3z M165.9,341.4c-0.5,0-0.9,0.1-1.3,0.3c-0.4,0.2-0.7,0.4-1,0.7s-0.6,0.7-0.8,1.2
		s-0.3,1-0.4,1.6h6.6V345c0-0.4-0.1-0.9-0.2-1.3s-0.3-0.8-0.6-1.2c-0.2-0.3-0.6-0.6-1-0.8C167,341.5,166.5,341.4,165.9,341.4z"/>
</g>
<g>
	<path d="M304.6,339.8l0.1,1.5c0.5-0.5,1-1,1.7-1.3s1.4-0.5,2.3-0.5s1.6,0.2,2.3,0.5c0.7,0.3,1.2,0.9,1.5,1.6c0.4-0.6,1-1.1,1.7-1.5
		s1.5-0.6,2.5-0.6c0.7,0,1.3,0.1,1.9,0.3s1,0.5,1.4,0.9s0.7,0.9,0.9,1.5c0.2,0.6,0.3,1.3,0.3,2.2v8.7h-2.3v-8.7c0-0.6-0.1-1-0.2-1.4
		s-0.3-0.7-0.6-0.9c-0.2-0.2-0.5-0.4-0.9-0.5s-0.7-0.1-1.2-0.1s-0.9,0.1-1.2,0.2c-0.4,0.1-0.7,0.3-0.9,0.6s-0.5,0.5-0.6,0.9
		c-0.2,0.3-0.2,0.7-0.3,1.1v8.8h-2.3v-8.7c0-0.5-0.1-1-0.2-1.3c-0.1-0.4-0.3-0.7-0.6-0.9c-0.2-0.2-0.5-0.4-0.9-0.5
		c-0.3-0.1-0.7-0.2-1.2-0.2c-0.8,0-1.5,0.2-1.9,0.5s-0.9,0.8-1.1,1.4v9.7h-2.3v-13.2h2.1L304.6,339.8L304.6,339.8z"/>
	<path d="M329.9,353.3c-0.9,0-1.8-0.2-2.5-0.5s-1.4-0.8-1.9-1.3c-0.5-0.6-0.9-1.2-1.2-2c-0.3-0.8-0.4-1.6-0.4-2.6v-0.5
		c0-1.1,0.2-2,0.5-2.9c0.3-0.8,0.8-1.6,1.3-2.1s1.2-1,1.8-1.3s1.4-0.5,2.2-0.5c0.9,0,1.8,0.2,2.4,0.5c0.7,0.3,1.3,0.8,1.7,1.4
		s0.8,1.3,1,2.1c0.2,0.8,0.3,1.7,0.3,2.6v1h-9c0,0.6,0.1,1.2,0.3,1.7s0.4,1,0.8,1.4c0.3,0.4,0.7,0.7,1.2,0.9s1,0.3,1.6,0.3
		c0.8,0,1.5-0.2,2-0.5c0.6-0.3,1-0.8,1.5-1.3l1.4,1.1c-0.2,0.3-0.5,0.6-0.8,0.9s-0.7,0.6-1.1,0.8c-0.4,0.2-0.9,0.4-1.4,0.6
		C331.1,353.2,330.6,353.3,329.9,353.3z M329.6,341.4c-0.5,0-0.9,0.1-1.3,0.3c-0.4,0.2-0.7,0.4-1,0.7s-0.6,0.7-0.8,1.2
		c-0.2,0.5-0.3,1-0.4,1.6h6.6V345c0-0.4-0.1-0.9-0.2-1.3s-0.3-0.8-0.6-1.2c-0.2-0.3-0.6-0.6-1-0.8
		C330.7,341.5,330.2,341.4,329.6,341.4z"/>
	<path d="M345.9,353c-0.1-0.2-0.1-0.4-0.2-0.6c0-0.2-0.1-0.5-0.1-0.8c-0.2,0.2-0.5,0.4-0.7,0.6c-0.3,0.2-0.6,0.4-0.9,0.5
		c-0.3,0.2-0.7,0.3-1,0.4c-0.4,0.1-0.8,0.1-1.2,0.1c-0.7,0-1.3-0.1-1.8-0.3c-0.5-0.2-1-0.5-1.4-0.8c-0.4-0.4-0.7-0.8-0.9-1.2
		c-0.2-0.5-0.3-1-0.3-1.5c0-0.7,0.1-1.3,0.4-1.9c0.3-0.5,0.7-1,1.2-1.4s1.1-0.6,1.9-0.8c0.7-0.2,1.6-0.3,2.5-0.3h2.3v-1
		c0-0.8-0.2-1.4-0.7-1.9s-1.2-0.7-2.1-0.7c-0.4,0-0.8,0.1-1.2,0.2s-0.7,0.3-0.9,0.5c-0.2,0.2-0.4,0.4-0.6,0.7
		c-0.1,0.3-0.2,0.5-0.2,0.8h-2.3c0-0.5,0.1-0.9,0.4-1.4c0.2-0.5,0.6-0.9,1.1-1.3s1-0.7,1.7-0.9s1.4-0.3,2.2-0.3c0.7,0,1.4,0.1,2,0.3
		s1.1,0.5,1.6,0.8c0.4,0.4,0.8,0.8,1,1.4s0.4,1.2,0.4,1.9v6.2c0,0.4,0,0.9,0.1,1.4s0.2,0.9,0.3,1.3v0.2h-2.6L345.9,353L345.9,353z
		 M342.1,351.3c0.4,0,0.8-0.1,1.2-0.2c0.4-0.1,0.7-0.3,1-0.4c0.3-0.2,0.5-0.4,0.8-0.6c0.2-0.2,0.4-0.5,0.5-0.7v-2.7h-1.9
		c-1.3,0-2.3,0.2-3,0.6s-1.1,1-1.1,1.8c0,0.3,0.1,0.6,0.2,0.9s0.3,0.5,0.5,0.7s0.5,0.4,0.8,0.5C341.3,351.3,341.7,351.3,342.1,351.3
		z"/>
	<path d="M353.5,339.8l0.1,1.7c0.5-0.6,1-1.1,1.7-1.4s1.4-0.5,2.3-0.5c0.6,0,1.2,0.1,1.7,0.3c0.5,0.2,1,0.5,1.3,0.8
		c0.4,0.4,0.7,0.9,0.9,1.5s0.3,1.3,0.3,2.2v8.7h-2.3v-8.7c0-0.5-0.1-1-0.2-1.3c-0.1-0.4-0.3-0.7-0.5-0.9c-0.2-0.2-0.5-0.4-0.8-0.5
		s-0.7-0.2-1.1-0.2c-0.7,0-1.4,0.2-1.9,0.6s-1,0.9-1.3,1.5v9.4h-2.3v-13.2H353.5z"/>
</g>
<g>
	<path d="M198.1,339.8l0.1,1.5c0.5-0.5,1-1,1.7-1.3s1.4-0.5,2.3-0.5c0.9,0,1.6,0.2,2.3,0.5s1.2,0.9,1.5,1.6c0.4-0.6,1-1.1,1.7-1.5
		s1.5-0.6,2.5-0.6c0.7,0,1.3,0.1,1.9,0.3s1,0.5,1.4,0.9s0.7,0.9,0.9,1.5s0.3,1.3,0.3,2.2v8.7h-2.3v-8.7c0-0.6-0.1-1-0.2-1.4
		c-0.1-0.4-0.3-0.7-0.6-0.9c-0.2-0.2-0.5-0.4-0.9-0.5s-0.7-0.1-1.2-0.1s-0.9,0.1-1.2,0.2c-0.4,0.1-0.7,0.3-0.9,0.6s-0.5,0.5-0.6,0.9
		c-0.2,0.3-0.2,0.7-0.3,1.1v8.8h-2.3v-8.7c0-0.5-0.1-1-0.2-1.3c-0.1-0.4-0.3-0.7-0.6-0.9c-0.2-0.2-0.5-0.4-0.9-0.5
		c-0.3-0.1-0.7-0.2-1.2-0.2c-0.8,0-1.5,0.2-1.9,0.5s-0.9,0.8-1.1,1.4v9.7H196v-13.2h2.1V339.8z"/>
	<path d="M223.4,353.3c-0.9,0-1.8-0.2-2.5-0.5s-1.4-0.8-1.9-1.3c-0.5-0.6-0.9-1.2-1.2-2s-0.4-1.6-0.4-2.6v-0.5c0-1.1,0.2-2,0.5-2.9
		c0.3-0.8,0.8-1.6,1.3-2.1s1.2-1,1.8-1.3s1.4-0.5,2.2-0.5c0.9,0,1.8,0.2,2.4,0.5c0.7,0.3,1.3,0.8,1.7,1.4s0.8,1.3,1,2.1
		c0.2,0.8,0.3,1.7,0.3,2.6v1h-9c0,0.6,0.1,1.2,0.3,1.7s0.4,1,0.8,1.4c0.3,0.4,0.7,0.7,1.2,0.9s1,0.3,1.6,0.3c0.8,0,1.5-0.2,2-0.5
		c0.6-0.3,1-0.8,1.5-1.3l1.4,1.1c-0.2,0.3-0.5,0.6-0.8,0.9s-0.7,0.6-1.1,0.8c-0.4,0.2-0.9,0.4-1.4,0.6
		C224.6,353.2,224.1,353.3,223.4,353.3z M223.1,341.4c-0.5,0-0.9,0.1-1.3,0.3c-0.4,0.2-0.7,0.4-1,0.7s-0.6,0.7-0.8,1.2
		s-0.3,1-0.4,1.6h6.6V345c0-0.4-0.1-0.9-0.2-1.3s-0.3-0.8-0.6-1.2c-0.2-0.3-0.6-0.6-1-0.8C224.2,341.5,223.7,341.4,223.1,341.4z"/>
	<path d="M230.6,346.3c0-1,0.1-1.9,0.4-2.8c0.2-0.8,0.6-1.5,1.1-2.1s1-1,1.6-1.4c0.6-0.3,1.4-0.5,2.1-0.5c0.8,0,1.5,0.1,2.1,0.4
		s1.1,0.7,1.6,1.2v-6.9h2.3V353h-2.1l-0.1-1.4c-0.4,0.5-1,1-1.6,1.2s-1.3,0.4-2.2,0.4c-0.8,0-1.5-0.2-2.1-0.5s-1.2-0.8-1.6-1.4
		s-0.8-1.3-1.1-2.1c-0.2-0.8-0.4-1.7-0.4-2.7V346.3z M232.9,346.6c0,0.7,0.1,1.3,0.2,1.9c0.1,0.6,0.3,1.1,0.6,1.5s0.6,0.8,1.1,1
		c0.4,0.3,1,0.4,1.6,0.4c0.4,0,0.8,0,1.1-0.1s0.6-0.2,0.9-0.4c0.3-0.2,0.5-0.4,0.7-0.6s0.4-0.5,0.5-0.8v-6.1
		c-0.1-0.3-0.3-0.5-0.5-0.7s-0.4-0.4-0.7-0.6s-0.5-0.3-0.9-0.4s-0.7-0.1-1.1-0.1c-0.6,0-1.2,0.1-1.6,0.4c-0.4,0.3-0.8,0.6-1.1,1
		s-0.5,1-0.6,1.5s-0.2,1.2-0.2,1.9V346.6z"/>
	<path d="M245.3,336.3c0-0.4,0.1-0.7,0.3-0.9s0.6-0.4,1-0.4s0.8,0.1,1,0.4s0.3,0.6,0.3,0.9s-0.1,0.7-0.3,0.9c-0.2,0.2-0.6,0.4-1,0.4
		s-0.8-0.1-1-0.4C245.4,337,245.3,336.7,245.3,336.3z M247.8,353h-2.3v-13.2h2.3V353z"/>
	<path d="M259.6,353c-0.1-0.2-0.1-0.4-0.2-0.6c0-0.2-0.1-0.5-0.1-0.8c-0.2,0.2-0.5,0.4-0.7,0.6c-0.3,0.2-0.6,0.4-0.9,0.5
		c-0.3,0.2-0.7,0.3-1,0.4c-0.4,0.1-0.8,0.1-1.2,0.1c-0.7,0-1.3-0.1-1.8-0.3c-0.5-0.2-1-0.5-1.4-0.8c-0.4-0.4-0.7-0.8-0.9-1.2
		c-0.2-0.5-0.3-1-0.3-1.5c0-0.7,0.1-1.3,0.4-1.9c0.3-0.5,0.7-1,1.2-1.4s1.1-0.6,1.9-0.8c0.7-0.2,1.6-0.3,2.5-0.3h2.3v-1
		c0-0.8-0.2-1.4-0.7-1.9s-1.2-0.7-2.1-0.7c-0.4,0-0.8,0.1-1.2,0.2s-0.7,0.3-0.9,0.5s-0.4,0.4-0.6,0.7c-0.1,0.3-0.2,0.5-0.2,0.8h-2.3
		c0-0.5,0.1-0.9,0.4-1.4c0.2-0.5,0.6-0.9,1.1-1.3s1-0.7,1.7-0.9s1.4-0.3,2.2-0.3c0.7,0,1.4,0.1,2,0.3s1.1,0.5,1.6,0.8
		c0.4,0.4,0.8,0.8,1,1.4s0.4,1.2,0.4,1.9v6.2c0,0.4,0,0.9,0.1,1.4s0.2,0.9,0.3,1.3v0.2h-2.6L259.6,353L259.6,353z M255.8,351.3
		c0.4,0,0.8-0.1,1.2-0.2s0.7-0.3,1-0.4c0.3-0.2,0.5-0.4,0.8-0.6c0.2-0.2,0.4-0.5,0.5-0.7v-2.7h-1.9c-1.3,0-2.3,0.2-3,0.6
		s-1.1,1-1.1,1.8c0,0.3,0.1,0.6,0.2,0.9c0.1,0.3,0.3,0.5,0.5,0.7s0.5,0.4,0.8,0.5C255,351.3,255.4,351.3,255.8,351.3z"/>
	<path d="M267.2,339.8l0.1,1.7c0.5-0.6,1-1.1,1.7-1.4s1.4-0.5,2.3-0.5c0.6,0,1.2,0.1,1.7,0.3c0.5,0.2,1,0.5,1.3,0.8
		c0.4,0.4,0.7,0.9,0.9,1.5s0.3,1.3,0.3,2.2v8.7h-2.3v-8.7c0-0.5-0.1-1-0.2-1.3c-0.1-0.4-0.3-0.7-0.5-0.9c-0.2-0.2-0.5-0.4-0.8-0.5
		s-0.7-0.2-1.1-0.2c-0.7,0-1.4,0.2-1.9,0.6s-1,0.9-1.3,1.5v9.4H265v-13.2H267.2z"/>
</g>
<g id="XMLID_203_">
	<g>
		<path class="st0" d="M34.3,318.1c18.9,0,49.8-14.2,66.5-53.9C115.2,230,109,139.5,174,115c10.5-3.9,22.8-6.2,37.4-6.2
			c7.7,0,14.8,0.4,21.3,1.1c33.5,3.6,54,16,68.9,33c28.9,32.9,37.1,83.2,79.8,120.9c50,44.1,131.2,52.9,172.9,54.3
			c16.3,0.6,26.6,0,26.6,0"/>
		<line class="st1" x1="174.4" y1="115.9" x2="174.4" y2="318.1"/>
		<polyline class="st1" points="232.8,109.9 232.8,109.9 232.8,318.1 		"/>
		<polyline class="st1" points="301.8,142.9 301.8,143 301.8,318.1 		"/>
	</g>
</g>
<g>
	<g>
		<line class="st0" x1="5.7" y1="318.1" x2="609.3" y2="318.1"/>
		<g>
			<polygon points="6.9,322.1 0,318.1 6.9,314.1 			"/>
		</g>
		<g>
			<polygon points="608.1,322.1 615,318.1 608.1,314.1 			"/>
		</g>
	</g>
</g>
<g>
	<g>
		<line class="st0" x1="5.7" y1="318.1" x2="609.3" y2="318.1"/>
		<g>
			<polygon points="6.9,322.1 0,318.1 6.9,314.1 			"/>
		</g>
		<g>
			<polygon points="608.1,322.1 615,318.1 608.1,314.1 			"/>
		</g>
	</g>
</g>
</svg>
