<?xml version="1.0" encoding="utf-8"?>
<!-- Generator: Adobe Illustrator 21.1.0, SVG Export Plug-In . SVG Version: 6.00 Build 0)  -->
<svg version="1.1" id="Layer_1" xmlns="http://www.w3.org/2000/svg" xmlns:xlink="http://www.w3.org/1999/xlink" x="0px" y="0px" viewBox="0 0 615 353.3" style="enable-background:new 0 0 615 353.3;" xml:space="preserve">
<style type="text/css">
	.st0{opacity:0.6;}
	.st1{fill:#A8DBD5;}
	.st2{fill:#646767;}
	.st3{fill:#FFFFFF;}
</style>
<g class="st0">
	<path class="st1" d="M104.4,235.2c3.3,2.9,6.9,5.1,10.9,6.8c1.3,0.6,3,0.7,4.7,0.9c2.3,0.2,4.9,0.5,7.4,1.8
		c5.4,2.8,6.1,7.9,6.7,12.3c0.2,1.7,0.5,3.6,1,5.3c3,10.5,9.3,20.1,18.2,27.6c12.4,10.5,29.9,17.8,47.9,19.9c15.7,1.7,32.8,3,53.8,3
		h0c14.1,0,28.4-0.8,42.2-1.2c12.5-0.3,25.3-1.1,37.8-1.1c-0.1-3,2.4-5.9,4-7.7l0.2-0.2c4.2-4.7,10.1-8.2,15.4-11
		c0.6-0.3,1.1-0.6,1.7-0.9c7.4-5.8,16.1-11.9,26.4-16.4c2.7-1.2,5.4-2.3,8.1-3.4c10.2-5,21.6-9.3,35.1-13.2c2.1-0.8,4.1-1.6,6.1-2.3
		c0.6-0.2,1.2-0.4,1.8-0.7c0.3-0.2,0.7-0.4,1.1-0.4c5.5-1.9,11.3-3.3,16.9-4.6c1.8-0.4,3.6-0.9,5.4-1.3c0.8-0.3,1.5-0.6,2.3-0.8
		l1.2-0.5c6.6-2.5,13.7-4.9,19.1-4.8c0.2-6.1-0.1-11.2-0.3-14.3c-1.8-21.4-3.9-39.3-12.4-58.2c-0.9-1.9-1.7-3.8-2.5-5.7
		c-2.6-6.1-5.1-11.8-8.9-17c-15-20.2-44.3-31.8-80.4-31.8c-19.2,0-37.9,3.4-52.8,9.6c-23.8,10-35.8,30.9-47.9,55.3
		c-1.2,2.4-2.4,4.8-3.6,7.2c-9.7,19.6-19.7,39.8-32.5,57.5c-10.6,14.7-21.7,20.2-41,20.4c-0.7,0-1.5,0-2.2,0
		c-7.8,0-16.8-0.5-25.1-4.2c-7.5-3.3-11.5-7.4-11.7-11.8c-0.2-3.6,2.2-6.8,7-9.5c8.9-4.9,13.6-7.9,16.8-16.6
		c4.5-12.5,4.1-26.2,3.7-39.5c0-1.6-0.1-3.1-0.1-4.6c-8.2-0.3-18.2,3.5-27.3,10.3c-8.8,6.5-12.5,18.7-13,27.9
		c-0.1,1.6-1.4,2.8-3,2.9c-1.6,0.1-2.9-1.2-3.1-2.8c-0.7-7.8-5.8-15.8-10.4-20.7c-4.9-5.1-7.2-6.8-14.1-8.3c-4.3-1-8.7-1.4-13-1.8
		c-5.6-0.6-11.4-1.1-17-3C84.7,201,89.7,222.4,104.4,235.2z M427.7,225.5c0-5.3,4.3-9.5,9.5-9.5c5.3,0,9.5,4.3,9.5,9.5
		c0,5.3-4.3,9.5-9.5,9.5C432,235,427.7,230.8,427.7,225.5z"/>
	<path class="st2" d="M100.5,239.8c3.8,3.3,8,5.9,12.5,7.8c2.2,0.9,4.4,1.1,6.4,1.4c1.9,0.2,3.8,0.4,5.2,1.2
		c2.5,1.3,2.9,3.5,3.6,7.8c0.3,1.8,0.5,3.9,1.2,6.1c3.4,11.7,10.3,22.1,20.1,30.4c13.3,11.2,31.9,18.8,51.1,21
		c15.9,1.8,33.2,2.5,54.4,2.5h0c14.1,0,28.5-0.2,42.4-0.5c13.4-0.3,27.2-0.5,40.6-0.5h0.7c7.6,0,15.3,0,22.8,0.1
		c7.5,0.1,15.3,0.1,23,0.1c10.2,0,18.7-0.2,26.7-0.6l2.9-0.1c14.5-0.7,29.5-1.4,42.4-9.9c22.1-14.5,28.1-41,29.3-60
		c0.1-0.1,0.1-0.3,0.2-0.4c0.2-0.3,0.3-0.6,0.3-1c0-0.4-0.1-0.7-0.3-1.1c0.3-7,0-12.8-0.3-16.4c-1.8-21.3-4-40.5-12.9-60.2
		c-0.9-1.9-1.6-3.7-2.4-5.6c-2.6-6.1-5.3-12.5-9.6-18.3c-16.2-21.8-47.3-34.3-85.3-34.3c-20,0-39.5,3.6-55.1,10.1
		c-25.8,10.8-38.3,32.7-51,58.2c-1.2,2.4-2.4,4.8-3.6,7.2c-9.6,19.4-19.4,39.4-32,56.6c-9.5,13-18.9,17.7-36.1,17.9
		c-0.7,0-1.4,0-2.2,0c-7.1,0-15.4-0.4-22.6-3.6c-5.5-2.5-8.1-5.1-8.1-6.5c0-1.1,1.4-2.5,3.9-3.9c8.3-4.6,15.5-8.6,19.5-19.8
		c4.9-13.6,4.5-27.9,4-41.7c-0.1-2.4-0.2-4.9-0.2-7.3c0-1.5-1.1-2.7-2.6-2.9c-10.2-1.5-23,2.7-34.4,11.2
		c-6.6,4.9-10.8,12.4-13.1,19.8c-2.9-5.9-6.8-10.2-8.4-11.9c-5.6-5.9-8.9-8.2-17.2-10.1c-4.7-1.1-9.3-1.5-13.7-2
		c-6.8-0.7-13.2-1.3-19.2-4c-0.9-0.4-2-0.4-2.8,0.2c-0.9,0.5-1.4,1.4-1.5,2.4C77.8,198.4,82.9,224.5,100.5,239.8z M115.3,242
		c-3.9-1.7-7.6-3.9-10.9-6.8c-14.7-12.8-19.7-34.3-19.6-51.5c5.6,1.8,11.4,2.4,17,3c4.3,0.4,8.6,0.9,13,1.8c7,1.6,9.3,3.2,14.1,8.3
		c4.6,4.9,9.8,12.9,10.4,20.7c0.1,1.6,1.4,2.9,3.1,2.8c1.6,0,2.9-1.3,3-2.9c0.5-9.2,4.2-21.3,13-27.9c9.1-6.8,19.1-10.6,27.3-10.3
		c0,1.5,0.1,3.1,0.1,4.6c0.4,13.3,0.9,27-3.7,39.5c-3.1,8.7-7.9,11.6-16.8,16.6c-4.8,2.7-7.1,5.8-7,9.5c0.2,4.4,4.2,8.5,11.7,11.8
		c8.2,3.7,17.3,4.2,25.1,4.2c0.8,0,1.5,0,2.2,0c19.2-0.2,30.3-5.8,41-20.4c12.8-17.7,22.8-37.9,32.5-57.5c1.2-2.4,2.4-4.8,3.6-7.2
		c12.1-24.3,24.1-45.3,47.9-55.3c14.9-6.2,33.6-9.6,52.8-9.6c36.1,0,65.4,11.6,80.4,31.8c3.9,5.2,6.3,11,8.9,17
		c0.8,1.9,1.6,3.8,2.5,5.7c8.6,18.8,10.6,36.7,12.4,58.2c0.3,3.2,0.5,8.2,0.3,14.3c-5.4-0.2-12.5,2.3-19.1,4.8l-1.2,0.5
		c-0.7,0.3-1.5,0.6-2.3,0.8c-1.8,0.5-3.6,0.9-5.4,1.3c-5.6,1.3-11.3,2.7-16.9,4.6c-0.4,0-0.8,0.2-1.1,0.4c-0.6,0.2-1.2,0.4-1.8,0.7
		c-2,0.8-4.1,1.6-6.1,2.3c-13.5,3.9-24.9,8.2-35.1,13.2c-2.7,1.1-5.4,2.2-8.1,3.4c-10.3,4.5-19,10.6-26.4,16.4
		c-0.6,0.3-1.1,0.6-1.7,0.9c-5.3,2.8-11.2,6.3-15.4,11L339,303c-1.6,1.8-4.1,4.8-4,7.8c-12.5,0.1-25.4,0.6-37.8,0.9
		c-13.8,0.3-28.2,1.2-42.2,1.2h0c-21,0-38.1-1.3-53.8-3c-18-2-35.5-9.6-47.9-20.1c-8.9-7.5-15.1-17-18.2-27.5
		c-0.5-1.7-0.8-3.5-1-5.2c-0.6-4.4-1.3-9.5-6.7-12.3c-2.5-1.3-5.1-1.6-7.4-1.8C118.3,242.8,116.6,242.6,115.3,242z M343.8,311.8
		c-1.9,0.2-3.1,0.2-3.7,0c2.5-5,7.5-8.9,12.3-12.7c1-0.8,1.9-1.5,2.9-2.3c1-0.8,2.1-1.7,3.1-2.5c2.9-1.6,5.8-3.2,8.6-4.9
		c-2.2,3.9-4.9,7.7-7.6,11.4c-2.5,3.6-5.1,7.2-7.3,10.9c-1.9,0-3.7,0-5.6-0.1C345.7,311.6,344.8,311.7,343.8,311.8z M361.9,311.8
		c-1.7,0-3.4,0-5-0.1c1.8-2.8,3.8-5.6,5.9-8.6c4-5.6,8.2-11.4,10.7-17.6c0.5-0.3,1.1-0.7,1.6-1c1.9-1.2,3.9-2.4,5.8-3.5
		c3-1.8,6-3.5,9.1-5.1c-5.4,12.3-13.8,27.8-21.8,35.7c-0.1,0.1-0.1,0.2-0.2,0.2C365.9,311.8,363.9,311.8,361.9,311.8z M373.4,311.9
		c8.5-9.7,16.9-26.2,21.9-38.1c0-0.1,0-0.1,0.1-0.2c4.3-1.7,8.5-3.3,12.8-4.9c-3.7,9.4-5.7,14.2-9.4,20.5l-1.1,1.9
		c-4.2,7.1-8.9,15.1-13.9,20.6c-0.1,0.1-0.1,0.2-0.2,0.3C380.1,312,376.7,311.9,373.4,311.9z M427.1,261.6c1.5-0.4,3-0.9,4.5-1.3
		c-2.7,7.2-7.9,15.2-12.7,22.5c-2,3.1-3.9,6-5.5,8.7c-0.9,1.5-1.7,3-2.6,4.5c-3.2,5.5-6.5,11.2-10.7,15.8c-3.8,0.1-7.5,0.1-11.3,0.2
		c4.5-5.6,8.6-12.5,12.3-18.8l1.1-1.9c4.2-7.1,6.4-12.6,10.7-23.6l0.3-0.7c0-0.1,0-0.1,0.1-0.2c0.8-0.3,1.6-0.6,2.4-0.9
		C419.4,264.5,423.3,263.1,427.1,261.6z M458.4,252.4c2.5-0.6,5-1.3,7.4-2c0.1,0,0.2-0.1,0.3-0.1c-7.7,31.3-20.5,51.5-37.9,60
		c0,0,0,0-0.1,0c-2.6,0.3-5.2,0.5-7.8,0.6c15.3-13.5,30.9-39.7,33.3-56.9C455.3,253.5,456.9,252.9,458.4,252.4z M480.6,247.2
		c-1.1,15.5-6.3,41.4-27,55c-4.6,3-9.6,5-14.8,6.2c14.5-11,25-30.6,31.7-59.3c0-0.1,0-0.1,0-0.2C473.8,248.1,477,247.5,480.6,247.2z
		 M410.8,311.4c-1.7,0.1-3.5,0.2-5.2,0.2c3.4-4.3,6.1-9,8.8-13.6c0.9-1.5,1.7-3,2.6-4.4c1.6-2.6,3.4-5.5,5.4-8.5
		c5.4-8.3,11.5-17.6,14-26c4.6-1.2,8.9-2.4,13-3.7c-3.4,17.9-20.8,45.2-35.9,55.9L410.8,311.4z"/>
	<path class="st3" d="M418.9,282.9c-2,3.1-3.9,6-5.5,8.7c-0.9,1.5-1.7,3-2.6,4.5c-3.2,5.5-6.5,11.2-10.7,15.8
		c-3.8,0.1-7.5,0.1-11.3,0.2c4.5-5.6,8.6-12.5,12.3-18.8l1.1-1.9c4.2-7.1,6.4-12.6,10.7-23.6l0.3-0.7c0-0.1,0-0.1,0.1-0.2
		c0.8-0.3,1.6-0.6,2.4-0.9c3.8-1.4,7.6-2.8,11.4-4.2c1.5-0.4,3-0.9,4.5-1.3C428.9,267.6,423.7,275.6,418.9,282.9z"/>
	<path class="st3" d="M466.1,250.3c-7.7,31.3-20.5,51.5-37.9,60c0,0,0,0-0.1,0c-2.6,0.3-5.2,0.5-7.8,0.6
		c15.3-13.5,30.9-39.7,33.3-56.9c1.6-0.5,3.2-1.1,4.7-1.6c2.5-0.6,5-1.3,7.4-2C465.9,250.3,466,250.3,466.1,250.3z"/>
	<path class="st3" d="M453.5,302.2c-4.6,3-9.6,5-14.8,6.2c14.5-11,25-30.6,31.7-59.3c0-0.1,0-0.1,0-0.2c3.3-0.9,6.5-1.5,10.1-1.8
		C479.4,262.7,474.3,288.6,453.5,302.2z"/>
	<path class="st3" d="M395.3,273.8c0-0.1,0-0.1,0.1-0.2c4.3-1.7,8.5-3.3,12.8-4.9c-3.7,9.4-5.7,14.2-9.4,20.5l-1.1,1.9
		c-4.2,7.1-8.9,15.1-13.9,20.6c-0.1,0.1-0.1,0.2-0.2,0.3c-3.4,0-6.7,0-10.1-0.1C381.9,302.2,390.3,285.7,395.3,273.8z"/>
	<path class="st3" d="M405.6,311.6c3.4-4.3,6.1-9,8.8-13.6c0.9-1.5,1.7-3,2.6-4.4c1.6-2.6,3.4-5.5,5.4-8.5c5.4-8.3,11.5-17.6,14-26
		c4.6-1.2,8.9-2.4,13-3.7c-3.4,17.9-20.8,45.2-35.9,55.9l-2.7,0.1C409,311.5,407.3,311.6,405.6,311.6z"/>
	<path class="st3" d="M356.9,311.7c1.8-2.8,3.8-5.6,5.9-8.6c4-5.6,8.2-11.4,10.7-17.6c0.5-0.3,1.1-0.7,1.6-1
		c1.9-1.2,3.9-2.4,5.8-3.5c3-1.8,6-3.5,9.1-5.1c-5.4,12.3-13.8,27.8-21.8,35.7c-0.1,0.1-0.1,0.2-0.2,0.2c-2,0-4.1-0.1-6.1-0.1
		C360.2,311.8,358.5,311.7,356.9,311.7z"/>
	<path class="st3" d="M340.1,311.7c2.5-5,7.5-8.9,12.3-12.7c1-0.8,1.9-1.5,2.9-2.3c1-0.8,2.1-1.7,3.1-2.5c2.9-1.6,5.8-3.2,8.6-4.9
		c-2.2,3.9-4.9,7.7-7.6,11.4c-2.5,3.6-5.1,7.2-7.3,10.9c-1.9,0-3.7,0-5.6-0.1c-0.9,0-1.8,0.1-2.7,0.2
		C341.9,311.9,340.8,311.9,340.1,311.7z"/>
	<ellipse class="st2" cx="437.2" cy="225.5" rx="9.5" ry="9.5"/>
	<g>
		<path class="st1" d="M393.2,15.1c1.6-0.9,3.7-0.4,4.7,1.3c0.9,1.6,0.4,3.7-1.3,4.7c-3.8,2.2-7.7,5.9-11.1,10.8
			c-0.7,1-1.9,1.6-3.1,1.5c-0.6-0.1-1.1-0.2-1.7-0.6c-1.5-1.1-1.9-3.2-0.8-4.8C384,22.1,388.4,17.8,393.2,15.1z"/>
		<path class="st1" d="M412.5,13.1c4.5,1.7,8.9,4.8,13.1,9.4c0.2,0.2,0.4,0.4,0.6,0.6c1.1,1.5,0.9,3.6-0.5,4.7
			c-0.7,0.6-1.6,0.9-2.5,0.8c-0.8-0.1-1.7-0.5-2.3-1.1l-0.3-0.3l-0.4-0.3c-0.2-0.1-0.3-0.3-0.5-0.4c-0.3-0.2-0.5-0.5-0.7-0.8
			c-3-3-6-5-9-6.1c-1.8-0.6-2.7-2.6-2-4.4C408.7,13.4,410.7,12.5,412.5,13.1z"/>
		<path class="st1" d="M370.8,65.1c-1.9-0.2-3.2-1.9-3-3.8c0.1-1.3,0.3-2.6,0.5-3.9c0.6-4.3,1.8-8.9,3.5-13.5c0.7-1.8,2.6-2.7,4.4-2
			c1.8,0.7,2.7,2.6,2,4.4c-1.5,4.1-2.6,8.3-3.1,12c-0.2,1.3-0.3,2.5-0.5,3.8C374.3,63.9,372.7,65.2,370.8,65.1L370.8,65.1z"/>
		<path class="st1" d="M366.6,90c-0.1-4-0.1-7.8,0-11.4c0-1.9,1.6-3.4,3.5-3.3c1.9,0,3.4,1.6,3.3,3.5c-0.1,3.6-0.1,7.2,0,11.1
			c0,1.5-0.1,3.5-0.2,5.5l0,0.6c-0.1,1.9-1.7,3.3-3.6,3.2l-0.1,0c-1.8-0.2-3.2-1.8-3.1-3.6l0-0.6C366.5,93.1,366.6,91.3,366.6,90z"/>
		<path class="st1" d="M342.1,45.8c1.8-0.6,3.7,0.3,4.3,2.1c1.9,5.4,3.4,11.1,4.7,16.9c0.4,1.8-0.8,3.7-2.6,4.1
			c-0.4,0.1-0.8,0.1-1.1,0.1c-1.4-0.2-2.6-1.2-2.9-2.7c-1.2-5.5-2.7-11-4.5-16.1C339.3,48.4,340.3,46.4,342.1,45.8z"/>
		<path class="st1" d="M298,0c5.8,0.1,12.1,1.8,17.9,5c1.7,0.9,2.3,3,1.4,4.6c-0.7,1.3-2.1,1.9-3.4,1.8c-0.4,0-0.8-0.2-1.2-0.4
			c-4.8-2.6-10-4.1-14.7-4.1c-1.9,0-3.4-1.6-3.4-3.4C294.6,1.5,296.1,0,298,0z"/>
		<path class="st1" d="M275.5,21.6c0.3-0.8,0.6-1.7,0.9-2.7c1-3,2.2-6.7,4.1-10c1-1.6,3.1-2.1,4.7-1.1c1.6,1,2.1,3.1,1.1,4.7
			c-1.6,2.6-2.6,5.8-3.5,8.6c-0.3,1.1-0.7,2.1-1,3c-0.6,1.5-2.1,2.4-3.6,2.2c-0.3,0-0.5-0.1-0.8-0.2
			C275.8,25.3,274.9,23.4,275.5,21.6z"/>
		<path class="st1" d="M329.8,16.8c3.5,4.2,6.8,9.3,9.7,14.9c0.9,1.7,0.2,3.7-1.5,4.6c-0.6,0.3-1.3,0.4-2,0.4
			c-1.1-0.1-2.1-0.8-2.6-1.8c-2.7-5.2-5.7-9.8-8.9-13.7c-1.2-1.5-1-3.6,0.4-4.8C326.5,15.2,328.6,15.4,329.8,16.8z"/>
		<path class="st1" d="M350.1,79c1.9-0.2,3.6,1.2,3.7,3.1c0.6,6.2,0.8,12.1,0.6,17.6c-0.1,1.9-1.7,3.4-3.6,3.3l-0.3,0
			c-1.8-0.2-3.1-1.7-3-3.5c0.2-5.1,0-10.7-0.6-16.6C346.9,80.8,348.2,79.2,350.1,79z"/>
	</g>
</g>
</svg>
