<?xml version="1.0" encoding="utf-8"?>
<!-- Generator: Adobe Illustrator 21.1.0, SVG Export Plug-In . SVG Version: 6.00 Build 0)  -->
<svg version="1.1" id="Layer_1" xmlns="http://www.w3.org/2000/svg" xmlns:xlink="http://www.w3.org/1999/xlink" x="0px" y="0px" viewBox="0 0 615 353.3" style="enable-background:new 0 0 615 353.3;" xml:space="preserve">
<style type="text/css">
	.st0{opacity:0.6;}
	.st1{fill:#A8DBD5;}
	.st2{fill:#646767;}
	.st3{fill:#FFFFFF;}
</style>
<g class="st0">
	<path class="st1" d="M509.7,183.7c-5.6,1.8-11.4,2.4-17,3c-4.3,0.4-8.7,0.9-13,1.8c-7,1.6-9.3,3.2-14.2,8.3
		c-4.6,4.9-9.8,12.9-10.5,20.7c-0.1,1.6-1.4,2.9-3.1,2.8c-1.6,0-2.9-1.3-3-2.9c-0.5-9.2-4.2-21.3-13-27.9
		c-9.1-6.8-19.1-10.6-27.4-10.3c0,1.5-0.1,3.1-0.1,4.6c-0.4,13.3-0.9,27,3.7,39.5c3.1,8.7,7.9,11.6,16.8,16.6c4.8,2.7,7.1,5.8,7,9.5
		c-0.2,4.4-4.2,8.5-11.7,11.8c-8.2,3.7-17.3,4.2-25.1,4.2c-0.8,0-1.5,0-2.2,0c-19.2-0.2-30.3-5.8-41-20.4
		c-12.8-17.7-22.8-37.9-32.5-57.5c-1.2-2.4-2.4-4.8-3.6-7.2c-12-24.4-24-45.3-47.8-55.3c-14.9-6.2-33.6-9.6-52.8-9.6
		c-36.1,0-65.4,11.6-80.5,31.8c-3.9,5.2-6.3,11-8.9,17c-0.8,1.9-1.6,3.8-2.5,5.7c-8.6,18.8-10.6,36.7-12.4,58.2
		c-0.3,3.2-0.5,8.2-0.3,14.3c5.4-0.2,12.5,2.3,19.1,4.8l1.2,0.5c0.7,0.3,1.5,0.6,2.3,0.8c1.8,0.5,3.6,0.9,5.4,1.3
		c5.6,1.3,11.3,2.7,16.9,4.6c0.4,0,0.8,0.2,1.1,0.4c0.6,0.2,1.2,0.4,1.8,0.7c2,0.8,4.1,1.6,6.2,2.3c13.5,3.9,24.9,8.2,35.1,13.2
		c2.7,1.1,5.4,2.2,8.1,3.4c10.3,4.5,19,10.6,26.4,16.4c0.6,0.3,1.1,0.6,1.7,0.9c5.3,2.8,11.2,6.2,15.4,11l0.2,0.2
		c1.6,1.8,4.1,4.7,4,7.7c12.5,0.1,25.4,0.8,37.8,1.1c13.9,0.3,28.2,1.2,42.3,1.2l0,0c21,0,38.1-1.3,53.8-3
		c18.1-2,35.5-9.4,47.9-19.9c8.9-7.5,15.2-17.1,18.2-27.6c0.5-1.7,0.8-3.6,1-5.3c0.6-4.4,1.3-9.5,6.7-12.3c2.5-1.3,5.1-1.6,7.4-1.8
		c1.7-0.2,3.3-0.4,4.7-0.9c3.9-1.7,7.6-3.9,10.9-6.8C504.8,222.4,509.9,201,509.7,183.7z M157.1,235c-5.3,0-9.5-4.3-9.5-9.5
		c0-5.3,4.3-9.5,9.5-9.5c5.3,0,9.5,4.3,9.5,9.5C166.6,230.8,162.3,235,157.1,235z"/>
	<path class="st2" d="M515.7,179.2c-0.1-1-0.6-1.9-1.5-2.4s-1.9-0.6-2.8-0.2c-6,2.7-12.4,3.4-19.2,4c-4.4,0.4-9,0.9-13.7,2
		c-8.4,1.9-11.6,4.2-17.2,10.1c-1.6,1.7-5.4,6-8.4,11.9c-2.3-7.5-6.5-14.9-13.1-19.8c-11.4-8.5-24.2-12.7-34.4-11.2
		c-1.5,0.2-2.6,1.5-2.6,2.9c0,2.4-0.1,4.8-0.2,7.3c-0.4,13.9-0.9,28.2,4,41.7c4.1,11.2,11.2,15.2,19.5,19.8c2.5,1.4,3.9,2.8,3.9,3.9
		c-0.1,1.5-2.6,4.1-8.1,6.5c-7.2,3.2-15.5,3.6-22.6,3.6c-0.7,0-1.5,0-2.2,0c-17.2-0.2-26.7-4.9-36.1-17.9
		c-12.5-17.3-22.4-37.3-32-56.6c-1.2-2.4-2.4-4.8-3.6-7.2c-12.7-25.4-25.2-47.4-51-58.2c-15.6-6.5-35.2-10.1-55.2-10.1
		c-38,0-69.1,12.5-85.3,34.3c-4.3,5.8-7,12.1-9.7,18.3c-0.8,1.9-1.6,3.7-2.4,5.6c-8.9,19.7-11.2,38.9-12.9,60.2
		c-0.3,3.5-0.6,9.4-0.3,16.4c-0.2,0.3-0.3,0.7-0.3,1.1c0,0.4,0.1,0.7,0.3,1c0,0.1,0.1,0.3,0.2,0.4c1.2,19.1,7.2,45.5,29.3,60
		c12.9,8.5,27.9,9.2,42.5,9.9l2.9,0.1c8,0.4,16.4,0.6,26.7,0.6c7.7,0,15.5,0,23-0.1s15.2-0.1,22.8-0.1h0.7c13.4,0,27.2,0.2,40.6,0.5
		c13.9,0.3,28.3,0.5,42.4,0.5l0,0c21.3,0,38.6-0.7,54.5-2.5c19.2-2.1,37.9-9.8,51.2-21c9.8-8.2,16.7-18.7,20.1-30.4
		c0.6-2.2,0.9-4.2,1.2-6.1c0.6-4.3,1-6.4,3.6-7.8c1.5-0.8,3.3-1,5.2-1.2c2-0.2,4.2-0.5,6.4-1.4c4.5-1.9,8.7-4.5,12.5-7.8
		C511.7,224.5,516.8,198.4,515.7,179.2z M474.6,243c-2.3,0.2-4.9,0.5-7.4,1.8c-5.4,2.8-6.1,7.9-6.7,12.3c-0.2,1.7-0.5,3.5-1,5.2
		c-3,10.5-9.3,20-18.2,27.5c-12.4,10.5-29.9,18.1-47.9,20.1c-15.7,1.7-32.8,3-53.8,3l0,0c-14.1,0-28.4-0.8-42.3-1.2
		c-12.5-0.3-25.3-0.9-37.8-0.9c0.1-3-2.4-6-4-7.8l-0.2-0.2c-4.2-4.7-10.1-8.2-15.4-11c-0.6-0.3-1.1-0.6-1.7-0.9
		c-7.4-5.8-16.2-11.9-26.4-16.4c-2.7-1.2-5.4-2.3-8.1-3.4c-10.2-5-21.6-9.3-35.1-13.2c-2.1-0.8-4.1-1.6-6.2-2.3
		c-0.6-0.2-1.2-0.4-1.8-0.7c-0.3-0.2-0.7-0.4-1.1-0.4c-5.5-1.9-11.3-3.3-16.9-4.6c-1.8-0.4-3.6-0.9-5.4-1.3
		c-0.8-0.3-1.5-0.6-2.3-0.8l-1.2-0.5c-6.6-2.5-13.7-4.9-19.1-4.8c-0.2-6.1,0.1-11.2,0.3-14.3c1.8-21.4,3.9-39.3,12.4-58.2
		c0.9-1.9,1.7-3.8,2.5-5.7c2.6-6.1,5.1-11.8,8.9-17c15-20.2,44.4-31.8,80.5-31.8c19.2,0,37.9,3.4,52.8,9.6
		c23.9,10,35.8,30.9,47.9,55.3c1.2,2.4,2.4,4.8,3.6,7.2c9.7,19.6,19.7,39.8,32.5,57.5c10.7,14.7,21.8,20.2,41,20.4
		c0.7,0,1.5,0,2.2,0c7.8,0,16.9-0.5,25.1-4.2c7.5-3.3,11.5-7.4,11.7-11.8c0.2-3.6-2.2-6.8-7-9.5c-8.9-4.9-13.6-7.9-16.8-16.6
		c-4.5-12.5-4.1-26.2-3.7-39.5c0-1.6,0.1-3.1,0.1-4.6c8.2-0.3,18.2,3.5,27.4,10.3c8.8,6.5,12.5,18.7,13,27.9c0.1,1.6,1.4,2.8,3,2.9
		c1.6,0.1,2.9-1.2,3.1-2.8c0.7-7.8,5.8-15.8,10.5-20.7c4.9-5.1,7.2-6.8,14.2-8.3c4.3-1,8.7-1.4,13-1.8c5.6-0.6,11.4-1.1,17-3
		c0.1,17.3-4.9,38.7-19.6,51.5c-3.3,2.9-6.9,5.1-10.9,6.8C477.9,242.6,476.3,242.8,474.6,243z M247.8,311.6c-1.9,0-3.7,0-5.6,0.1
		c-2.1-3.7-4.7-7.3-7.3-10.9c-2.7-3.7-5.4-7.5-7.6-11.4c2.9,1.7,5.7,3.3,8.6,4.9c1.1,0.8,2.1,1.7,3.1,2.5c0.9,0.8,1.9,1.5,2.9,2.3
		c4.8,3.8,9.8,7.7,12.3,12.7c-0.7,0.2-1.8,0.2-3.8,0C249.6,311.7,248.7,311.6,247.8,311.6z M226.4,311.9c-0.1-0.1-0.1-0.2-0.2-0.2
		c-8-7.9-16.4-23.4-21.8-35.7c3.1,1.6,6.2,3.3,9.1,5.1c1.9,1.1,3.8,2.3,5.8,3.5c0.5,0.3,1.1,0.7,1.6,1c2.6,6.2,6.7,12,10.7,17.6
		c2.1,3,4.1,5.8,5.9,8.6c-1.7,0-3.4,0-5,0.1C230.5,311.8,228.4,311.8,226.4,311.9z M210.9,312c-0.1-0.1-0.1-0.2-0.2-0.3
		c-5.1-5.5-9.8-13.5-13.9-20.6l-1.1-1.9c-3.7-6.3-5.7-11.1-9.4-20.5c4.3,1.6,8.6,3.2,12.8,4.9c0,0.1,0,0.1,0.1,0.2
		c5,12,13.4,28.4,21.9,38.1C217.6,311.9,214.2,312,210.9,312z M178.7,265.9c0.8,0.3,1.6,0.6,2.4,0.9c0,0.1,0,0.1,0.1,0.2l0.3,0.7
		c4.3,10.9,6.4,16.4,10.7,23.6l1.1,1.9c3.7,6.3,7.8,13.2,12.3,18.8c-3.8,0-7.6-0.1-11.3-0.2c-4.3-4.6-7.6-10.3-10.7-15.8
		c-0.9-1.5-1.7-3-2.6-4.5c-1.6-2.7-3.5-5.6-5.5-8.7c-4.7-7.3-10-15.3-12.7-22.5c1.5,0.4,3,0.9,4.5,1.3
		C171.1,263.1,174.9,264.5,178.7,265.9z M140.6,254c2.4,17.2,18,43.4,33.3,56.9c-2.6-0.2-5.2-0.4-7.8-0.6c0,0,0,0-0.1,0
		c-17.4-8.5-30.2-28.6-37.9-60c0.1,0,0.2,0.1,0.3,0.1c2.4,0.7,4.9,1.4,7.4,2C137.4,252.9,139,253.5,140.6,254z M123.8,249
		c0,0.1,0,0.1,0,0.2c6.8,28.7,17.2,48.3,31.8,59.3c-5.2-1.3-10.2-3.2-14.8-6.2c-20.8-13.7-25.9-39.6-27-55
		C117.2,247.5,120.5,248.1,123.8,249z M180.9,311.3c-15.1-10.7-32.5-38-35.9-55.9c4.1,1.3,8.4,2.5,13,3.7c2.5,8.3,8.6,17.7,14,26
		c2,3,3.9,5.9,5.4,8.5c0.9,1.5,1.7,2.9,2.6,4.4c2.7,4.6,5.4,9.3,8.8,13.6c-1.7-0.1-3.5-0.1-5.2-0.2L180.9,311.3z"/>
	<path class="st3" d="M175.4,282.9c2,3.1,3.9,6,5.5,8.7c0.9,1.5,1.7,3,2.6,4.5c3.2,5.5,6.5,11.2,10.7,15.8c3.8,0.1,7.6,0.1,11.3,0.2
		c-4.5-5.6-8.6-12.5-12.3-18.8l-1.1-1.9c-4.2-7.1-6.4-12.6-10.7-23.6l-0.3-0.7c0-0.1,0-0.1-0.1-0.2c-0.8-0.3-1.6-0.6-2.4-0.9
		c-3.8-1.4-7.6-2.8-11.5-4.2c-1.5-0.4-3-0.9-4.5-1.3C165.4,267.6,170.6,275.6,175.4,282.9z"/>
	<path class="st3" d="M128.2,250.3c7.7,31.3,20.5,51.5,37.9,60c0,0,0,0,0.1,0c2.6,0.3,5.2,0.5,7.8,0.6
		c-15.3-13.5-30.9-39.7-33.3-56.9c-1.6-0.5-3.2-1.1-4.8-1.6c-2.5-0.6-5-1.3-7.4-2C128.4,250.3,128.3,250.3,128.2,250.3z"/>
	<path class="st3" d="M140.7,302.2c4.6,3,9.6,5,14.8,6.2c-14.5-11-25-30.6-31.8-59.3c0-0.1,0-0.1,0-0.2c-3.3-0.9-6.5-1.5-10.1-1.8
		C114.8,262.7,120,288.6,140.7,302.2z"/>
	<path class="st3" d="M199.1,273.8c0-0.1,0-0.1-0.1-0.2c-4.3-1.7-8.5-3.3-12.8-4.9c3.7,9.4,5.7,14.2,9.4,20.5l1.1,1.9
		c4.2,7.1,8.9,15.1,13.9,20.6c0.1,0.1,0.1,0.2,0.2,0.3c3.4,0,6.7,0,10.1-0.1C212.5,302.2,204,285.7,199.1,273.8z"/>
	<path class="st3" d="M188.8,311.6c-3.4-4.3-6.1-9-8.8-13.6c-0.9-1.5-1.7-3-2.6-4.4c-1.6-2.6-3.4-5.5-5.4-8.5
		c-5.4-8.3-11.5-17.6-14-26c-4.6-1.2-8.9-2.4-13-3.7c3.4,17.9,20.8,45.2,35.9,55.9l2.7,0.1C185.3,311.5,187,311.6,188.8,311.6z"/>
	<path class="st3" d="M237.5,311.7c-1.8-2.8-3.8-5.6-5.9-8.6c-4-5.6-8.2-11.4-10.7-17.6c-0.5-0.3-1.1-0.7-1.6-1
		c-1.9-1.2-3.9-2.4-5.8-3.5c-3-1.8-6-3.5-9.1-5.1c5.4,12.3,13.8,27.8,21.8,35.7c0.1,0.1,0.1,0.2,0.2,0.2c2,0,4.1-0.1,6.1-0.1
		C234.2,311.8,235.8,311.7,237.5,311.7z"/>
	<path class="st3" d="M254.3,311.7c-2.5-5-7.5-8.9-12.3-12.7c-1-0.8-1.9-1.5-2.9-2.3s-2.1-1.7-3.1-2.5c-2.9-1.6-5.8-3.2-8.6-4.9
		c2.2,3.9,4.9,7.7,7.6,11.4c2.5,3.6,5.2,7.2,7.3,10.9c1.9,0,3.7,0,5.6-0.1c0.9,0,1.8,0.1,2.7,0.2
		C252.5,311.9,253.6,311.9,254.3,311.7z"/>
	<circle class="st2" cx="157.1" cy="225.5" r="9.5"/>
	<g>
		<path class="st1" d="M201.1,15.1c-1.6-0.9-3.7-0.4-4.7,1.3c-0.9,1.6-0.4,3.7,1.3,4.7c3.8,2.2,7.7,5.9,11.1,10.8
			c0.7,1,1.9,1.6,3.1,1.5c0.6-0.1,1.1-0.2,1.7-0.6c1.5-1.1,1.9-3.2,0.8-4.8C210.4,22.1,205.9,17.8,201.1,15.1z"/>
		<path class="st1" d="M181.9,13.1c-4.5,1.7-8.9,4.8-13.1,9.4c-0.2,0.2-0.4,0.4-0.6,0.6c-1.1,1.5-0.9,3.6,0.5,4.7
			c0.7,0.6,1.6,0.9,2.5,0.8c0.8-0.1,1.7-0.5,2.3-1.1l0.3-0.3l0.4-0.3c0.2-0.1,0.3-0.3,0.5-0.4c0.3-0.2,0.5-0.5,0.7-0.8
			c3-3,6-5,9-6.1c1.8-0.6,2.7-2.6,2-4.4C185.6,13.4,183.6,12.5,181.9,13.1z"/>
		<path class="st1" d="M223.6,65.1c1.9-0.2,3.2-1.9,3-3.8c-0.1-1.3-0.3-2.6-0.5-3.9c-0.6-4.3-1.8-8.9-3.5-13.5
			c-0.7-1.8-2.6-2.7-4.4-2c-1.8,0.7-2.7,2.6-2,4.4c1.5,4.1,2.6,8.3,3.1,12c0.2,1.3,0.3,2.5,0.5,3.8C220,63.9,221.7,65.2,223.6,65.1
			L223.6,65.1z"/>
		<path class="st1" d="M227.8,90c0.1-4,0.1-7.8,0-11.4c0-1.9-1.6-3.4-3.5-3.3c-1.9,0-3.4,1.6-3.3,3.5c0.1,3.6,0.1,7.2,0,11.1
			c0,1.5,0.1,3.5,0.2,5.5V96c0.1,1.9,1.8,3.3,3.6,3.2h0.1c1.8-0.2,3.2-1.8,3.1-3.6V95C227.9,93.1,227.8,91.3,227.8,90z"/>
		<path class="st1" d="M252.3,45.8c-1.8-0.6-3.7,0.3-4.3,2.1c-1.9,5.4-3.4,11.1-4.7,16.9c-0.4,1.8,0.8,3.7,2.6,4.1
			c0.4,0.1,0.8,0.1,1.1,0.1c1.4-0.2,2.6-1.2,2.9-2.7c1.2-5.5,2.7-11,4.5-16.1C255.1,48.4,254.1,46.4,252.3,45.8z"/>
		<path class="st1" d="M296.4,0c-5.8,0.1-12.1,1.8-17.9,5c-1.7,0.9-2.3,3-1.4,4.6c0.7,1.3,2.1,1.9,3.4,1.8c0.4,0,0.8-0.2,1.2-0.4
			c4.8-2.6,10-4.1,14.7-4.1c1.9,0,3.4-1.6,3.4-3.4C299.8,1.5,298.3,0,296.4,0z"/>
		<path class="st1" d="M318.9,21.6c-0.3-0.8-0.6-1.7-0.9-2.7c-1-3-2.2-6.7-4.2-10c-1-1.6-3.1-2.1-4.7-1.1s-2.1,3.1-1.1,4.7
			c1.6,2.6,2.6,5.8,3.5,8.6c0.3,1.1,0.7,2.1,1,3c0.6,1.5,2.1,2.4,3.6,2.2c0.3,0,0.5-0.1,0.8-0.2C318.6,25.3,319.6,23.4,318.9,21.6z"/>
		<path class="st1" d="M264.6,16.8c-3.5,4.2-6.8,9.3-9.7,14.9c-0.9,1.7-0.2,3.7,1.5,4.6c0.6,0.3,1.3,0.4,2,0.4
			c1.1-0.1,2.1-0.8,2.6-1.8c2.7-5.2,5.7-9.8,8.9-13.7c1.2-1.5,1-3.6-0.4-4.8C267.9,15.2,265.8,15.4,264.6,16.8z"/>
		<path class="st1" d="M244.3,79c-1.9-0.2-3.6,1.2-3.7,3.1c-0.6,6.2-0.8,12.1-0.6,17.6c0.1,1.9,1.7,3.4,3.6,3.3h0.3
			c1.8-0.2,3.1-1.7,3-3.5c-0.2-5.1,0-10.7,0.6-16.6C247.5,80.8,246.1,79.2,244.3,79z"/>
	</g>
</g>
</svg>
