<?xml version="1.0" encoding="utf-8"?>
<!-- Generator: Adobe Illustrator 25.4.1, SVG Export Plug-In . SVG Version: 6.00 Build 0)  -->
<svg version="1.1" id="Layer_1" xmlns="http://www.w3.org/2000/svg" xmlns:xlink="http://www.w3.org/1999/xlink" x="0px" y="0px" viewBox="0 0 6644 3480.8" style="enable-background:new 0 0 6644 3480.8;" xml:space="preserve">
<style type="text/css">
	.st0{fill:#FFFFFF;}
	.st1{fill:#6D6E70;}
	.st2{fill:#F1F1F2;}
	.st3{fill:#D0D2D3;}
	.st4{fill:#BBBDBF;}
	.st5{fill:#878A8D;}
	.st6{fill:#231F20;}
	.st7{fill:#808184;}
	.st8{fill:#535559;}
	.st9{fill:#A6A8AB;}
	.st10{fill:#E6E7E8;}
	.st11{fill:url(#SVGID_1_);}
	.st12{clip-path:url(#SVGID_00000159465573362684062470000016843094594728936321_);fill:#6DCDF4;}
	.st13{clip-path:url(#SVGID_00000159465573362684062470000016843094594728936321_);fill:#6CCCF4;}
	.st14{clip-path:url(#SVGID_00000159465573362684062470000016843094594728936321_);fill:#6BCCF3;}
	.st15{clip-path:url(#SVGID_00000159465573362684062470000016843094594728936321_);fill:#6ACBF3;}
	.st16{clip-path:url(#SVGID_00000159465573362684062470000016843094594728936321_);fill:#69CBF3;}
	.st17{clip-path:url(#SVGID_00000159465573362684062470000016843094594728936321_);fill:#68CAF2;}
	.st18{clip-path:url(#SVGID_00000159465573362684062470000016843094594728936321_);fill:#67CAF2;}
	.st19{clip-path:url(#SVGID_00000159465573362684062470000016843094594728936321_);fill:#66C9F2;}
	.st20{clip-path:url(#SVGID_00000159465573362684062470000016843094594728936321_);fill:#65C9F2;}
	.st21{clip-path:url(#SVGID_00000159465573362684062470000016843094594728936321_);fill:#64C8F1;}
	.st22{clip-path:url(#SVGID_00000159465573362684062470000016843094594728936321_);fill:#63C8F1;}
	.st23{clip-path:url(#SVGID_00000159465573362684062470000016843094594728936321_);fill:#62C7F1;}
	.st24{clip-path:url(#SVGID_00000159465573362684062470000016843094594728936321_);fill:#61C7F0;}
	.st25{clip-path:url(#SVGID_00000159465573362684062470000016843094594728936321_);fill:#60C6F0;}
	.st26{clip-path:url(#SVGID_00000159465573362684062470000016843094594728936321_);fill:#5FC6F0;}
	.st27{clip-path:url(#SVGID_00000159465573362684062470000016843094594728936321_);fill:#5EC5F0;}
	.st28{clip-path:url(#SVGID_00000159465573362684062470000016843094594728936321_);fill:#5DC5EF;}
	.st29{clip-path:url(#SVGID_00000159465573362684062470000016843094594728936321_);fill:#5CC4EF;}
	.st30{clip-path:url(#SVGID_00000159465573362684062470000016843094594728936321_);fill:#5BC4EF;}
	.st31{clip-path:url(#SVGID_00000159465573362684062470000016843094594728936321_);fill:#5AC3EE;}
	.st32{clip-path:url(#SVGID_00000159465573362684062470000016843094594728936321_);fill:#59C3EE;}
	.st33{clip-path:url(#SVGID_00000159465573362684062470000016843094594728936321_);fill:#58C2EE;}
	.st34{clip-path:url(#SVGID_00000159465573362684062470000016843094594728936321_);fill:#57C2EE;}
	.st35{clip-path:url(#SVGID_00000159465573362684062470000016843094594728936321_);fill:#56C1ED;}
	.st36{clip-path:url(#SVGID_00000159465573362684062470000016843094594728936321_);fill:#55C1ED;}
	.st37{clip-path:url(#SVGID_00000159465573362684062470000016843094594728936321_);fill:#54C0ED;}
	.st38{clip-path:url(#SVGID_00000159465573362684062470000016843094594728936321_);fill:#53C0EC;}
	.st39{clip-path:url(#SVGID_00000159465573362684062470000016843094594728936321_);fill:#52BFEC;}
	.st40{clip-path:url(#SVGID_00000159465573362684062470000016843094594728936321_);fill:#51BFEC;}
	.st41{clip-path:url(#SVGID_00000159465573362684062470000016843094594728936321_);fill:#50BEEC;}
	.st42{clip-path:url(#SVGID_00000159465573362684062470000016843094594728936321_);fill:#4FBEEB;}
	.st43{clip-path:url(#SVGID_00000159465573362684062470000016843094594728936321_);fill:#4EBDEB;}
	.st44{clip-path:url(#SVGID_00000159465573362684062470000016843094594728936321_);fill:#4DBDEB;}
	.st45{clip-path:url(#SVGID_00000159465573362684062470000016843094594728936321_);fill:#4CBCEB;}
	.st46{clip-path:url(#SVGID_00000159465573362684062470000016843094594728936321_);fill:#4ABBEA;}
	.st47{clip-path:url(#SVGID_00000159465573362684062470000016843094594728936321_);fill:#49BBEA;}
	.st48{clip-path:url(#SVGID_00000159465573362684062470000016843094594728936321_);fill:#48BAEA;}
	.st49{clip-path:url(#SVGID_00000159465573362684062470000016843094594728936321_);fill:#47BAE9;}
	.st50{clip-path:url(#SVGID_00000159465573362684062470000016843094594728936321_);fill:#46B9E9;}
	.st51{clip-path:url(#SVGID_00000159465573362684062470000016843094594728936321_);fill:#45B9E9;}
	.st52{clip-path:url(#SVGID_00000159465573362684062470000016843094594728936321_);fill:#44B8E9;}
	.st53{clip-path:url(#SVGID_00000159465573362684062470000016843094594728936321_);fill:#43B8E8;}
	.st54{clip-path:url(#SVGID_00000159465573362684062470000016843094594728936321_);fill:#42B7E8;}
	.st55{clip-path:url(#SVGID_00000159465573362684062470000016843094594728936321_);fill:#41B7E8;}
	.st56{clip-path:url(#SVGID_00000159465573362684062470000016843094594728936321_);fill:#40B6E7;}
	.st57{clip-path:url(#SVGID_00000159465573362684062470000016843094594728936321_);fill:#3FB6E7;}
	.st58{clip-path:url(#SVGID_00000159465573362684062470000016843094594728936321_);fill:#3EB5E7;}
	.st59{clip-path:url(#SVGID_00000159465573362684062470000016843094594728936321_);fill:#3DB5E7;}
	.st60{clip-path:url(#SVGID_00000159465573362684062470000016843094594728936321_);fill:#3CB4E6;}
	.st61{clip-path:url(#SVGID_00000159465573362684062470000016843094594728936321_);fill:#3BB4E6;}
	.st62{clip-path:url(#SVGID_00000159465573362684062470000016843094594728936321_);fill:#3AB3E6;}
	.st63{clip-path:url(#SVGID_00000159465573362684062470000016843094594728936321_);fill:#39B3E5;}
	.st64{clip-path:url(#SVGID_00000159465573362684062470000016843094594728936321_);fill:#38B2E5;}
	.st65{clip-path:url(#SVGID_00000159465573362684062470000016843094594728936321_);fill:#37B2E5;}
	.st66{clip-path:url(#SVGID_00000159465573362684062470000016843094594728936321_);fill:#36B1E5;}
	.st67{clip-path:url(#SVGID_00000159465573362684062470000016843094594728936321_);fill:#35B1E4;}
	.st68{clip-path:url(#SVGID_00000159465573362684062470000016843094594728936321_);fill:#34B0E4;}
	.st69{clip-path:url(#SVGID_00000159465573362684062470000016843094594728936321_);fill:#33B0E4;}
	.st70{clip-path:url(#SVGID_00000159465573362684062470000016843094594728936321_);fill:#32AFE3;}
	.st71{clip-path:url(#SVGID_00000159465573362684062470000016843094594728936321_);fill:#31AFE3;}
	.st72{clip-path:url(#SVGID_00000159465573362684062470000016843094594728936321_);fill:#30AEE3;}
	.st73{clip-path:url(#SVGID_00000159465573362684062470000016843094594728936321_);fill:#2FAEE3;}
	.st74{clip-path:url(#SVGID_00000159465573362684062470000016843094594728936321_);fill:#2EADE2;}
	.st75{clip-path:url(#SVGID_00000159465573362684062470000016843094594728936321_);fill:#2DADE2;}
	.st76{clip-path:url(#SVGID_00000159465573362684062470000016843094594728936321_);fill:#2CACE2;}
	.st77{clip-path:url(#SVGID_00000159465573362684062470000016843094594728936321_);fill:#2BACE1;}
	.st78{clip-path:url(#SVGID_00000159465573362684062470000016843094594728936321_);fill:#2AABE1;}
	.st79{clip-path:url(#SVGID_00000159465573362684062470000016843094594728936321_);fill:#29ABE1;}
	.st80{clip-path:url(#SVGID_00000159465573362684062470000016843094594728936321_);fill:#28AAE1;}
	.st81{clip-path:url(#SVGID_00000159465573362684062470000016843094594728936321_);fill:#27AAE0;}
	.st82{clip-path:url(#SVGID_00000159465573362684062470000016843094594728936321_);fill:#26A9E0;}
	.st83{clip-path:url(#SVGID_00000135688232801482131080000006038574776086171291_);fill:#71CFF5;}
	.st84{clip-path:url(#SVGID_00000135688232801482131080000006038574776086171291_);fill:#70CEF5;}
	.st85{clip-path:url(#SVGID_00000135688232801482131080000006038574776086171291_);fill:#6FCEF4;}
	.st86{clip-path:url(#SVGID_00000135688232801482131080000006038574776086171291_);fill:#6ECDF4;}
	.st87{clip-path:url(#SVGID_00000135688232801482131080000006038574776086171291_);fill:#6DCDF4;}
	.st88{clip-path:url(#SVGID_00000135688232801482131080000006038574776086171291_);fill:#6CCCF4;}
	.st89{clip-path:url(#SVGID_00000135688232801482131080000006038574776086171291_);fill:#6BCCF3;}
	.st90{clip-path:url(#SVGID_00000135688232801482131080000006038574776086171291_);fill:#6ACBF3;}
	.st91{clip-path:url(#SVGID_00000135688232801482131080000006038574776086171291_);fill:#69CBF3;}
	.st92{clip-path:url(#SVGID_00000135688232801482131080000006038574776086171291_);fill:#68CAF2;}
	.st93{clip-path:url(#SVGID_00000135688232801482131080000006038574776086171291_);fill:#67CAF2;}
	.st94{clip-path:url(#SVGID_00000135688232801482131080000006038574776086171291_);fill:#66C9F2;}
	.st95{clip-path:url(#SVGID_00000135688232801482131080000006038574776086171291_);fill:#65C9F2;}
	.st96{clip-path:url(#SVGID_00000142875849728302593060000010834291290338465676_);fill:#71CFF5;}
	.st97{clip-path:url(#SVGID_00000142875849728302593060000010834291290338465676_);fill:#70CEF5;}
	.st98{clip-path:url(#SVGID_00000142875849728302593060000010834291290338465676_);fill:#6FCEF4;}
	.st99{clip-path:url(#SVGID_00000142875849728302593060000010834291290338465676_);fill:#6ECDF4;}
	.st100{clip-path:url(#SVGID_00000142875849728302593060000010834291290338465676_);fill:#6DCDF4;}
	.st101{clip-path:url(#SVGID_00000142875849728302593060000010834291290338465676_);fill:#6CCCF4;}
	.st102{clip-path:url(#SVGID_00000142875849728302593060000010834291290338465676_);fill:#6BCCF3;}
	.st103{clip-path:url(#SVGID_00000142875849728302593060000010834291290338465676_);fill:#6ACBF3;}
	.st104{fill:#929497;}
</style>
<path class="st0" d="M6260.6,2588.5c0,60.2-48.9,109.1-109.1,109.1H223.9c-60.3,0-109.1-48.8-109.1-109.1v-581.9
	c0-60.2,48.8-109.1,109.1-109.1h5927.6c60.2,0,109.1,48.8,109.1,109.1V2588.5z"/>
<path class="st1" d="M6151.5,2721.1H223.9c-73.1,0-132.6-59.5-132.6-132.6v-581.9c0-73.1,59.5-132.6,132.6-132.6h5927.6
	c73.1,0,132.6,59.5,132.6,132.6v581.9C6284.1,2661.6,6224.6,2721.1,6151.5,2721.1z M223.9,1921c-47.2,0-85.6,38.4-85.6,85.6v581.9
	c0,47.2,38.4,85.6,85.6,85.6h5927.6c47.2,0,85.6-38.4,85.6-85.6v-581.9c0-47.2-38.4-85.6-85.6-85.6H223.9z"/>
<rect x="237.5" y="1989.2" class="st2" width="5912.2" height="616.7"/>
<path class="st3" d="M3163.6,1424.3c-52.4,27.6-135.1,93.7-283.6,269.2c-0.9,1.1-1.9,2.2-2.7,3.3
	c-150.1,178-350.3,175.2-350.3,175.2h-884c6.3-1.4,12.4-2.9,18.4-4.5c172.7-44.8,241.6-153.8,281.8-229c1.9-1.2,3.9-2.6,5.8-4
	c95.2-65,187.5-191,397.3-349.1c208.5,61.2,244.6-72.2,378-147.2c236.3-111.3,355.8,41.6,453.2,108.4
	C3274.8,1313.1,3216.4,1396.6,3163.6,1424.3z"/>
<path class="st4" d="M2490.8,1871.9c0,0,130.6-108.4,189-253c69.5-130.7,360.2-327.8,541.5-254.2c0,0-26.9,50-65,63.6
	c-32.8,21-85.9,51.1-236.3,218.6C2819.8,1762.5,2716.9,1871.9,2490.8,1871.9z"/>
<path class="st5" d="M2880,1693.5c-43.5,45.9-160,177.1-389.1,178.4c-213-4.3-782.5-4.5-829.5-4.5c172.7-44.8,241.6-153.8,281.8-229
	c1.9-1.2,3.9-2.6,5.8-4c107.1,75.9,337.6,164.9,688.6,66.6C2698.6,1720.5,2748.2,1766.7,2880,1693.5z"/>
<path class="st6" d="M2497.3,1873c35.6-29.8,67.3-64.8,96.8-100.6c52-63.2,77.3-141.6,128.3-204c103.2-126.2,315.5-257,482.9-203.6
	c13,4.1,1.2,12-6.6,22.7c-13.7,18.7-30.8,28-50.1,40.3c-10.9,7-21.8,14.1-32.4,21.6c-53.7,38.2-100.1,86.6-145.4,134.1
	c-57.9,60.8-109.7,127.4-174.2,181.5c-86.1,72.2-191.7,101.1-302.6,102.4c-5.7,0.1-17.2,8.9-6.4,8.7c90-1.1,176-18.3,255.1-62.4
	c73.2-40.8,130.5-104.4,184.8-166.9c58.4-67.2,121.7-134.5,192.8-188.7c40-30.5,82.6-47,108.5-93.5c0.8-1.5,0.9-3.1-1-3.8
	c-154.8-58.2-334.4,42-450.8,138.6c-30,24.9-57.5,52.9-81.4,83.7c-29.3,37.7-44.4,84.2-69.7,124.6
	c-37.7,60.3-86.8,117.2-141.4,162.9C2477.4,1876.6,2493.5,1876.2,2497.3,1873z"/>
<path class="st7" d="M2346.3,1285.3c0,0-215.3,207.1-397.6,348.8c-1.9,1.4-3.6,2.8-5.5,4.3c-86.7,118.6-127,186.5-274.8,229
	c-12.3,3.5-25.3,6.9-39.2,10.1c-59.3,12.8-143,9.7-230.3-16.2c-0.3-0.1-0.5-0.2-0.9-0.3c-76.4-22.7-155.5-62.8-223.3-125
	c-0.2,0-0.4-0.2-0.4-0.4c-91-83.5-161.8-206.7-178.9-380.8c-41.6-344.7,269.7-667.2,692.2-619.9
	C2110,782.2,2257.3,1074.1,2346.3,1285.3z"/>
<path class="st8" d="M1948.7,1634.1c-1.9,1.4-3.6,2.8-5.5,4.3c-86.7,118.6-127,186.5-274.8,229c-6.6,0-10.1,0-10.1,0
	s-120,29.1-259.5-6.1c-0.3-0.1-0.5-0.2-0.9-0.3c-74.1-18.9-153.5-55.8-223.3-125c-0.2,0-0.4-0.2-0.4-0.4
	c-79.4-78.6-146.4-198.7-178.9-380.8c0,0,324.5,482,949.7,276.6C1946.2,1632.3,1947.4,1633.2,1948.7,1634.1z"/>
<path class="st6" d="M1639.8,1876.4c232.6,0,465.2,0,697.7,0c67.4,0,135.8,3.4,203.1-0.7c64.5-4,130.6-24,187.6-54
	c109.4-57.6,177.8-154.1,260.7-242.4c51.1-54.4,106-110.1,170.9-148c58.4-34.1,103.6-94,57.6-158.7c-21.6-30.4-65.1-53.6-94.5-77
	c-31.5-25.1-64-48.4-99.6-67.3c-80.4-42.5-169.7-41.2-254.5-13.2c-85.3,28.2-139.2,95.2-210.5,145.2
	c-49.3,34.5-104.8,40.6-163.1,31.2c-14.5-2.3-35.8-14.1-50.1-10.2c-21.3,5.7-45,33.2-62.1,46.8c-88,70.3-167.6,149.4-248.8,227.2
	c-28.3,27.1-57.4,53.5-89.4,76.1c-23.9,16.8-37.2,55.8-54.5,79.8c-60.3,83.7-149.6,133-248.6,156.6c-9.8,2.3-7.5,10.3,2.1,8
	c91.6-21.9,172.7-63.5,236.6-133.5c24.7-27.1,44.6-58.3,62.6-90.1c16.5-29.3,57.2-50.9,82.1-73.6c78.1-71.3,151.2-147.5,232-216
	c26.3-22.3,53.3-43.7,80.6-64.8c16.2-12.5,56.9,4.9,75.8,6.3c38.9,2.9,75.3-1.2,111.7-15.5c74.8-29.3,126.8-100.6,194-142.5
	c113.7-71.1,247.2-46.3,350.4,26.7c64.9,45.9,191.9,116,134.9,207.7c-18.4,29.6-51,42.6-78.7,61.2c-26.9,18.1-51.6,39.4-75.6,61.2
	c-84.2,76.5-149.5,171.7-233.7,247.5c-72.3,65.1-168.1,105.9-264.7,115.7c-68.4,6.9-139.6,1.2-208.2,1.2c-232.6,0-465.2,0-697.7,0
	C1640.2,1867.4,1628.9,1876.4,1639.8,1876.4z"/>
<path class="st6" d="M2338.9,1285.8c-45.1,43.3-91.2,85.7-137.5,127.7c-42.1,38.2-84.8,75.8-128,112.8
	c-26.2,22.5-52.7,44.5-79.4,66.4c-22,18-49,33.7-65.8,56.7c-59.5,81.5-114.9,158.1-211.1,198.3c-75.4,31.5-152.1,39.2-232.2,28
	c-162.9-22.7-311.2-118.6-397.6-258.3c-105.3-170.2-116.9-397.9-24.3-574.9c154-294.3,518.1-363.5,811.4-260.2
	c235.3,82.9,371,285.5,463.9,505.3c1.8,4.3,17.5-0.9,16.1-4.3c-63.2-149.5-141.8-291.6-268.8-396.4
	c-156.7-129.2-376.8-179.2-575.9-153c-181.3,23.8-347.6,126.9-445.6,281.6c-105.8,167.1-100.6,381.7-19.2,557.7
	c99.4,214.8,364.8,360.1,599.7,303.7c69.6-16.7,135.1-45.1,188.7-93.2c28.2-25.3,51.4-55.9,73.9-86.1c33.3-44.5,67.7-78,110.8-113.2
	c116-94.7,227.7-195.5,335.6-299.3C2357.4,1281.3,2341.9,1282.9,2338.9,1285.8z"/>
<path class="st6" d="M1951.3,1637.5c34.9-94.7,45.5-204.7,25.3-303.5c-33.7-165.2-183.2-257.2-345.5-246.8
	c-158.2,10.1-276.4,127.1-254.1,289.3c11.7,85.3,95.3,148,172.9,171c61.2,18.1,142.7,6.5,175.2-54.2c36.4-68,8.1-131.3-63.5-157.1
	c-55.8-20.1-118.8,26.8-110.2,87.5c0.9,6.1,17.1,2.3,16.1-4.3c-6.6-46.6,37.2-96.9,92.8-69.4c17.7,8.8,33.8,19.7,47.7,33.9
	c43.3,44.3,6.7,124.1-39.6,148.8c-87.5,46.5-200-25.7-249.5-95.8c-48.8-69.2-35.4-173.6,11-240.2c50-71.8,144-99.8,227.4-100.6
	c170.4-1.6,291.6,123.9,310.3,287.6c9.5,83.7-3.4,176.4-32.6,255.6C1932.9,1645.3,1949.1,1643.3,1951.3,1637.5L1951.3,1637.5z"/>
<path class="st6" d="M2204.9,1506.3c-32.9,49.4-55.1,114.3-39,173.2c1.2,4.2,17.3-0.2,16.1-4.3c-16-58.2,6.2-122.5,38.8-171.5
	C2222.4,1501.3,2207.6,1502.2,2204.9,1506.3L2204.9,1506.3z"/>
<path class="st6" d="M2358.2,1396c-39,57-59.7,128.6-56.1,197.3c0.3,6.3,16.5,2.7,16.1-4.3c-3.5-66.9,17.2-136.5,55.2-191.9
	C2378,1390.3,2361.6,1391,2358.2,1396L2358.2,1396z"/>
<path class="st6" d="M2446.7,1350.1c-30.7,69.4-48.6,157.2-18.4,229.3c1.8,4.3,17.6-0.9,16.1-4.3c-30.2-71.9-12.4-158.3,18.2-227.6
	C2464.1,1344.2,2448.6,1345.7,2446.7,1350.1L2446.7,1350.1z"/>
<path class="st6" d="M2535.7,1350.1c-16.2,60.4-8.2,127.2,13.8,184.8c1.6,4.2,17.5-0.8,16.1-4.3c-21.8-57.1-30-123.2-14-183.2
	C2552.7,1343.5,2536.8,1345.8,2535.7,1350.1L2535.7,1350.1z"/>
<path class="st6" d="M2638.5,1284.7c-2,48.7-3.7,122.5,33.9,159c3.6,3.5,18.6-2.5,15.1-5.9c-36.7-35.6-34.8-109.8-32.8-157.4
	C2654.7,1276.6,2638.7,1279.1,2638.5,1284.7L2638.5,1284.7z"/>
<path class="st6" d="M2730.2,1244.6c-6.8,24.6,3.4,50.6,22.9,66.2c4.6,3.7,19.6-2.7,14.9-6.4c-18.3-14.6-28-38.4-21.6-61.6
	C2748,1236.5,2731.8,1238.9,2730.2,1244.6L2730.2,1244.6z"/>
<path class="st9" d="M2776.6,1116.9c0,0,42.2-262.5,81.2-429.3c22.3-2.8,22.3-2.8,22.3-2.8s-35.3,329.4-7.4,414
	C2852.3,1100.2,2807.6,1105.3,2776.6,1116.9z"/>
<path class="st6" d="M2784.6,1115.7c9.9-61.1,20.5-122.1,31.5-183c9.6-53,19.7-105.9,30.5-158.7c5.2-25.3,10.7-50.5,16.4-75.7
	c2.3-10.1,8.1-8.8,15.3-9.7c-7.8,1-6.1-4.9-6.9,3c-6.4,62.1-11.2,124.4-14.5,186.7c-3.8,71-13.1,153.6,7.6,222.9c3.8-2,7.6-4,11.4-6
	c-34.9,2.8-69,8.4-102.3,19.4c-10.8,3.6-0.7,7.1,5.9,4.9c29.1-9.7,59.2-14.3,89.7-16.7c2.1-0.2,12.6-1.9,11.4-6
	c-21.7-72.6-11-159.1-7-233.5c3.2-59.9,8-119.9,14.4-179.6c0.3-3.2-4.7-2.6-6.7-2.4c-7.4,0.9-14.8,1.9-22.3,2.8
	c-2.4,0.3-8.6,1.8-9.3,4.8c-32.7,141.8-58,285.6-81.2,429.3C2767.8,1123.2,2783.9,1120.2,2784.6,1115.7z"/>
<path class="st9" d="M2954.9,1108.1c0,0,124.4-257.3,231-345.4c10.1,7.4,10.1,7.4,10.1,7.4s-143.5,196.3-182.5,360.4
	C2990.9,1120.2,2966.4,1110.9,2954.9,1108.1z"/>
<path class="st6" d="M2962.6,1109.2c57.1-117.7,124.3-247.2,221.7-336.5c2.1-0.4,3.8,0.2,5.2,2c-4.2-3,1.9-10.3-2.7-3.9
	c-4.6,6.4-9.1,12.9-13.5,19.4c-18.3,26.7-35.5,54-52.3,81.7c-49,80.9-92.4,167-115.6,259c4.3-2.1,8.5-4.1,12.8-6.2
	c-19.2-8.4-38.5-16.5-58.6-22.4c-7.4-2.2-19,8.6-9.1,11.4c20.2,5.9,39.4,14,58.6,22.4c5.1,2.2,11.5-1.1,12.8-6.2
	c32.4-128.4,103.6-250.7,181.1-357.2c1.8-2.4,2-5.6-0.7-7.5c-3.4-2.5-6.8-4.9-10.2-7.4c-3.3-2.4-8.6-1.7-11.6,0.8
	c-103.8,88.9-174.3,226.8-233.3,348.3C2943,1115.5,2959.3,1116.1,2962.6,1109.2z"/>
<path class="st0" d="M2933.8,625.6c0,35.8-29.1,64.9-64.9,64.9c-35.8,0-64.9-29.1-64.9-64.9c0-35.8,29.1-64.9,64.9-64.9
	C2904.7,560.7,2933.8,589.7,2933.8,625.6z"/>
<path class="st6" d="M2925.7,626.3c-1.8,33.9-25.3,60.2-61,58.2c-30.8-1.7-51-31.4-52.5-59.7c-1.8-34,28.3-60,61-58.2
	C2903.9,568.3,2924.1,598,2925.7,626.3c0.4,8.1,16.6,5.3,16.3-1.4c-5-92.3-141.2-89-146.1,1.4c-2.1,38.3,34.8,71.8,72.2,69.7
	c40.1-2.2,71.6-30.2,73.8-71.2C2942.4,616.8,2926,619.4,2925.7,626.3z"/>
<path class="st0" d="M3269.7,725.8c0,28.4-23,51.4-51.4,51.4c-28.4,0-51.4-23-51.4-51.4c0-28.4,23.1-51.5,51.4-51.5
	C3246.7,674.4,3269.7,697.4,3269.7,725.8z"/>
<path class="st6" d="M3261.5,726.4c-1.4,25.7-19,45.9-46.1,44.5c-23.6-1.3-39.2-23.8-40.4-45.6c-1.4-25.8,21.3-45.9,46.1-44.5
	C3244.8,682,3260.4,704.5,3261.5,726.4c0.5,8.7,16.8,6.5,16.4-1.1c-4.1-75.4-115.3-72.8-119.2,1.1c-1.7,31.2,28.4,58.7,59,57
	c32.7-1.8,58.5-24.8,60.3-58.1C3278.4,716.6,3261.9,718.7,3261.5,726.4z"/>
<path class="st9" d="M3221.3,1364.7c0,0,46.9,5.9,84,46.6c37.1,40.8,115.9,23.2,115.9,23.2s-76.9,0.9-103.8-37
	c-26.9-38-46.3-58.4-87.5-64C3229.8,1333.5,3229.3,1351.9,3221.3,1364.7z"/>
<path class="st6" d="M3216.3,1368.7c51,7.5,76.2,55,123,69c26,7.8,56.5,5.8,82.8,0.3c5-1.1,11-7.7,2.3-7.7
	c-33,0.1-69.3-6.9-94.3-29.6c-17.7-16-28-38-47.3-53.2c-13.7-10.8-31.1-15.1-48-18c-2.9-0.5-12.8,0.9-13,5.2
	c-0.8,11.4-3.8,20.8-8.5,31.2c-1.9,4.3,13.8,2.6,16-2.3c4.7-10.4,7.7-19.8,8.5-31.2c-4.4,1.7-8.7,3.5-13,5.2
	c26.9,4.7,45.8,16,64.1,35.7c13.6,14.7,22.1,34.4,40.1,44.5c26.3,14.8,56,19.9,85.8,20.8c4.6,0.1,8.3-8.2,0.8-6.9
	c-7.6,1.3-15.3,1.9-22.9,2.3c-29.5,1.6-58.1-5-79.9-25.7c-24.4-23.2-52.3-42.6-86.5-47.7C3221.8,1360,3207.5,1367.4,3216.3,1368.7z"/>
<path class="st6" d="M2894.2,635.3c0,7.8-6.3,14.2-14.2,14.2c-7.8,0-14.2-6.4-14.2-14.2c0-7.8,6.3-14.2,14.2-14.2
	C2887.9,621.1,2894.2,627.4,2894.2,635.3z"/>
<path class="st6" d="M3240.1,736.3c0,7.8-6.3,14.2-14.2,14.2c-7.8,0-14.2-6.4-14.2-14.2c0-7.8,6.3-14.2,14.2-14.2
	C3233.8,722.1,3240.1,728.4,3240.1,736.3z"/>
<path class="st0" d="M1094.8,1031.4c0,0,250.6-397.8,745.5-234.9C1840.3,796.5,1436.3,689.9,1094.8,1031.4z"/>
<path class="st0" d="M1699.4,1120.8c0,0-172.3-46.8-272.5,118.3C1426.9,1239,1542.8,1116.2,1699.4,1120.8z"/>
<path class="st0" d="M1585,1405.7c0,0-7.2-60.3,57.9-41.1C1643,1364.6,1599.1,1365.8,1585,1405.7z"/>
<path class="st0" d="M2791.4,1130.5c0,0-69.3,10-168,108.6C2623.4,1239,2745.6,1144.2,2791.4,1130.5z"/>
<path class="st0" d="M2795.8,1095.2l45.2-261.5c0,0-19.1,231.7-22.6,261.5H2795.8z"/>
<path class="st0" d="M2975.8,1098.6c0,0,106.3-207,125.7-216.8c0,0-95.1,157.6-112.8,216.8H2975.8z"/>
<path class="st0" d="M2588.2,684.8"/>
<path class="st10" d="M2920.1,650.7c0,0-4.6,26.3-40,34.2c-26.9,2-46.5-2.7-61.7-29.2C2833.7,662.7,2869,666.8,2920.1,650.7z"/>
<path class="st10" d="M3257.3,746.2c0,0-3.5,20.1-30.7,26.2c-20.6,1.5-35.6-2.1-47.2-22.3C3191.2,755.4,3218.2,758.6,3257.3,746.2z"/>
<linearGradient id="SVGID_1_" gradientUnits="userSpaceOnUse" x1="3393.5623" y1="2741.0281" x2="3393.5623" y2="3555.3491">
	<stop offset="0" style="stop-color:#D0D2D3"/>
	<stop offset="0.6788" style="stop-color:#D0D2D3;stop-opacity:0"/>
</linearGradient>
<path class="st11" d="M6279.1,2588.5c0,73.1-59.5,132.6-132.6,132.6H223.9h-5v0l183.4,707.6h6165.9v0L6279.1,2588.5z"/>
<g>
	<defs>
		<polygon id="SVGID_00000074435511286354784370000004272988054445002415_" points="2351.3,2605.9 237.5,2605.9 237.5,1989.2 
			2062.5,1989.2 		"/>
	</defs>
	<clipPath id="SVGID_00000144309916481849650640000009416893560374916235_">
		<use xlink:href="#SVGID_00000074435511286354784370000004272988054445002415_" style="overflow:visible;"/>
	</clipPath>
	
		<rect x="2332" y="1989.2" style="clip-path:url(#SVGID_00000144309916481849650640000009416893560374916235_);fill:#6DCDF4;" width="19.3" height="616.7"/>
	
		<rect x="2303.3" y="1989.2" style="clip-path:url(#SVGID_00000144309916481849650640000009416893560374916235_);fill:#6CCCF4;" width="28.7" height="616.7"/>
	
		<rect x="2274.7" y="1989.2" style="clip-path:url(#SVGID_00000144309916481849650640000009416893560374916235_);fill:#6BCCF3;" width="28.7" height="616.7"/>
	
		<rect x="2246" y="1989.2" style="clip-path:url(#SVGID_00000144309916481849650640000009416893560374916235_);fill:#6ACBF3;" width="28.7" height="616.7"/>
	
		<rect x="2217.3" y="1989.2" style="clip-path:url(#SVGID_00000144309916481849650640000009416893560374916235_);fill:#69CBF3;" width="28.7" height="616.7"/>
	
		<rect x="2188.7" y="1989.2" style="clip-path:url(#SVGID_00000144309916481849650640000009416893560374916235_);fill:#68CAF2;" width="28.7" height="616.7"/>
	
		<rect x="2160" y="1989.2" style="clip-path:url(#SVGID_00000144309916481849650640000009416893560374916235_);fill:#67CAF2;" width="28.7" height="616.7"/>
	
		<rect x="2131.3" y="1989.2" style="clip-path:url(#SVGID_00000144309916481849650640000009416893560374916235_);fill:#66C9F2;" width="28.7" height="616.7"/>
	
		<rect x="2102.7" y="1989.2" style="clip-path:url(#SVGID_00000144309916481849650640000009416893560374916235_);fill:#65C9F2;" width="28.7" height="616.7"/>
	
		<rect x="2074" y="1989.2" style="clip-path:url(#SVGID_00000144309916481849650640000009416893560374916235_);fill:#64C8F1;" width="28.7" height="616.7"/>
	
		<rect x="2045.3" y="1989.2" style="clip-path:url(#SVGID_00000144309916481849650640000009416893560374916235_);fill:#63C8F1;" width="28.7" height="616.7"/>
	
		<rect x="2016.7" y="1989.2" style="clip-path:url(#SVGID_00000144309916481849650640000009416893560374916235_);fill:#62C7F1;" width="28.7" height="616.7"/>
	
		<rect x="1988" y="1989.2" style="clip-path:url(#SVGID_00000144309916481849650640000009416893560374916235_);fill:#61C7F0;" width="28.7" height="616.7"/>
	
		<rect x="1959.3" y="1989.2" style="clip-path:url(#SVGID_00000144309916481849650640000009416893560374916235_);fill:#60C6F0;" width="28.7" height="616.7"/>
	
		<rect x="1930.7" y="1989.2" style="clip-path:url(#SVGID_00000144309916481849650640000009416893560374916235_);fill:#5FC6F0;" width="28.7" height="616.7"/>
	
		<rect x="1902" y="1989.2" style="clip-path:url(#SVGID_00000144309916481849650640000009416893560374916235_);fill:#5EC5F0;" width="28.7" height="616.7"/>
	
		<rect x="1873.3" y="1989.2" style="clip-path:url(#SVGID_00000144309916481849650640000009416893560374916235_);fill:#5DC5EF;" width="28.7" height="616.7"/>
	
		<rect x="1844.7" y="1989.2" style="clip-path:url(#SVGID_00000144309916481849650640000009416893560374916235_);fill:#5CC4EF;" width="28.7" height="616.7"/>
	
		<rect x="1816" y="1989.2" style="clip-path:url(#SVGID_00000144309916481849650640000009416893560374916235_);fill:#5BC4EF;" width="28.7" height="616.7"/>
	
		<rect x="1787.3" y="1989.2" style="clip-path:url(#SVGID_00000144309916481849650640000009416893560374916235_);fill:#5AC3EE;" width="28.7" height="616.7"/>
	
		<rect x="1758.7" y="1989.2" style="clip-path:url(#SVGID_00000144309916481849650640000009416893560374916235_);fill:#59C3EE;" width="28.7" height="616.7"/>
	
		<rect x="1730" y="1989.2" style="clip-path:url(#SVGID_00000144309916481849650640000009416893560374916235_);fill:#58C2EE;" width="28.7" height="616.7"/>
	
		<rect x="1701.3" y="1989.2" style="clip-path:url(#SVGID_00000144309916481849650640000009416893560374916235_);fill:#57C2EE;" width="28.7" height="616.7"/>
	
		<rect x="1672.7" y="1989.2" style="clip-path:url(#SVGID_00000144309916481849650640000009416893560374916235_);fill:#56C1ED;" width="28.7" height="616.7"/>
	
		<rect x="1644" y="1989.2" style="clip-path:url(#SVGID_00000144309916481849650640000009416893560374916235_);fill:#55C1ED;" width="28.7" height="616.7"/>
	
		<rect x="1615.3" y="1989.2" style="clip-path:url(#SVGID_00000144309916481849650640000009416893560374916235_);fill:#54C0ED;" width="28.7" height="616.7"/>
	
		<rect x="1586.7" y="1989.2" style="clip-path:url(#SVGID_00000144309916481849650640000009416893560374916235_);fill:#53C0EC;" width="28.7" height="616.7"/>
	
		<rect x="1558" y="1989.2" style="clip-path:url(#SVGID_00000144309916481849650640000009416893560374916235_);fill:#52BFEC;" width="28.7" height="616.7"/>
	
		<rect x="1529.3" y="1989.2" style="clip-path:url(#SVGID_00000144309916481849650640000009416893560374916235_);fill:#51BFEC;" width="28.7" height="616.7"/>
	
		<rect x="1500.7" y="1989.2" style="clip-path:url(#SVGID_00000144309916481849650640000009416893560374916235_);fill:#50BEEC;" width="28.7" height="616.7"/>
	
		<rect x="1472" y="1989.2" style="clip-path:url(#SVGID_00000144309916481849650640000009416893560374916235_);fill:#4FBEEB;" width="28.7" height="616.7"/>
	
		<rect x="1443.3" y="1989.2" style="clip-path:url(#SVGID_00000144309916481849650640000009416893560374916235_);fill:#4EBDEB;" width="28.7" height="616.7"/>
	
		<rect x="1414.7" y="1989.2" style="clip-path:url(#SVGID_00000144309916481849650640000009416893560374916235_);fill:#4DBDEB;" width="28.7" height="616.7"/>
	
		<rect x="1386" y="1989.2" style="clip-path:url(#SVGID_00000144309916481849650640000009416893560374916235_);fill:#4CBCEB;" width="28.7" height="616.7"/>
	
		<rect x="1357.3" y="1989.2" style="clip-path:url(#SVGID_00000144309916481849650640000009416893560374916235_);fill:#4ABBEA;" width="28.7" height="616.7"/>
	
		<rect x="1328.7" y="1989.2" style="clip-path:url(#SVGID_00000144309916481849650640000009416893560374916235_);fill:#49BBEA;" width="28.7" height="616.7"/>
	
		<rect x="1300" y="1989.2" style="clip-path:url(#SVGID_00000144309916481849650640000009416893560374916235_);fill:#48BAEA;" width="28.7" height="616.7"/>
	
		<rect x="1271.3" y="1989.2" style="clip-path:url(#SVGID_00000144309916481849650640000009416893560374916235_);fill:#47BAE9;" width="28.7" height="616.7"/>
	
		<rect x="1242.7" y="1989.2" style="clip-path:url(#SVGID_00000144309916481849650640000009416893560374916235_);fill:#46B9E9;" width="28.7" height="616.7"/>
	
		<rect x="1214" y="1989.2" style="clip-path:url(#SVGID_00000144309916481849650640000009416893560374916235_);fill:#45B9E9;" width="28.7" height="616.7"/>
	
		<rect x="1185.3" y="1989.2" style="clip-path:url(#SVGID_00000144309916481849650640000009416893560374916235_);fill:#44B8E9;" width="28.7" height="616.7"/>
	
		<rect x="1156.7" y="1989.2" style="clip-path:url(#SVGID_00000144309916481849650640000009416893560374916235_);fill:#43B8E8;" width="28.7" height="616.7"/>
	
		<rect x="1128" y="1989.2" style="clip-path:url(#SVGID_00000144309916481849650640000009416893560374916235_);fill:#42B7E8;" width="28.7" height="616.7"/>
	
		<rect x="1099.3" y="1989.2" style="clip-path:url(#SVGID_00000144309916481849650640000009416893560374916235_);fill:#41B7E8;" width="28.7" height="616.7"/>
	
		<rect x="1070.7" y="1989.2" style="clip-path:url(#SVGID_00000144309916481849650640000009416893560374916235_);fill:#40B6E7;" width="28.7" height="616.7"/>
	
		<rect x="1042" y="1989.2" style="clip-path:url(#SVGID_00000144309916481849650640000009416893560374916235_);fill:#3FB6E7;" width="28.7" height="616.7"/>
	
		<rect x="1013.3" y="1989.2" style="clip-path:url(#SVGID_00000144309916481849650640000009416893560374916235_);fill:#3EB5E7;" width="28.7" height="616.7"/>
	
		<rect x="984.7" y="1989.2" style="clip-path:url(#SVGID_00000144309916481849650640000009416893560374916235_);fill:#3DB5E7;" width="28.7" height="616.7"/>
	
		<rect x="956" y="1989.2" style="clip-path:url(#SVGID_00000144309916481849650640000009416893560374916235_);fill:#3CB4E6;" width="28.7" height="616.7"/>
	
		<rect x="927.3" y="1989.2" style="clip-path:url(#SVGID_00000144309916481849650640000009416893560374916235_);fill:#3BB4E6;" width="28.7" height="616.7"/>
	
		<rect x="898.7" y="1989.2" style="clip-path:url(#SVGID_00000144309916481849650640000009416893560374916235_);fill:#3AB3E6;" width="28.7" height="616.7"/>
	
		<rect x="870" y="1989.2" style="clip-path:url(#SVGID_00000144309916481849650640000009416893560374916235_);fill:#39B3E5;" width="28.7" height="616.7"/>
	
		<rect x="841.3" y="1989.2" style="clip-path:url(#SVGID_00000144309916481849650640000009416893560374916235_);fill:#38B2E5;" width="28.7" height="616.7"/>
	
		<rect x="812.7" y="1989.2" style="clip-path:url(#SVGID_00000144309916481849650640000009416893560374916235_);fill:#37B2E5;" width="28.7" height="616.7"/>
	
		<rect x="784" y="1989.2" style="clip-path:url(#SVGID_00000144309916481849650640000009416893560374916235_);fill:#36B1E5;" width="28.7" height="616.7"/>
	
		<rect x="755.3" y="1989.2" style="clip-path:url(#SVGID_00000144309916481849650640000009416893560374916235_);fill:#35B1E4;" width="28.7" height="616.7"/>
	
		<rect x="726.7" y="1989.2" style="clip-path:url(#SVGID_00000144309916481849650640000009416893560374916235_);fill:#34B0E4;" width="28.7" height="616.7"/>
	
		<rect x="698" y="1989.2" style="clip-path:url(#SVGID_00000144309916481849650640000009416893560374916235_);fill:#33B0E4;" width="28.7" height="616.7"/>
	
		<rect x="669.3" y="1989.2" style="clip-path:url(#SVGID_00000144309916481849650640000009416893560374916235_);fill:#32AFE3;" width="28.7" height="616.7"/>
	
		<rect x="640.7" y="1989.2" style="clip-path:url(#SVGID_00000144309916481849650640000009416893560374916235_);fill:#31AFE3;" width="28.7" height="616.7"/>
	
		<rect x="612" y="1989.2" style="clip-path:url(#SVGID_00000144309916481849650640000009416893560374916235_);fill:#30AEE3;" width="28.7" height="616.7"/>
	
		<rect x="583.3" y="1989.2" style="clip-path:url(#SVGID_00000144309916481849650640000009416893560374916235_);fill:#2FAEE3;" width="28.7" height="616.7"/>
	
		<rect x="554.7" y="1989.2" style="clip-path:url(#SVGID_00000144309916481849650640000009416893560374916235_);fill:#2EADE2;" width="28.7" height="616.7"/>
	
		<rect x="526" y="1989.2" style="clip-path:url(#SVGID_00000144309916481849650640000009416893560374916235_);fill:#2DADE2;" width="28.7" height="616.7"/>
	
		<rect x="497.3" y="1989.2" style="clip-path:url(#SVGID_00000144309916481849650640000009416893560374916235_);fill:#2CACE2;" width="28.7" height="616.7"/>
	
		<rect x="468.7" y="1989.2" style="clip-path:url(#SVGID_00000144309916481849650640000009416893560374916235_);fill:#2BACE1;" width="28.7" height="616.7"/>
	
		<rect x="440" y="1989.2" style="clip-path:url(#SVGID_00000144309916481849650640000009416893560374916235_);fill:#2AABE1;" width="28.7" height="616.7"/>
	
		<rect x="411.3" y="1989.2" style="clip-path:url(#SVGID_00000144309916481849650640000009416893560374916235_);fill:#29ABE1;" width="28.7" height="616.7"/>
	
		<rect x="382.7" y="1989.2" style="clip-path:url(#SVGID_00000144309916481849650640000009416893560374916235_);fill:#28AAE1;" width="28.7" height="616.7"/>
	
		<rect x="354" y="1989.2" style="clip-path:url(#SVGID_00000144309916481849650640000009416893560374916235_);fill:#27AAE0;" width="28.7" height="616.7"/>
	
		<rect x="325.3" y="1989.2" style="clip-path:url(#SVGID_00000144309916481849650640000009416893560374916235_);fill:#26A9E0;" width="28.7" height="616.7"/>
	
		<rect x="237.5" y="1989.2" style="clip-path:url(#SVGID_00000144309916481849650640000009416893560374916235_);fill:#26A9E0;" width="87.8" height="616.7"/>
</g>
<g>
	<defs>
		<polygon id="SVGID_00000052793658302983375510000014704189076495732397_" points="2106.8,1989.2 2408,2605.9 2517.3,2605.9 
			2219,1989.2 		"/>
	</defs>
	<clipPath id="SVGID_00000021097318340375348490000008996598780808803482_">
		<use xlink:href="#SVGID_00000052793658302983375510000014704189076495732397_" style="overflow:visible;"/>
	</clipPath>
	
		<rect x="2475.3" y="1989.2" style="clip-path:url(#SVGID_00000021097318340375348490000008996598780808803482_);fill:#71CFF5;" width="42" height="616.7"/>
	
		<rect x="2446.7" y="1989.2" style="clip-path:url(#SVGID_00000021097318340375348490000008996598780808803482_);fill:#71CFF5;" width="28.7" height="616.7"/>
	
		<rect x="2418" y="1989.2" style="clip-path:url(#SVGID_00000021097318340375348490000008996598780808803482_);fill:#70CEF5;" width="28.7" height="616.7"/>
	
		<rect x="2389.3" y="1989.2" style="clip-path:url(#SVGID_00000021097318340375348490000008996598780808803482_);fill:#6FCEF4;" width="28.7" height="616.7"/>
	
		<rect x="2360.7" y="1989.2" style="clip-path:url(#SVGID_00000021097318340375348490000008996598780808803482_);fill:#6ECDF4;" width="28.7" height="616.7"/>
	
		<rect x="2332" y="1989.2" style="clip-path:url(#SVGID_00000021097318340375348490000008996598780808803482_);fill:#6DCDF4;" width="28.7" height="616.7"/>
	
		<rect x="2303.3" y="1989.2" style="clip-path:url(#SVGID_00000021097318340375348490000008996598780808803482_);fill:#6CCCF4;" width="28.7" height="616.7"/>
	
		<rect x="2274.7" y="1989.2" style="clip-path:url(#SVGID_00000021097318340375348490000008996598780808803482_);fill:#6BCCF3;" width="28.7" height="616.7"/>
	
		<rect x="2246" y="1989.2" style="clip-path:url(#SVGID_00000021097318340375348490000008996598780808803482_);fill:#6ACBF3;" width="28.7" height="616.7"/>
	
		<rect x="2217.3" y="1989.2" style="clip-path:url(#SVGID_00000021097318340375348490000008996598780808803482_);fill:#69CBF3;" width="28.7" height="616.7"/>
	
		<rect x="2188.7" y="1989.2" style="clip-path:url(#SVGID_00000021097318340375348490000008996598780808803482_);fill:#68CAF2;" width="28.7" height="616.7"/>
	
		<rect x="2160" y="1989.2" style="clip-path:url(#SVGID_00000021097318340375348490000008996598780808803482_);fill:#67CAF2;" width="28.7" height="616.7"/>
	
		<rect x="2131.3" y="1989.2" style="clip-path:url(#SVGID_00000021097318340375348490000008996598780808803482_);fill:#66C9F2;" width="28.7" height="616.7"/>
	
		<rect x="2106.8" y="1989.2" style="clip-path:url(#SVGID_00000021097318340375348490000008996598780808803482_);fill:#65C9F2;" width="24.5" height="616.7"/>
</g>
<g>
	<defs>
		<polygon id="SVGID_00000137117559858096559850000013198410767724172459_" points="2263.3,1989.2 2564.6,2605.9 2673.8,2605.9 
			2375.6,1989.2 		"/>
	</defs>
	<clipPath id="SVGID_00000055678229990574153150000013592072757275753897_">
		<use xlink:href="#SVGID_00000137117559858096559850000013198410767724172459_" style="overflow:visible;"/>
	</clipPath>
	
		<rect x="2475.3" y="1989.2" style="clip-path:url(#SVGID_00000055678229990574153150000013592072757275753897_);fill:#71CFF5;" width="198.5" height="616.7"/>
	
		<rect x="2446.7" y="1989.2" style="clip-path:url(#SVGID_00000055678229990574153150000013592072757275753897_);fill:#71CFF5;" width="28.7" height="616.7"/>
	
		<rect x="2418" y="1989.2" style="clip-path:url(#SVGID_00000055678229990574153150000013592072757275753897_);fill:#70CEF5;" width="28.7" height="616.7"/>
	
		<rect x="2389.3" y="1989.2" style="clip-path:url(#SVGID_00000055678229990574153150000013592072757275753897_);fill:#6FCEF4;" width="28.7" height="616.7"/>
	
		<rect x="2360.7" y="1989.2" style="clip-path:url(#SVGID_00000055678229990574153150000013592072757275753897_);fill:#6ECDF4;" width="28.7" height="616.7"/>
	
		<rect x="2332" y="1989.2" style="clip-path:url(#SVGID_00000055678229990574153150000013592072757275753897_);fill:#6DCDF4;" width="28.7" height="616.7"/>
	
		<rect x="2303.3" y="1989.2" style="clip-path:url(#SVGID_00000055678229990574153150000013592072757275753897_);fill:#6CCCF4;" width="28.7" height="616.7"/>
	
		<rect x="2274.7" y="1989.2" style="clip-path:url(#SVGID_00000055678229990574153150000013592072757275753897_);fill:#6BCCF3;" width="28.7" height="616.7"/>
	
		<rect x="2263.4" y="1989.2" style="clip-path:url(#SVGID_00000055678229990574153150000013592072757275753897_);fill:#6ACBF3;" width="11.3" height="616.7"/>
</g>
<path class="st104" d="M832.7,1193.1c-4.4-2.2-8-6.2-9.7-11.3c-31-96.6-27.1-180.1,11.4-248.3c58.7-103.9,175.9-132.6,180.9-133.8
	c10.3-2.4,20.6,3.9,23,14.2c2.4,10.3-3.9,20.6-14.2,23l0,0c-1.1,0.3-106.4,26.5-156.6,115.7c-32.9,58.4-35.6,131.6-8.1,217.5
	c3.2,10.1-2.3,20.8-12.4,24C842.1,1195.8,837,1195.2,832.7,1193.1z"/>
<path class="st104" d="M729.3,1141.5c-4.5-2.2-8-6.2-9.7-11.3c-31-96.6-27.1-180.1,11.4-248.3c58.7-103.9,175.9-132.6,180.9-133.8
	c10.3-2.4,20.6,3.9,23,14.2c2.4,10.3-3.9,20.6-14.2,23l0,0c-1.1,0.3-106.4,26.5-156.6,115.7c-32.9,58.4-35.6,131.6-8.1,217.5
	c3.2,10.1-2.3,20.8-12.4,24.1C738.7,1144.2,733.6,1143.6,729.3,1141.5z"/>
<path class="st104" d="M3510.5,1128.4c2.6-1.3,4.8-3.7,5.7-6.7c18.4-57.3,16.1-106.8-6.7-147.2c-34.8-61.6-104.3-78.7-107.3-79.3
	c-6.1-1.4-12.2,2.3-13.6,8.4c-1.4,6.1,2.3,12.2,8.4,13.6l0,0c0.6,0.2,63.1,15.7,92.9,68.6c19.5,34.7,21.1,78,4.8,129
	c-1.9,6,1.4,12.3,7.3,14.3C3504.9,1130,3507.9,1129.7,3510.5,1128.4z"/>
<path class="st104" d="M3571.8,1097.8c2.6-1.3,4.8-3.7,5.7-6.7c18.4-57.3,16.1-106.8-6.7-147.2c-34.8-61.6-104.3-78.7-107.3-79.3
	c-6.1-1.4-12.2,2.3-13.6,8.4c-1.4,6.1,2.3,12.2,8.4,13.6l0,0c0.6,0.2,63.1,15.7,92.9,68.6c19.5,34.7,21.1,78,4.8,129
	c-1.9,6,1.4,12.3,7.3,14.3C3566.2,1099.4,3569.3,1099.1,3571.8,1097.8z"/>
<g>
	<path class="st7" d="M4471.5,1183.5v239.8h54c10.8,0,18.6,2.1,23.2,6.3s6.9,9.6,6.9,16.4c0,6.6-2.3,12-6.9,16.1s-12.3,6.3-23.2,6.3
		h-153.1c-10.8,0-18.6-2.1-23.2-6.3s-6.9-9.6-6.9-16.4c0-6.6,2.3-12,6.9-16.1s12.3-6.3,23.2-6.3h54v-194.8h-36.2
		c-10.7,0-18.4-2.1-23.1-6.3c-4.7-4.2-7-9.6-7-16.4c0-6.6,2.3-12,6.9-16.1c4.6-4.2,12.3-6.3,23.2-6.3H4471.5z"/>
	<path class="st7" d="M4835.9,1372.4c0,17.3-4.8,34-14.4,50.2c-9.6,16.2-23.9,29.1-42.8,38.7c-19,9.6-38.8,14.4-59.4,14.4
		c-20.5,0-40.1-4.7-58.9-14.2c-18.7-9.4-33-22.3-42.8-38.5c-9.8-16.3-14.7-33.2-14.7-51c0-18,5-35.7,14.9-53
		c10-17.3,24.3-31,42.9-41c18.7-10,38.2-14.9,58.5-14.9c20.5,0,40.2,5.1,59.2,15.3c19,10.2,33.3,23.9,42.9,41.1
		C4831.1,1336.6,4835.9,1354.3,4835.9,1372.4z M4790.9,1372.6c0-14.5-5.2-27.8-15.6-40c-14.2-16.4-32.9-24.6-56-24.6
		c-20.4,0-37.3,6.5-51,19.5c-13.6,13-20.4,28.1-20.4,45.2c0,14.1,6.9,27.2,20.6,39.4c13.8,12.2,30.7,18.3,50.7,18.3
		c20.2,0,37.2-6.1,51-18.3C4784,1400,4790.9,1386.8,4790.9,1372.6z"/>
	<path class="st7" d="M5029.4,1468.4v-10.5c-11.3,6-23.7,10.5-37.3,13.5c-13.6,3-26,4.5-37.1,4.5c-24.2,0-43.8-6.4-58.9-19.2
		c-15.1-12.8-22.6-27-22.6-42.5c0-18.9,9.6-36.4,28.9-52.6c19.2-16.2,45.9-24.3,79.8-24.3c13.6,0,29.4,1.5,47.2,4.4v-10.8
		c0-6.7-2.9-12.2-8.7-16.5c-5.8-4.2-16.8-6.4-33.1-6.4c-13.3,0-30.6,2.6-51.8,7.9c-7.9,1.9-14.1,2.9-18.4,2.9
		c-6,0-11.1-2.2-15.3-6.5c-4.2-4.3-6.3-9.8-6.3-16.6c0-3.8,0.7-7.1,2.2-9.9c1.5-2.8,3.5-5,6.1-6.7c2.6-1.7,8.1-3.7,16.5-6
		c11.1-3.1,22.5-5.5,34-7.4c11.6-1.8,22-2.7,31.4-2.7c28,0,49.7,6,65.1,18.1c15.4,12.1,23.2,28.6,23.2,49.5v92.7h7.7
		c10.8,0,18.6,2.1,23.2,6.3c4.6,4.2,6.9,9.6,6.9,16.4c0,6.6-2.3,12-6.9,16.1c-4.6,4.2-12.3,6.3-23.2,6.3H5029.4z M5029.4,1387.8
		c-18-3.5-34.6-5.3-49.9-5.3c-18.3,0-34,4.5-47.2,13.4c-8.2,5.7-12.3,11.5-12.3,17.3c0,4.2,2,7.7,5.9,10.3
		c7.3,4.8,17.3,7.2,30.1,7.2c10.8,0,23.1-2.1,36.8-6.4c13.7-4.2,25.9-10,36.6-17.3V1387.8z"/>
	<path class="st7" d="M5362.1,1183.5v239.8h7.7c10.7,0,18.4,2.1,23.1,6.3c4.7,4.2,7,9.6,7,16.4c0,6.6-2.3,12-6.9,16.1
		c-4.6,4.2-12.3,6.3-23.2,6.3h-52.7v-11c-10.2,6-21,10.5-32.2,13.6c-11.2,3.1-22.8,4.6-34.8,4.6c-33.8,0-61.1-9.8-81.7-29.3
		s-31-43.9-31-73c0-30.5,10.8-56.4,32.5-78c21.7-21.5,48.1-32.3,79.3-32.3c11.7,0,23.2,1.8,34.5,5.4c11.3,3.6,22.4,9,33.4,16.1v-56
		h-7.7c-10.8,0-18.6-2.1-23.2-6.3c-4.6-4.2-6.9-9.6-6.9-16.1c0-6.7,2.3-12.2,6.9-16.4c4.6-4.2,12.3-6.3,23.2-6.3H5362.1z
		 M5317.1,1374.6c0-18.6-6.5-34.3-19.5-47.2c-13-12.9-29-19.3-47.9-19.3c-18.7,0-34.6,6.4-47.7,19.3c-13,12.9-19.5,28.4-19.5,46.6
		c0,16.5,5.9,30.1,17.6,40.7c11.7,10.6,28.3,15.9,49.6,15.9c21.2,0,37.8-5.3,49.6-15.9C5311.1,1404.1,5317.1,1390.7,5317.1,1374.6z"/>
	<path class="st7" d="M5551,1269v154.4h54c10.8,0,18.6,2.1,23.2,6.3s6.9,9.6,6.9,16.4c0,6.6-2.3,12-6.9,16.1s-12.3,6.3-23.2,6.3
		h-153.1c-10.8,0-18.6-2.1-23.2-6.3c-4.6-4.2-6.9-9.6-6.9-16.4c0-6.6,2.3-12,6.9-16.1c4.6-4.2,12.3-6.3,23.2-6.3h54V1314h-36.2
		c-10.7,0-18.4-2.1-23.1-6.3c-4.7-4.2-7-9.6-7-16.4c0-6.6,2.3-12,6.9-16.1c4.6-4.2,12.3-6.3,23.2-6.3H5551z M5544.8,1183.5v47.7
		h-53.6v-47.7H5544.8z"/>
	<path class="st7" d="M5753,1269v15.2c8.2-7,17.2-12.3,27.1-15.8c9.9-3.5,20.6-5.3,32.2-5.3c26.6,0,47.7,8.3,63.2,24.8
		c12.3,13.2,18.4,30.5,18.4,51.8v83.7c9.5,0,16.5,2.1,21.1,6.3c4.5,4.2,6.8,9.6,6.8,16.4c0,6.6-2.3,12-6.9,16.1
		c-4.6,4.2-12.3,6.3-23.2,6.3h-40.6c-10.8,0-18.6-2.1-23.2-6.3c-4.6-4.2-6.9-9.6-6.9-16.4c0-6.6,2.3-12,6.8-16.1
		c4.5-4.2,11.6-6.3,21.1-6.3v-85c0-9.8-2.6-17-7.9-21.5c-6.9-5.9-17.2-8.8-31-8.8c-10.4,0-19.5,2-27.3,6c-7.8,4-17.8,12.6-29.8,25.6
		v83.7c11.6,0,19,1.1,22.4,3.3c7.2,4.4,10.8,10.8,10.8,19.3c0,6.6-2.3,12-6.9,16.1c-4.6,4.2-12.3,6.3-23.2,6.3h-51.2
		c-10.8,0-18.6-2.1-23.2-6.3s-6.9-9.6-6.9-16.4c0-8.2,3.5-14.6,10.5-19.1c3.5-2.2,11.1-3.3,22.6-3.3V1314c-9.5,0-16.5-2.1-21.1-6.4
		c-4.5-4.2-6.8-9.7-6.8-16.3s2.3-12,6.9-16.1c4.6-4.2,12.3-6.3,23.2-6.3H5753z"/>
	<path class="st7" d="M6118,1282.4V1269h52.7c10.8,0,18.6,2.1,23.2,6.3s6.9,9.6,6.9,16.4c0,6.6-2.3,12-6.9,16.1s-12.3,6.3-23.2,6.3
		h-7.7v163.8c0,15.8-3.3,29.6-10,41.4c-6.7,11.8-16.9,21.9-30.6,30.4c-13.8,8.5-29.3,12.7-46.6,12.7h-51c-10.8,0-18.6-2.1-23.2-6.3
		c-4.6-4.2-6.9-9.6-6.9-16.1c0-6.7,2.3-12.2,6.9-16.4c4.6-4.2,12.3-6.3,23.2-6.3h49.6c13.8,0,24.5-3.7,32.1-11.2
		c7.6-7.5,11.4-16.9,11.4-28.3v-22c-10,6.4-20.1,11.3-30.4,14.5c-10.3,3.2-20.9,4.8-31.7,4.8c-30.6,0-56.2-10.2-76.9-30.6
		c-20.6-20.4-31-45.6-31-75.7c0-30.2,10.3-55.5,31-75.9c20.6-20.4,46.3-30.6,76.9-30.6c11.4,0,22.3,1.6,32.6,4.9
		C6098.8,1270.6,6108.6,1275.6,6118,1282.4z M6117.8,1368.7c0-16.5-6.1-30.9-18.3-43c-12.2-12.2-26.9-18.2-44-18.2
		c-17.1,0-31.8,6.1-44,18.2c-12.2,12.2-18.3,26.5-18.3,43c0,16.7,6.1,31.1,18.3,43.2c12.2,12.1,26.9,18.1,44,18.1
		c17.1,0,31.8-6,44-18.1C6111.7,1399.8,6117.8,1385.4,6117.8,1368.7z"/>
</g>
</svg>
