<?xml version="1.0" encoding="utf-8"?>
<!-- Generator: Adobe Illustrator 25.2.3, SVG Export Plug-In . SVG Version: 6.00 Build 0)  -->
<svg version="1.1" id="Layer_1" xmlns="http://www.w3.org/2000/svg" xmlns:xlink="http://www.w3.org/1999/xlink" x="0px" y="0px" viewBox="0 0 336.9 267" style="enable-background:new 0 0 336.9 267;" xml:space="preserve">
<style type="text/css">
	.st0{fill:#FFFFFF;fill-opacity:0;}
	.st1{fill:none;}
	.st2{fill:#092348;}
	.st3{fill:#F7836E;}
	.st4{fill:#59A9A9;}
</style>
<rect x="0.1" class="st0" width="335.9" height="266"/>
<g>
	<path class="st1" d="M186.6,63.2c-1.4,0-2.7,0.3-3.6,0.9c-1,0.5-1.7,1.2-2.1,1.9c0.2-1.4,0.6-2.7,1.2-4s1.3-2.5,2.2-3.6
		c0.9-1,2-1.9,3.1-2.7c1.2-0.8,2.5-1.2,4-1.5l-0.7-2.5c-1.8,0.3-3.6,1-5.2,1.9c-1.6,1-2.9,2.3-4.1,3.9c-1.2,1.6-2.1,3.5-2.7,5.7
		c-0.7,2.2-1,4.6-1,7.1c0,1.6,0.2,2.9,0.6,4.1c0.4,1.2,1,2.2,1.7,3c0.8,0.8,1.6,1.4,2.7,1.8c1,0.4,2.2,0.6,3.5,0.6
		c1.4,0,2.5-0.2,3.6-0.7c1-0.4,1.9-1.1,2.6-1.8s1.2-1.7,1.6-2.7c0.4-1.1,0.5-2.2,0.6-3.5c0-2.5-0.6-4.4-2.1-5.9S189,63.2,186.6,63.2
		z M190.8,73.8c-0.3,0.7-0.6,1.3-1,1.8c-0.5,0.5-1,0.9-1.6,1.2c-0.6,0.3-1.3,0.4-2.1,0.4c-0.9,0-1.7-0.1-2.4-0.5
		c-0.7-0.3-1.2-0.8-1.7-1.4s-0.8-1.3-1-2.1c-0.2-0.8-0.3-1.6-0.3-2.4c0-0.3,0-0.5,0-0.8c0-0.2,0-0.5,0.1-0.9c0.3-0.8,1-1.4,1.9-2.1
		s2-1,3.3-1c1.8,0,3.1,0.5,3.9,1.4c0.9,1,1.3,2.3,1.3,4.2C191.1,72.4,191,73.1,190.8,73.8z"/>
	<path class="st1" d="M166.5,61.3h-14.4c0,0,3.1-3.7,4.5-9c0.6-2.5,0-6.2-1.4-7.7c-1.3-1.4-3.6-0.8-4.1,1l-1.3,5
		c-0.5,1.8-1.4,3.6-2.8,4.9l-5.9,5.8l-0.6,0.5c-0.1,0.1-0.3,0.3-0.4,0.5c-0.3,0.3-0.4,0.8-0.4,1.2v23.1c0,1.3,1,2.3,2.3,2.3h14.6
		c4.5,0,8.5-3.1,9.7-7.4l4.1-15.3C171,63.7,169.1,61.3,166.5,61.3z"/>
	<path class="st1" d="M134.3,61.3H126c-1.1,0-2,0.9-2,2v23.6c0,1.1,0.9,2,2,2h8.3c1.1,0,2-0.9,2-2V63.3
		C136.3,62.2,135.4,61.3,134.3,61.3z"/>
	<path class="st1" d="M211.4,52.1h-2.1l-12.8,18v1.3h12v8.3h3v-8.3h4.6v-2.7h-4.6L211.4,52.1L211.4,52.1z M208.4,60.2v8.5h-5.7
		L200,69l1.8-1.8l5.5-7.4l1.4-2.6h0.1L208.4,60.2z"/>
	<path class="st2" d="M185.9,66c-1.3,0-2.4,0.3-3.3,1c-0.9,0.7-1.6,1.3-1.9,2.1c-0.1,0.3-0.1,0.7-0.1,0.9c0,0.2,0,0.5,0,0.8
		c0,0.8,0.1,1.6,0.3,2.4s0.5,1.4,1,2.1c0.5,0.6,1,1.1,1.7,1.4c0.7,0.4,1.5,0.5,2.4,0.5c0.8,0,1.4-0.1,2.1-0.4
		c0.6-0.3,1.1-0.7,1.6-1.2c0.4-0.5,0.8-1.1,1-1.8c0.3-0.7,0.3-1.4,0.3-2.3c0-1.8-0.4-3.2-1.3-4.2C189,66.5,187.7,66,185.9,66z"/>
	<polygon class="st2" points="207.3,59.6 201.8,67.1 200,68.9 202.7,68.6 208.4,68.6 208.4,60.2 208.8,57 208.7,57 	"/>
	<path class="st2" d="M205.3,30.3h-73.1c-12.8,0-23.2,10.4-23.2,23.2v29.7c0,12.8,10.4,23.2,23.2,23.2h12c1.8,0,3.6,0.8,4.9,2
		l16.4,16.4c1.8,1.8,4.9,1.8,6.7,0l16.4-16.4c1.3-1.3,3-2,4.9-2h12c12.8,0,23.2-10.4,23.2-23.2V53.5
		C228.6,40.7,218.2,30.3,205.3,30.3z M136.3,86.9c0,1.1-0.9,2-2,2H126c-1.1,0-2-0.9-2-2V63.3c0-1.1,0.9-2,2-2h8.3c1.1,0,2,0.9,2,2
		V86.9z M170.3,66.2l-4.1,15.3c-1.2,4.4-5.2,7.4-9.7,7.4H142c-1.3,0-2.3-1-2.3-2.3v-23c0-0.5,0.1-0.9,0.4-1.2
		c0.1-0.2,0.3-0.3,0.4-0.5l0.6-0.5l5.9-5.8c1.4-1.3,2.3-3,2.8-4.9l1.3-5c0.5-1.8,2.8-2.5,4.1-1c1.4,1.5,2,5.1,1.4,7.7
		c-1.4,5.3-4.5,9-4.5,9h14.4C169.1,61.3,171,63.7,170.3,66.2z M193.8,74.7c-0.3,1-0.9,2-1.6,2.7s-1.6,1.4-2.6,1.8
		c-1,0.5-2.2,0.7-3.6,0.7c-1.3,0-2.5-0.2-3.5-0.6s-1.9-1-2.7-1.8s-1.3-1.8-1.7-3s-0.6-2.5-0.6-4.1c0-2.5,0.3-4.9,1-7.1
		c0.7-2.2,1.6-4,2.7-5.7c1.2-1.6,2.5-2.9,4.1-3.9s3.3-1.6,5.2-1.9l0.7,2.5c-1.4,0.3-2.7,0.8-4,1.5c-1.2,0.8-2.3,1.6-3.1,2.7
		c-0.9,1-1.6,2.3-2.2,3.6s-1,2.7-1.2,4c0.4-0.7,1.1-1.4,2.1-1.9c1-0.6,2.2-0.9,3.6-0.9c2.4,0,4.3,0.7,5.7,2.1
		c1.4,1.4,2.1,3.3,2.1,5.9C194.3,72.5,194.2,73.6,193.8,74.7z M216,71.4h-4.6v8.3h-3v-8.3h-12v-1.3l12.8-18h2.1v16.5h4.6L216,71.4
		L216,71.4z"/>
</g>
<g>
	<path class="st3" d="M260.1,183c-0.5-0.5-1.1-0.9-1.7-1.3c-0.7-0.4-1.3-0.8-2.1-1.1c-1.6,0.9-2.7,1.8-3.3,2.9c-0.7,1.1-1,2.1-1,3.1
		c0,0.6,0.1,1.2,0.3,1.8c0.2,0.5,0.5,1,1,1.4c0.4,0.4,1,0.8,1.5,1c0.6,0.3,1.3,0.3,2.1,0.3c0.6,0,1.3-0.1,1.8-0.3
		c0.6-0.2,1.1-0.5,1.6-0.9c0.5-0.3,0.8-0.9,1.1-1.4s0.4-1.2,0.4-2.1c0-0.8-0.1-1.4-0.5-2.1C261,184.1,260.6,183.5,260.1,183z"/>
	<path class="st3" d="M257.8,178.3c1.2-0.9,2.1-1.8,2.6-2.7s0.8-1.8,0.8-2.9c0-1.3-0.4-2.3-1.2-3.1c-0.8-0.8-1.8-1.1-2.9-1.1
		c-0.7,0-1.3,0.1-1.8,0.3s-1,0.5-1.4,0.9c-0.4,0.3-0.7,0.8-0.9,1.2c-0.2,0.5-0.3,1-0.3,1.5c0,0.8,0.1,1.4,0.4,1.9
		c0.3,0.5,0.7,1,1.2,1.5c0.5,0.4,1,0.8,1.6,1.2C256.4,177.6,257.1,178,257.8,178.3z"/>
	<path class="st3" d="M272.8,140.7h-73.1c-12.8,0-23.2,10.4-23.2,23.2v29.7c0,12.8,10.4,23.2,23.2,23.2h12c1.8,0,3.6,0.8,4.9,2
		l16.4,16.4c1.8,1.8,4.9,1.8,6.7,0l16.4-16.4c1.3-1.3,3-2,4.9-2h12c12.8,0,23.2-10.4,23.2-23.2V164
		C296.1,151.1,285.7,140.7,272.8,140.7z M240.3,178.6L225,193.9c-1,1-2.8,0.3-2.8-1.2v-6.8c-11.3,0-21.1,5.1-26.7,12.6
		c-0.1-1.1-0.2-2.1-0.2-3.3c0-14.9,12-26.9,26.9-27V162c0-1.5,1.8-2.3,2.8-1.2l15.3,15.3C240.9,176.9,240.9,178,240.3,178.6z
		 M264.3,189.5c-0.3,0.9-0.9,1.7-1.6,2.4s-1.6,1.2-2.5,1.6c-1,0.4-2.2,0.5-3.4,0.5c-1.2,0-2.3-0.2-3.3-0.5s-1.8-0.9-2.4-1.4
		c-0.7-0.6-1.2-1.4-1.5-2.2s-0.5-1.8-0.5-2.7c0-1.6,0.4-3.1,1.3-4.2c0.9-1.2,2.2-2.3,4-3.3c-0.7-0.4-1.2-0.8-1.8-1.2
		c-0.5-0.4-1-0.9-1.4-1.4s-0.8-1.2-1-1.8c-0.3-0.7-0.3-1.4-0.3-2.3c0-1,0.2-1.9,0.5-2.7s0.9-1.6,1.5-2.1s1.4-1,2.4-1.4
		c0.9-0.3,2-0.5,3.1-0.5s2.1,0.1,2.9,0.5c0.9,0.3,1.6,0.8,2.3,1.3c0.6,0.5,1.1,1.2,1.4,1.9c0.3,0.8,0.5,1.6,0.5,2.5
		c0,1.4-0.3,2.7-1,3.9c-0.7,1.1-1.8,2.3-3.3,3.3c0.7,0.4,1.3,0.8,1.9,1.3s1.2,1,1.6,1.6s0.8,1.2,1.1,1.9c0.3,0.7,0.4,1.5,0.4,2.4
		C264.8,187.5,264.6,188.6,264.3,189.5z M281.6,188.6c-0.5,1.1-1.2,2-2,2.7c-0.8,0.8-1.8,1.3-2.9,1.7s-2.3,0.6-3.6,0.6
		c-1.2,0-2.2-0.1-3.1-0.3s-1.7-0.4-2.5-0.7l0.8-2.7c0.6,0.3,1.3,0.5,2.1,0.7s1.7,0.3,2.7,0.3c0.9,0,1.7-0.1,2.5-0.4s1.4-0.6,1.9-1.2
		c0.5-0.5,1-1.1,1.3-1.8s0.5-1.4,0.5-2.3c0-1.8-0.5-3.1-1.6-4s-2.5-1.3-4.4-1.3h-2.9v-1.1l5.6-8.6l1.8-1.7l-2.5,0.4h-7.7V166h13.8
		v1.1l-6.2,9.2l-1.4,1.1v0.1l1.3-0.3c1,0,2,0.2,2.9,0.5s1.6,0.9,2.3,1.5c0.6,0.7,1.2,1.4,1.5,2.4s0.5,2,0.5,3.1
		C282.3,186.2,282.1,187.5,281.6,188.6z"/>
</g>
<g>
	<path class="st4" d="M141.7,182.3c-0.5-0.5-1.1-0.9-1.7-1.3s-1.3-0.8-2-1.1c-1.6,0.9-2.7,1.8-3.3,2.9c-0.7,1.1-1,2.1-1,3.1
		c0,0.6,0.1,1.2,0.3,1.8c0.2,0.5,0.5,1,1,1.4c0.4,0.4,1,0.8,1.5,1c0.6,0.3,1.3,0.3,2.1,0.3c0.6,0,1.3-0.1,1.8-0.3
		c0.6-0.2,1.1-0.5,1.6-0.9c0.5-0.3,0.8-0.9,1.1-1.4s0.4-1.2,0.4-2.1c0-0.8-0.1-1.4-0.5-2.1C142.7,183.4,142.3,182.8,141.7,182.3z"/>
	<path class="st4" d="M139.4,177.6c1.2-0.9,2.1-1.8,2.6-2.7s0.8-1.8,0.8-2.9c0-1.3-0.4-2.3-1.2-3.1c-0.8-0.7-1.8-1.1-2.9-1.1
		c-0.7,0-1.3,0.1-1.8,0.3s-1,0.5-1.4,0.9c-0.4,0.3-0.7,0.8-0.9,1.2c-0.2,0.5-0.3,1-0.3,1.5c0,0.8,0.1,1.4,0.4,1.9
		c0.3,0.5,0.7,1,1.2,1.5c0.5,0.4,1,0.8,1.6,1.2C138.1,177,138.7,177.4,139.4,177.6z"/>
	<path class="st4" d="M137.7,140.7h-73c-12.8,0-23.2,10.4-23.2,23.2v29.7c0,12.8,10.4,23.2,23.2,23.2h12c1.8,0,3.6,0.8,4.9,2
		L98,235.2c1.8,1.8,4.9,1.8,6.7,0l16.4-16.4c1.3-1.3,3-2,4.9-2h12c12.8,0,23.2-10.4,23.2-23.2V164
		C161,151.1,150.6,140.7,137.7,140.7z M102.1,189.8c0,3.8-3.1,7-7,7H77.5l-9.2,8c-0.3,0.3-1,0.1-1-0.4v-7.6H62c-3.8,0-7-3.1-7-7
		v-20.1c0-3.8,3.1-7,7-7h33.1c3.8,0,7,3.1,7,7V189.8L102.1,189.8z M126.5,188.8c-0.5,1.1-1.2,2-2,2.7c-0.8,0.8-1.8,1.3-2.9,1.7
		s-2.3,0.6-3.6,0.6c-1.2,0-2.2-0.1-3.1-0.3c-1-0.2-1.8-0.4-2.5-0.7l0.8-2.7c0.6,0.3,1.3,0.5,2.1,0.7c0.8,0.1,1.7,0.3,2.7,0.3
		c0.9,0,1.7-0.1,2.5-0.4s1.4-0.6,1.9-1.2c0.5-0.5,1-1.1,1.3-1.8s0.5-1.4,0.5-2.3c0-1.8-0.5-3.1-1.6-4s-2.5-1.3-4.4-1.3h-2.9V179
		l5.6-8.6l1.8-1.7l-2.5,0.4h-7.7v-2.9h13.8v1.1l-6.2,9.2l-1.4,1.1v0.1l1.3-0.3c1,0,2,0.2,2.9,0.5s1.6,0.9,2.3,1.5
		c0.6,0.7,1.2,1.4,1.5,2.4c0.3,0.9,0.5,2,0.5,3.1C127.3,186.4,127,187.7,126.5,188.8z M145.9,188.8c-0.3,0.9-0.9,1.7-1.6,2.4
		s-1.6,1.2-2.5,1.6c-1,0.4-2.2,0.5-3.5,0.5c-1.2,0-2.3-0.2-3.3-0.5s-1.8-0.9-2.4-1.4c-0.7-0.6-1.2-1.4-1.5-2.2s-0.5-1.8-0.5-2.7
		c0-1.6,0.4-3.1,1.3-4.2c0.9-1.2,2.2-2.3,4-3.3c-0.6-0.4-1.2-0.8-1.8-1.2c-0.5-0.4-1-0.9-1.4-1.4s-0.8-1.2-1-1.8s-0.3-1.4-0.3-2.3
		c0-1,0.2-1.9,0.5-2.7s0.9-1.6,1.5-2.1s1.4-1,2.4-1.4c0.9-0.3,2-0.5,3.1-0.5s2.1,0.1,2.9,0.5c0.9,0.3,1.6,0.8,2.3,1.3
		c0.6,0.5,1.1,1.2,1.4,1.9c0.3,0.8,0.5,1.6,0.5,2.5c0,1.4-0.3,2.7-1,3.9c-0.7,1.1-1.8,2.3-3.3,3.3c0.7,0.4,1.3,0.8,1.9,1.3
		c0.6,0.5,1.2,1,1.6,1.6c0.4,0.6,0.8,1.2,1.1,1.9s0.4,1.5,0.4,2.4C146.4,186.9,146.3,188,145.9,188.8z"/>
</g>
</svg>
