<?xml version="1.0" encoding="utf-8"?>
<!-- Generator: Adobe Illustrator 25.2.3, SVG Export Plug-In . SVG Version: 6.00 Build 0)  -->
<svg version="1.1" id="Layer_1" xmlns="http://www.w3.org/2000/svg" xmlns:xlink="http://www.w3.org/1999/xlink" x="0px" y="0px" viewBox="0 0 336.9 267" style="enable-background:new 0 0 336.9 267;" xml:space="preserve">
<style type="text/css">
	.st0{fill:#FFFFFF;fill-opacity:0;}
	.st1{fill:#F7836E;}
	.st2{fill:#59A9A9;}
	.st3{fill:#092348;}
</style>
<rect x="0.1" class="st0" width="335.9" height="266"/>
<rect x="267.3" y="98.6" class="st1" width="22.9" height="42"/>
<g>
	<path class="st2" d="M297.7,83.9v115.8c0,8.3-6.8,15.1-15.1,15.1h-198c-8.3,0-15.1-6.8-15.1-15.1v-1.6H77v1.6
		c0,4.2,3.4,7.6,7.6,7.6h198c4.2,0,7.6-3.4,7.6-7.6v-59.1l0,0v-42l0,0V83.9c0-4.2-3.4-7.6-7.6-7.6h-15.3v-7.5h15.3
		C290.9,68.9,297.7,75.6,297.7,83.9z"/>
	<g>
		<path class="st3" d="M248.5,52.1h-198c-6.3,0-11.4,5.1-11.4,11.4v115.8c0,6.3,5.1,11.4,11.4,11.4h197.9c6.3,0,11.4-5.1,11.4-11.4
			V63.5C259.8,57.2,254.8,52.1,248.5,52.1z M90.7,72.3h6.5c3,0,5.4,2.4,5.4,5.4v6.5H90.7V72.3z M90.7,86.9h11.9v14.2H90.7V86.9z
			 M90.7,103.8h11.9v6.5c0,3-2.4,5.4-5.4,5.4h-6.5V103.8z M73.8,72.3h14.1v43.4H73.8V72.3z M59.1,77.7c0-3,2.4-5.4,5.4-5.4H71v11.9
			H59.1V77.7z M59.1,86.9H71v14.2H59.1V86.9z M59.1,103.8H71v11.9h-6.5c-3,0-5.4-2.4-5.4-5.4V103.8z M135.3,157.4H59.1
			c-1.8,0-3.2-1.5-3.2-3.2s1.5-3.2,3.2-3.2h76.2c1.8,0,3.2,1.5,3.2,3.2S137.1,157.4,135.3,157.4z M212.6,173.3
			c-5.3,0-9.6-4.4-9.6-9.6s4.4-9.6,9.6-9.6s9.6,4.3,9.6,9.6S217.8,173.3,212.6,173.3z M224.7,137.1H59.1c-1.8,0-3.2-1.5-3.2-3.2
			s1.5-3.2,3.2-3.2h165.7c1.8,0,3.2,1.5,3.2,3.2S226.6,137.1,224.7,137.1z M237,173.3c-5.3,0-9.6-4.4-9.6-9.6s4.4-9.6,9.6-9.6
			s9.6,4.3,9.6,9.6S242.3,173.3,237,173.3z"/>
	</g>
</g>
</svg>
