<?xml version="1.0" encoding="utf-8"?>
<!-- Generator: Adobe Illustrator 25.2.3, SVG Export Plug-In . SVG Version: 6.00 Build 0)  -->
<svg version="1.1" id="Layer_1" xmlns="http://www.w3.org/2000/svg" xmlns:xlink="http://www.w3.org/1999/xlink" x="0px" y="0px" viewBox="0 0 336.9 267" style="enable-background:new 0 0 336.9 267;" xml:space="preserve">
<style type="text/css">
	.st0{fill:#FFFFFF;fill-opacity:0;}
	.st1{fill:#59A9A9;}
	.st2{fill:#092348;}
	.st3{fill:#F7836E;}
</style>
<rect x="0.5" y="0.5" class="st0" width="335.9" height="266"/>
<g>
	<path class="st1" d="M118.6,154.2v-16.4c0-1.6-1.3-3-3-3H67.1c-1.6,0-3,1.3-3,3v16.4c0,1.6,1.3,3,3,3h48.5
		C117.3,157.1,118.6,155.8,118.6,154.2z"/>
	<path class="st1" d="M96.7,130.1h48.5c1.6,0,3-1.3,3-3v-16.4c0-1.6-1.3-3-3-3H96.7c-1.6,0-3,1.3-3,3v16.4
		C93.8,128.7,95.1,130.1,96.7,130.1z"/>
	<path class="st2" d="M177.8,154.2v-16.4c0-1.6-1.3-3-3-3h-48.5c-1.6,0-3,1.3-3,3v16.4c0,1.6,1.3,3,3,3h48.5
		C176.5,157.1,177.8,155.8,177.8,154.2z"/>
	<path class="st2" d="M156,130.1h31.8c2.6-3.8,5.6-7.4,8.8-10.6c3.4-3.4,6.1-7.2,7.7-11.8l-48.2,0.1c-1.6,0-3,1.3-3,3v16.4
		C153,128.7,154.3,130.1,156,130.1z"/>
	<path class="st2" d="M96.7,184.2h48.5c1.6,0,3-1.3,3-3v-16.4c0-1.6-1.3-3-3-3H96.7c-1.6,0-3,1.4-3,3v16.4
		C93.8,182.8,95.1,184.2,96.7,184.2z"/>
	<path class="st1" d="M156,184.2h34c-5.3-6.7-9.2-13.8-10.3-22.3H156c-1.6,0-3,1.3-3,3v16.4C153,182.8,154.3,184.2,156,184.2z"/>
	<path class="st2" d="M194.1,188.9l-8.5,0.1c-1.6,0-3,1.3-3,3v16.4c0,1.6,1.3,3,3,3h40.5l-9.8-5.1
		C209.7,203.5,201.1,196.6,194.1,188.9z"/>
	<path class="st1" d="M174.9,188.9h-48.5c-1.6,0-3,1.3-3,3v16.4c0,1.6,1.3,3,3,3h48.5c1.6,0,3-1.3,3-3v-16.4
		C177.8,190.3,176.5,188.9,174.9,188.9z"/>
	<path class="st3" d="M300.5,135.4c-1.9-7.4-4.7-14-8.4-20.1c-3.8-6.1-7.4-10.9-10.9-14.5c1.2,3.7,1.8,7.5,2,11.4
		c0.1,3.9-0.1,7.6-0.6,11c-0.6,3.4-1.4,6.3-2.6,8.9c-1.1,2.5-2.3,4.3-3.7,5.3c0.8-7.2,0.6-13.7-0.6-19.2c-1.1-5.5-2.8-10.5-5-14.9
		c-2.1-4.4-4.6-8.5-7.4-12.2s-5.5-7.4-8-11s-4.7-7.4-6.7-11.2c-1.9-3.8-3.1-8.2-3.5-13.1c-4.2,3.3-7.4,6.7-9.6,10.4
		c-2.2,3.7-3.8,7.4-5,11.2c-1.1,3.8-1.8,7.5-2.1,11.2c-0.4,3.7-0.6,7.2-0.9,10.6c-0.3,3.3-0.7,6.3-1.4,9.1s-1.9,5-3.7,6.8
		c0-3-0.6-5.8-1.7-8.1s-2.3-4.3-3.5-5.9c-1.6-1.8-3.3-3.3-5.1-4.7c0.4,4.7,0.2,8.8-0.8,12.1c-0.9,3.3-2.3,6.3-4,8.9s-3.7,5-5.9,7.2
		s-4.3,4.6-6.3,7.3s-3.8,5.7-5.5,9c-1.6,3.3-2.7,7.4-3.1,12.3c-0.6,5.3,0.1,10.2,1.9,14.7c4,13,23.5,28.8,30.3,31.6
		c-1.7-10.9-2.3-20.8,3.5-30.6c1.9-3.3,4.2-6.2,6.7-8.9s4.9-5.3,7.1-8c2.2-2.7,4.1-5.5,5.7-8.4c1.6-3,2.6-6.4,2.7-10.2
		c2.7,5.5,3.9,10.6,3.7,15.2c-0.2,4.6-1.1,9-2.8,13.2c-1.6,4.2-3.5,8.1-5.7,11.9c-2.2,3.8-3.7,7.7-4.7,11.5s-1.1,7.9-0.1,12.2
		c0.9,4.3,3.6,8.8,8.2,13.7c2.4-4,5.3-6.8,8.8-8.4c3.5-1.7,7.4-3.3,11.7-4.9s8.8-3.6,13.5-6c4.7-2.5,9.5-6.4,14.2-11.9
		c6-6.8,9.4-14.1,10.3-21.9C302.8,150.3,302.5,142.7,300.5,135.4z"/>
	<path class="st2" d="M115.6,188.9H67.1c-1.6,0-3,1.3-3,3v16.4c0,1.6,1.3,3,3,3h48.5c1.6,0,3-1.3,3-3v-16.4
		C118.6,190.3,117.3,188.9,115.6,188.9z"/>
	<path class="st1" d="M89,181.2v-16.4c0-1.6-1.3-3-3-3H37.5c-1.6,0-3,1.4-3,3v16.4c0,1.6,1.3,3,3,3H86C87.7,184.2,89,182.8,89,181.2
		z"/>
	<path class="st2" d="M37.5,130.1H86c1.6,0,3-1.3,3-3v-16.4c0-1.6-1.3-3-3-3H37.5c-1.6,0-3,1.3-3,3v16.4
		C34.5,128.7,35.9,130.1,37.5,130.1z"/>
</g>
</svg>
