<?xml version="1.0" encoding="utf-8"?>
<!-- Generator: Adobe Illustrator 25.2.3, SVG Export Plug-In . SVG Version: 6.00 Build 0)  -->
<svg version="1.1" id="Layer_1" xmlns="http://www.w3.org/2000/svg" xmlns:xlink="http://www.w3.org/1999/xlink" x="0px" y="0px" viewBox="0 0 336.9 267" style="enable-background:new 0 0 336.9 267;" xml:space="preserve">
<style type="text/css">
	.st0{fill:#FFFFFF;fill-opacity:0;}
	.st1{fill:#F7836E;}
	.st2{fill:#59A9A9;}
	.st3{fill:#092348;}
</style>
<rect x="0.5" y="0.5" class="st0" width="335.9" height="266"/>
<rect x="0.5" y="0.5" class="st0" width="335.9" height="266"/>
<g>
	<path class="st1" d="M284,165.2c-3.5-3.5-8.3-5.6-13.6-5.6h-204c-5.3,0-10.1,2.2-13.6,5.6c-3.5,3.5-5.6,8.3-5.6,13.6v31.5
		c0,5.3,2.2,10.1,5.7,13.6s8.3,5.6,13.6,5.6h204c5.3,0,10.1-2.2,13.6-5.6s5.6-8.3,5.6-13.6v-31.5C289.7,173.5,287.5,168.7,284,165.2
		z M283,210.4c0,3.5-1.4,6.5-3.7,8.8c-2.3,2.3-5.4,3.7-8.8,3.7h-204c-3.5,0-6.5-1.4-8.8-3.7s-3.7-5.4-3.7-8.8v-31.5
		c0-3.5,1.4-6.5,3.7-8.8c2.2-2.3,5.4-3.7,8.8-3.7h204c3.4,0,6.5,1.4,8.8,3.7s3.7,5.4,3.7,8.8V210.4z"/>
	<path class="st2" d="M269.1,205.8h-29.2c-1.9,0-3.4,1.5-3.4,3.4s1.5,3.4,3.4,3.4h29.2c1.9,0,3.4-1.5,3.4-3.4S271,205.8,269.1,205.8
		z"/>
	<path class="st2" d="M226,191.2h-6.4l4.5-4.5c1.3-1.3,1.3-3.5,0-4.8s-3.5-1.3-4.8,0l-4.5,4.5V180c0-1.9-1.5-3.4-3.4-3.4
		s-3.4,1.5-3.4,3.4v6.4l-4.5-4.5c-1.3-1.3-3.5-1.3-4.8,0s-1.3,3.5,0,4.8l4.5,4.5h-6.4c-1.9,0-3.4,1.5-3.4,3.4s1.5,3.4,3.4,3.4h6.4
		l-4.5,4.5c-1.3,1.3-1.3,3.5,0,4.8s3.5,1.3,4.8,0l4.5-4.5v6.4c0,1.9,1.5,3.4,3.4,3.4s3.4-1.5,3.4-3.4v-6.4l4.5,4.5
		c1.3,1.3,3.5,1.3,4.8,0s1.3-3.5,0-4.8l-4.5-4.5h6.4c1.9,0,3.4-1.5,3.4-3.4S227.9,191.2,226,191.2z"/>
	<path class="st2" d="M183,191.2h-6.4l4.5-4.5c1.3-1.3,1.3-3.5,0-4.8s-3.5-1.3-4.8,0l-4.5,4.5V180c0-1.9-1.5-3.4-3.4-3.4
		s-3.4,1.5-3.4,3.4v6.4l-4.5-4.5c-1.3-1.3-3.5-1.3-4.8,0s-1.3,3.5,0,4.8l4.5,4.5h-6.4c-1.9,0-3.4,1.5-3.4,3.4s1.5,3.4,3.4,3.4h6.4
		l-4.5,4.5c-1.3,1.3-1.3,3.5,0,4.8s3.5,1.3,4.8,0l4.5-4.5v6.4c0,1.9,1.5,3.4,3.4,3.4s3.4-1.5,3.4-3.4v-6.4l4.5,4.5
		c1.3,1.3,3.5,1.3,4.8,0s1.3-3.5,0-4.8l-4.5-4.5h6.4c1.9,0,3.4-1.5,3.4-3.4S184.9,191.2,183,191.2z"/>
	<path class="st2" d="M140,191.2h-6.4l4.5-4.5c1.3-1.3,1.3-3.5,0-4.8s-3.5-1.3-4.8,0l-4.5,4.5V180c0-1.9-1.5-3.4-3.4-3.4
		s-3.4,1.5-3.4,3.4v6.4l-4.5-4.5c-1.3-1.3-3.5-1.3-4.8,0s-1.3,3.5,0,4.8l4.5,4.5h-6.4c-1.9,0-3.4,1.5-3.4,3.4s1.5,3.4,3.4,3.4h6.4
		l-4.5,4.5c-1.3,1.3-1.3,3.5,0,4.8s3.5,1.3,4.8,0l4.5-4.5v6.4c0,1.9,1.5,3.4,3.4,3.4s3.4-1.5,3.4-3.4v-6.4l4.5,4.5
		c1.3,1.3,3.5,1.3,4.8,0s1.3-3.5,0-4.8l-4.5-4.5h6.4c1.9,0,3.4-1.5,3.4-3.4S141.9,191.2,140,191.2z"/>
	<path class="st2" d="M97.1,191.2h-6.4l4.5-4.5c1.3-1.3,1.3-3.5,0-4.8s-3.5-1.3-4.8,0l-4.5,4.5V180c0-1.9-1.5-3.4-3.4-3.4
		s-3.4,1.5-3.4,3.4v6.4l-4.5-4.5c-1.4-1.3-3.5-1.3-4.8,0s-1.3,3.5,0,4.8l4.5,4.5h-6.4c-1.9,0-3.4,1.5-3.4,3.4s1.5,3.4,3.4,3.4h6.4
		l-4.5,4.5c-1.3,1.3-1.3,3.5,0,4.8c1.4,1.3,3.5,1.3,4.8,0l4.5-4.5v6.4c0,1.9,1.5,3.4,3.4,3.4s3.4-1.5,3.4-3.4v-6.4l4.5,4.5
		c1.3,1.3,3.5,1.3,4.8,0s1.3-3.5,0-4.8l-4.5-4.5h6.4c1.9,0,3.4-1.5,3.4-3.4S99,191.2,97.1,191.2z"/>
</g>
<g>
	<path class="st3" d="M221.3,108.2h-2V88.4c0-14-5.8-26.7-14.9-35.9c-9.2-9.2-21.9-14.9-35.9-14.9c-14,0-26.7,5.8-35.9,14.9
		c-9.2,9.2-14.9,21.9-14.9,35.9v19.9h-2c-10.8,0-19.5,8.7-19.5,19.4v23.8H241v-23.8C240.8,117,232.1,108.2,221.3,108.2z M200,143.5
		h-63c-1.9,0-3.4-1.5-3.4-3.4s1.5-3.4,3.4-3.4h63c1.9,0,3.4,1.5,3.4,3.4S201.8,143.5,200,143.5z M203.6,108.3h-70.2V88.5
		c0-9.6,4-18.4,10.3-24.8c6.4-6.4,15.2-10.3,24.8-10.3s18.4,3.9,24.8,10.2c6.4,6.4,10.3,15.1,10.3,24.8L203.6,108.3L203.6,108.3z"/>
</g>
</svg>
