<?xml version="1.0" encoding="utf-8"?>
<!-- Generator: Adobe Illustrator 25.2.3, SVG Export Plug-In . SVG Version: 6.00 Build 0)  -->
<svg version="1.1" id="Layer_1" xmlns="http://www.w3.org/2000/svg" xmlns:xlink="http://www.w3.org/1999/xlink" x="0px" y="0px" viewBox="0 0 336.9 267" style="enable-background:new 0 0 336.9 267;" xml:space="preserve">
<style type="text/css">
	.st0{fill:#092348;fill-opacity:0;}
	.st1{fill:#092348;}
	.st2{fill:#59A9A9;}
	.st3{fill:#F7836E;}
</style>
<rect x="0.5" y="0.5" class="st0" width="335.9" height="266"/>
<g>
	<path class="st1" d="M259.2,178.9c-0.4-4.7-4.5-8.5-9.4-8.5h-0.2c-3,0-5.6,1.4-7.4,3.6c-0.1,0.1-0.1,0.2-0.2,0.3
		c-1.4-3.6-4.8-6.1-8.8-6.1H233c-3.1,0-5.9,1.5-7.6,3.8c-1.4-3.5-4.8-6-8.8-6h-0.2c-2.8,0-5.2,1.2-7,3.1v-30.2
		c0-5.2-4.3-9.4-9.4-9.4h-0.2c-5.2,0-9.4,4.3-9.4,9.4v42.8c-3.9-3.6-8.1-7-12.6-10c-6.1-4.1-13.4-2.7-15.8,2.4
		c0,0.1-0.1,0.1-0.1,0.2c-2.4,5-0.1,11.1,4.5,14.3c5.2,3.6,10,7.7,14.4,12.2c5.9,6.3,9.8,14,12.3,22.2c4,13.6,16.6,23.4,31.4,23.4
		h0.6c11.1,0,20.9-5.5,26.9-14c3.5-5,5.6-11,5.9-17.6l1.3-35.4L259.2,178.9L259.2,178.9z"/>
	<path class="st2" d="M224,98.4c-1.4,0-2.9,1.3-2.9,5.2h5.5C226.6,99.4,225.4,98.4,224,98.4z"/>
	<path class="st2" d="M256.8,98.4c-1.4,0-2.9,1.3-2.9,5.2h5.5C259.5,99.4,258.4,98.4,256.8,98.4z"/>
	<path class="st2" d="M263.9,53.1H107.1c-10.8,0-19.6,8.8-19.6,19.6v61.2c0,10.8,8.8,19.6,19.6,19.6H175c5.6,0,10.3-4.6,10.3-10.3
		v-4.4c0-8.1,6.6-14.6,14.6-14.6h0.2c8.1,0,14.6,6.6,14.6,14.6v4.4c0,5.6,4.6,10.3,10.3,10.3h38.9c10.8,0,19.6-8.8,19.6-19.6V72.7
		C283.5,61.9,274.7,53.1,263.9,53.1z M118,111.7c2,0,3.6-0.7,4.4-1c0.2,1.4,0.5,2.8,0.8,4.2c-0.7,0.2-2.8,1.3-6.1,1.3
		c-7,0-10.7-4.5-10.7-13.7s3.6-13.7,10.7-13.7c3.3,0,5.4,1,6.1,1.3c-0.3,1.4-0.6,2.8-0.8,4.2c-0.8-0.3-2.5-1-4.4-1
		c-4.5,0-5.9,3.1-5.9,9.3C112.1,108.6,113.4,111.7,118,111.7z M132.2,115.5h-5.4V86.8l5.4-0.8V115.5z M142.4,115.5H137V95.4l5.4-0.8
		V115.5z M139.8,92c-1.7,0-3.1-1.3-3.1-3.2c0-1.9,1.3-3.3,3.1-3.3s3.1,1.3,3.1,3.3C142.9,90.6,141.5,92,139.8,92z M154.8,116
		c-5.4,0-8.3-3.3-8.3-10.5c0-7.5,3.1-11,8.6-11c2.2,0,4.1,0.6,4.8,0.8l-0.6,4c-0.6-0.2-2-0.6-3.4-0.6c-2.7,0-3.9,2-3.9,6.7
		s1.4,6.4,3.7,6.4c1.7,0,3.1-0.9,3.7-1.1l1.3,3.4C159.9,114.5,157.8,116,154.8,116z M174.4,115.5l-5.5-9.8v9.8h-5.4V86.8l5.4-0.8v18
		l5.2-8.9h6l-6.6,9.1l7.3,11.4L174.4,115.5L174.4,115.5z M211.3,115.5h-5.5v-10.9h-7.2v10.9H193V89.2h5.6v11h7.2v-11h5.5V115.5z
		 M231.5,106.9H221c0.1,3.6,1.8,5,4.1,5c2.2,0,4-1,4.9-1.4l1,3.5c-0.6,0.4-3.1,2-7,2c-4.6,0-8.4-3-8.4-10.2c0-7.6,3.7-11.3,8.3-11.3
		s7.7,2.9,7.7,9.6C231.8,105.6,231.6,106.7,231.5,106.9z M246.4,99.6c-0.5-0.1-1.4-0.4-2.2-0.4c-1,0-1.8,0.6-3.1,2.2v14.2h-5.4V95
		h4.7l0.3,2.7h0.1c0.9-1.9,2.7-3.2,4.5-3.2c0.8,0,1.3,0.3,1.5,0.3L246.4,99.6z M264.4,106.9H254c0.1,3.6,1.8,5,4.1,5
		c2.2,0,4-1,4.9-1.4l1,3.5c-0.6,0.4-3.1,2-7,2c-4.6,0-8.4-3-8.4-10.2c0-7.6,3.7-11.3,8.3-11.3c4.6,0,7.7,2.9,7.7,9.6
		C264.6,105.6,264.4,106.7,264.4,106.9z"/>
	<g>
		<path class="st3" d="M96.6,47.4L96.6,47.4c-2.6,0-4.6-2-4.6-4.5v-17c0-2.5,2-4.5,4.5-4.5h0.1c2.5,0,4.5,2,4.5,4.5v16.9
			C101.1,45.3,99.1,47.4,96.6,47.4z"/>
		<path class="st3" d="M85.4,53.3L85.4,53.3c-1.8,1.8-4.7,1.8-6.5,0.1L63.2,37.6c-1.8-1.8-1.8-4.7,0-6.5l0.1-0.1
			c1.8-1.8,4.7-1.8,6.5,0l15.7,15.8C87.2,48.6,87.2,51.5,85.4,53.3z"/>
		<path class="st3" d="M79.4,64.4L79.4,64.4c0,2.6-2,4.6-4.5,4.6h-17c-2.5,0-4.5-2-4.5-4.5v-0.1c0-2.5,2-4.5,4.5-4.5h16.9
			C77.4,59.9,79.4,61.9,79.4,64.4z"/>
	</g>
</g>
</svg>
