<?xml version="1.0" encoding="utf-8"?>
<!-- Generator: Adobe Illustrator 25.2.3, SVG Export Plug-In . SVG Version: 6.00 Build 0)  -->
<svg version="1.1" id="Layer_1" xmlns="http://www.w3.org/2000/svg" xmlns:xlink="http://www.w3.org/1999/xlink" x="0px" y="0px" viewBox="0 0 336.9 267" style="enable-background:new 0 0 336.9 267;" xml:space="preserve">
<style type="text/css">
	.st0{fill:#FFFFFF;fill-opacity:0;}
	.st1{fill:none;}
	.st2{fill:#F7836E;}
	.st3{fill:#59A9A9;}
	.st4{fill:#0B2B2D;}
	.st5{fill:#092348;}
</style>
<rect x="0.5" y="0.5" class="st0" width="335.9" height="266"/>
<ellipse class="st1" cx="104.6" cy="56.4" rx="21.5" ry="21.3"/>
<path class="st1" d="M279.1,134.3c-4.2-3.1-8.1-6-12-8.6l2.9-5.1c1.2,0.9,2.4,1.7,3.6,2.5l-26.1-53.5l-52.2-1.3l-37.5,31.3
	l10.6,31.9c0.8-1,1.6-2.1,2.4-3.1l3.8,4.6c-1.3,1.7-2.7,3.5-4,5.3l21.9,67.2l39.9-36.6l61.3-4.5L279.1,134.3z M183.5,122.3l-3.7-4.5
	c2.5-2.7,5-5.1,7.6-7.4l3.1,5C188.1,117.5,185.8,119.9,183.5,122.3z M210.6,105c-3,0.4-5.8,1.3-8.4,2.5c-0.1,0.1-0.2,0.1-0.4,0.1
	l-3.1-5c0.3-0.1,0.7-0.3,1-0.5c3.5-1.6,7.3-2.7,11.4-3.1L210.6,105z M233.6,108c-3.2-1.1-6.3-1.9-9.2-2.5l0.5-5.9
	c3.6,0.6,7.5,1.6,11.5,3.1L233.6,108z M255.5,118.4c-3.2-1.9-6.3-3.6-9.2-5.1l2.8-5.2c3,1.5,6.2,3.3,9.4,5.2L255.5,118.4z"/>
<path class="st2" d="M64,184l1.9-5.5c-3.4-1-6.5-2.1-9.3-3.1l2.2,6.9C60.4,182.9,62.1,183.4,64,184z"/>
<path class="st3" d="M104.7,133.6c0,0,22-37.4,30.5-49.2c5.1-7.1,9-15.6,9-25c0-21.8-17.6-39.4-39.4-39.4S65.2,37.6,65.2,59.4
	c0,9.5,3.9,17.9,9,25C82.6,96.2,104.7,133.6,104.7,133.6z M104.6,35.1c11.9,0,21.5,9.5,21.5,21.3s-9.6,21.3-21.5,21.3
	s-21.5-9.5-21.5-21.3S92.7,35.1,104.6,35.1z"/>
<path class="st2" d="M136,180.8l-4.2-4.1c-2.4,2-4.9,3.8-7.4,5.2l1.5,5.8C129.4,185.9,132.8,183.5,136,180.8z"/>
<path class="st2" d="M87.3,189.4l1.5-5.7c-3.1-0.6-6.3-1.2-9.4-1.9l-1.9,5.6C80.8,188.1,84,188.8,87.3,189.4z"/>
<path class="st2" d="M198.7,102.6l3.1,5c0.2,0,0.3,0,0.4-0.1c2.6-1.2,5.4-2.1,8.4-2.5l0.5-6c-4.1,0.4-7.9,1.5-11.4,3.1
	C199.4,102.3,199,102.5,198.7,102.6z"/>
<path class="st2" d="M148.4,158.5c-2.2,3-4.6,5.8-6.9,8.5l4.2,4.1c2.4-2.7,4.7-5.5,6.9-8.4L148.4,158.5z"/>
<path class="st2" d="M179.8,117.8l3.7,4.5c2.3-2.4,4.6-4.8,7-6.9l-3.1-5C184.8,112.7,182.3,115.1,179.8,117.8z"/>
<path class="st2" d="M224.4,105.5c2.9,0.6,6,1.4,9.2,2.5l2.8-5.3c-4-1.5-7.9-2.5-11.5-3.1L224.4,105.5z"/>
<path class="st2" d="M102.6,185.4l-1.4,5.7c2.6,0.3,5.1,0.4,7.4,0.4c1.4,0,2.9,0,4.2-0.1l-1.5-5.7
	C108.6,185.9,105.6,185.8,102.6,185.4z"/>
<path class="st2" d="M246.3,113.3c2.9,1.5,6,3.2,9.2,5.1l3-5.1c-3.2-1.9-6.4-3.7-9.4-5.2L246.3,113.3z"/>
<path class="st4" d="M56.6,175.4l-0.2-0.5L56.6,175.4z"/>
<g>
	<path class="st1" d="M170.8,128.4c-0.8,1-1.6,2.1-2.4,3.1c0.8-1-1.3,3.4-0.5,2.4l1.5,3.9c-1.3,1.7,2.5-1.3,1.2,0.5
		c1.3-1.8,2.7-3.6,4-5.3L170.8,128.4z"/>
	<path class="st5" d="M56.4,174.9L40,120.8l33.8-21.4c-1.6-2.6-3.2-5-4.5-7L30.4,117l16.1,53l7.7-2.4L56.4,174.9z"/>
	<path class="st1" d="M281,138.3l-2-4c-4.2-3.1-8.1-6-11.9-8.6l2.9-5.1c1.2,0.9,2.4,1.7,3.6,2.5l-2.1-4.4l0,0l-24-49.1l-52.2-1.3
		l-37.5,31.3l10.6,31.9c0.8-1,1.6-2.1,2.4-3.1l3.8,4.6c-1.3,1.7-2.7,3.5-4,5.3l21.9,67.2l39.9-36.6l61.3-4.5L281,138.3z"/>
	<path class="st2" d="M273.6,123.1c-1.2-0.8-2.4-1.6-3.6-2.5l-2.9,5.1c3.9,2.6,7.8,5.5,11.9,8.6l-0.7-1.5L273.6,123.1z"/>
	<path class="st4" d="M279,134.3l2,4L279,134.3C279.1,134.3,279.1,134.3,279,134.3z"/>
	<polygon class="st4" points="273.6,123.1 273.6,123.1 271.5,118.7 271.5,118.7 	"/>
	<path class="st5" d="M253.2,62l-60.8-2.5l-40.9,34.2L140.1,92c-1.4,2.2-3.1,4.7-4.9,7.6l14.6,2.2l12.5,38.1c-1,1.5,3.7-3.7,2.7-2.3
		c-0.7,1,0.5,2.3-0.3,3.3l2.4,1c1-1.3-4.3,7.1-3.4,5.8c0.2-0.3,0.4-0.7,0.7-1l20.2,61.7l-60.4-3.1l-49.7,29.2l-12.1-39.7l-3.8-12.5
		c0,0,0,0,0.1,0l-2.2-6.9l0,0l-0.2-0.5l-2.3-7.3l-7.7,2.4l4.5,14.9l19,62.1l56.7-33.3l65.6,3.3l43.6-40l70.9-5L253.2,62z
		 M232.4,168.9l-39.9,36.6l-21.9-67.2c1.3-1.8-2.5,1.2-1.2-0.5l-1.5-3.9c-0.8,1,1.3-3.4,0.5-2.4l-10.6-31.9l37.5-31.3l52.2,1.3
		l24,49.1l2.1,4.4l0,0l4.7,9.6l0.7,1.5c0,0,0,0,0.1,0l1.9,4l12.7,26.1L232.4,168.9z"/>
</g>
<g>
	<path class="st2" d="M176.5,130.9l-4.8-4.5l-2.5,3.2l0,0l-5.5,7.2l-0.9,1.1c0,0,0,0,0,0.1l-2.3,3l-3.4,4.5l4.8,4.5l6.7-8.8
		c0,0,0,0,0,0.1l3.7-4.9l0,0l0.3-0.4L176.5,130.9z"/>
</g>
</svg>
