<?xml version="1.0" encoding="utf-8"?>
<!-- Generator: Adobe Illustrator 25.2.3, SVG Export Plug-In . SVG Version: 6.00 Build 0)  -->
<svg version="1.1" id="Layer_1" xmlns="http://www.w3.org/2000/svg" xmlns:xlink="http://www.w3.org/1999/xlink" x="0px" y="0px" viewBox="0 0 5195 5195" style="enable-background:new 0 0 5195 5195;" xml:space="preserve">
<style type="text/css">
	.st0{fill:#FFFFFF;}
	.st1{fill:none;stroke:#3E83A6;stroke-width:100;stroke-miterlimit:10;}
	.st2{fill:#F7836E;}
	.st3{fill:#092348;}
</style>
<circle class="st0" cx="2597.5" cy="2597.5" r="2500"/>
<g id="Layer_2_1_">
	<circle class="st1" cx="2597.5" cy="2597.5" r="2547.5"/>
</g>
<path class="st2" d="M3278.2,3001.2c-133.3-28.4-234.8-103.8-301.3-225.5c-46.7-85.5-63.9-181.8-51.4-286.6l203.5,33.3l-231.3-496.2
	l-103,346.8c-22.2,74.9-32,153.2-26.1,231.1c6.6,87.1,30.9,169.3,72.6,245.7c103.8,190,259.3,268.3,387.1,299.3
	c31.8-28.7,52.1-69.7,52.1-115.7c0-11.1-1.3-21.8-3.4-32.2L3278.2,3001.2L3278.2,3001.2z"/>
<path class="st2" d="M4146.2,1194.7c0-118.5-96.5-215-215-215s-215,96.4-215,215c0,91.3,57.3,169.5,137.8,200.6v1190.8
	c0,111-41,214.1-112.1,291v199.2c165.6-104.6,266.6-287.9,266.6-490.2V1395.3C4089,1364.2,4146.2,1286,4146.2,1194.7z
	 M3931.3,1134.2c33.4,0,60.5,27.1,60.5,60.5s-27.2,60.5-60.5,60.5c-33.4,0-60.5-27.2-60.5-60.5
	C3870.8,1161.3,3897.9,1134.2,3931.3,1134.2z"/>
<path class="st3" d="M3504.3,2142.3h-363.6l252.4,541.3l-286-46.8c6.7,27.6,16.9,53.9,30.7,79.1c7.3,13.3,15.1,25.5,23.4,37.2
	c4.8-0.2,9.5-0.8,14.3-0.8c155.3,0,281.1,125.9,281.1,281.1c0,155.3-125.9,281.1-281.1,281.1c-83.3,0-158-36.5-209.4-94.1
	c-36.3,24.8-80.2,39.3-127.5,39.3c-125,0-226.4-101.4-226.4-226.4c0-91.6,54.5-170.3,132.7-205.9c-26.9-68.2-43.6-139.8-49.2-214
	c-6.9-90.9,3.5-183.7,30.9-276l57.9-195.2h-1708c-90.4,0-164.4,74-164.4,164.4v1453.5c0,90.4,74,164.4,164.4,164.4h2427.8
	c90.4,0,164.4-74,164.4-164.4V2306.7C3668.7,2216.2,3594.7,2142.3,3504.3,2142.3z M1126.3,2466.7c0-65,53.2-118.2,118.2-118.2h15.9
	v125.3h-134.1V2466.7L1126.3,2466.7z M1126.3,2535.1h134.1v83.6h-134.1V2535.1z M1126.3,2679.9h134.1v83.6h-134.1V2679.9z
	 M1126.3,2824.6h134.1v125.3h-15.9c-65,0-118.2-53.2-118.2-118.2V2824.6L1126.3,2824.6z M1538.9,3718.3h-315.4
	c-53.4,0-97.2-43.7-97.2-97.2s43.7-97.2,97.2-97.2h315.4c53.5,0,97.2,43.7,97.2,97.2S1592.3,3718.3,1538.9,3718.3z M1727.6,2831.8
	c0,65-53.2,118.2-118.2,118.2h-15.9v-125.3h134L1727.6,2831.8L1727.6,2831.8z M1727.6,2763.4h-134v-83.6h134V2763.4z M1727.6,2618.6
	h-134V2535h134V2618.6z M1727.6,2473.8h-195.3v476.1h-210.8v-601.4h287.9c65,0,118.2,53.2,118.2,118.2L1727.6,2473.8L1727.6,2473.8z
	 M2145.8,3718.3h-315.4c-53.5,0-97.2-43.7-97.2-97.2s43.7-97.2,97.2-97.2h315.4c53.4,0,97.2,43.7,97.2,97.2
	S2199.2,3718.3,2145.8,3718.3z M2752.6,3718.3h-315.4c-53.4,0-97.2-43.7-97.2-97.2s43.7-97.2,97.2-97.2h315.4
	c53.4,0,97.2,43.7,97.2,97.2S2806,3718.3,2752.6,3718.3z M3359.4,3718.3H3044c-53.4,0-97.2-43.7-97.2-97.2s43.7-97.2,97.2-97.2
	h315.4c53.5,0,97.2,43.7,97.2,97.2S3412.9,3718.3,3359.4,3718.3z"/>
</svg>
