<?xml version="1.0" encoding="utf-8"?>
<!-- Generator: Adobe Illustrator 25.2.3, SVG Export Plug-In . SVG Version: 6.00 Build 0)  -->
<svg version="1.1" id="Layer_1" xmlns="http://www.w3.org/2000/svg" xmlns:xlink="http://www.w3.org/1999/xlink" x="0px" y="0px" viewBox="0 0 5195 5195" style="enable-background:new 0 0 5195 5195;" xml:space="preserve">
<style type="text/css">
	.st0{fill:#FFFFFF;}
	.st1{fill:none;stroke:#3E83A6;stroke-width:100;stroke-miterlimit:10;}
	.st2{fill:#F7836E;}
	.st3{fill:#092348;}
</style>
<circle class="st0" cx="2597.5" cy="2597.5" r="2500"/>
<g id="Layer_2_1_">
	<circle class="st1" cx="2597.5" cy="2597.5" r="2547.5"/>
</g>
<g id="Layer_1_1_">
	<g>
		<path class="st2" d="M3346.7,2122h-307v162.1h262.9c8.5,0,15.7,5.8,15.7,12.7V4121c0,6.9-7.2,12.7-15.7,12.7h-262.9v162.1h307
			c95.5,0,173.2-62.5,173.2-139.2V2261.3C3519.9,2184.5,3442.2,2122,3346.7,2122z"/>
		<path class="st2" d="M2863.8,1847.7l-1116.5,317.8c-29.4,8.4-55.3,30.5-69.6,56.5c-7.5,9.4-12,21.5-12,35.9v6.8v1888.5v6.8
			c0,14.4,4.4,26.5,12,35.9c14.3,26,40.2,48.1,69.6,56.5l1116.5,317.8c44.9,12.8,81.6-11,81.6-52.7v-721.6V2622.1v-721.6
			C2945.4,1858.7,2908.6,1834.9,2863.8,1847.7z M2644.1,3367.2c-84.4,0-152.9-70.9-152.9-158.3c0-87.4,68.4-158.3,152.9-158.3
			s152.9,70.9,152.9,158.3S2728.6,3367.2,2644.1,3367.2z"/>
		<g>
			<path class="st3" d="M3879,1629.8c-69.7-278.8-304.6-470.4-586.4-470.4c-64.2,0-126,10.7-184.1,30.5l-554,276.5l476.9-473.3
				c-103.9-170.8-286.4-278-494.6-278c-268.1,0-493.2,177.9-562.8,440.4c-147.7-14.7-317.3,36.2-460.5,152.4
				c-112.5,91.3-188.8,207-224.2,323.9c-315.2,17-579.7,294.9-579.7,636.4c0,0.3,0.1,0.8,0.1,1.1c0,0.6-0.1,1.2-0.1,1.8
				c0,316,226.7,577.6,510.3,628.3c52,167.9,159.7,331.7,321.6,463.9V2257.9c0-38.3,11.1-74.1,32.2-104.3
				c31.6-52.3,82-91.3,139.6-107.7l1116.5-317.8c60.9-17.3,122.8-7,169.7,28.5c44.6,33.7,70.2,86.1,70.2,143.8v97.3h277
				c164.1,0,297.5,118.2,297.5,263.6v996c112.8-78.9,196.8-197.7,234.2-345.6c323.1-9.3,597.8-292,597.8-640.9
				C4476.1,1921.8,4201.8,1639.4,3879,1629.8z M1063.2,2307.1c0,1.5-0.3,2.9-0.3,4.5c0,112.1,11.8,221.3,33.6,326.7
				c-113.4-77-190.7-210-190.7-361.8c0-0.4,0.1-0.8,0.1-1.2c0-0.3,0-0.6,0-0.8c0-159.8,85.4-298.9,208.5-373.7
				c-33.2,128.8-51.3,263.9-51.3,403.4C1063,2305.1,1063.2,2306.2,1063.2,2307.1z"/>
		</g>
	</g>
</g>
</svg>
