<?xml version="1.0" encoding="utf-8"?>
<!-- Generator: Adobe Illustrator 25.2.3, SVG Export Plug-In . SVG Version: 6.00 Build 0)  -->
<svg version="1.1" id="Layer_1" xmlns="http://www.w3.org/2000/svg" xmlns:xlink="http://www.w3.org/1999/xlink" x="0px" y="0px" viewBox="0 0 5195 5195" style="enable-background:new 0 0 5195 5195;" xml:space="preserve">
<style type="text/css">
	.st0{fill:#FFFFFF;}
	.st1{fill:none;stroke:#3E83A6;stroke-width:100;stroke-miterlimit:10;}
	.st2{fill:#F7836E;}
	.st3{fill:#092348;}
</style>
<circle class="st0" cx="2597.5" cy="2597.5" r="2500"/>
<g id="Layer_2_1_">
	<circle class="st1" cx="2597.5" cy="2597.5" r="2547.5"/>
</g>
<g id="Layer_1_1_">
	<g>
		<g>
			<path class="st2" d="M3549.2,2792.2c0-44.6,0-66.9,0-111.6c0-5.4-0.8-10.6-1.2-15.9c-0.4,5.1-0.4,10.3-1.1,15.3
				c-6.6,43.6-29.8,83.5-61.7,114.7c-7,6.9-10.5,10.3-17.5,17.2c-219.4,195.4-591.4,241.2-870.9,239.2
				c-285.8-2.1-641.4-45.6-870.8-239.2c-6.5-6.4-9.8-9.6-16.3-16c-36.2-35.4-60.2-81.9-64.3-131.1c-0.4,4.9-0.9,9.7-0.9,14.6
				c0,0.4,0,0.9,0,1.3c0,44.6,0,66.9,0,111.4v0.1l0,0c0,0.1,0,0.1,0,0.1c0,44.5,0,66.9,0,111.4c0,0.4,0,0.8,0,1.3
				c0.2,54.6,25.5,106.9,65.2,145.8c6.5,6.4,9.8,9.6,16.3,16c229.4,193.6,585.1,237.1,870.8,239.2c279.5,2,651.5-43.8,870.9-239.2
				c7-6.9,10.5-10.3,17.5-17.2c32-31.2,55.2-71.1,61.7-114.7c1.5-10.2,2.3-20.6,2.3-31.2C3549.2,2859.1,3549.2,2836.8,3549.2,2792.2
				L3549.2,2792.2z M2720.3,3231.9h-247c-29.5,0-53.4-23.9-53.4-53.4s23.9-53.4,53.4-53.4h247c29.5,0,53.4,23.9,53.4,53.4
				S2749.8,3231.9,2720.3,3231.9z"/>
			<path class="st2" d="M3549.2,2384.2c0-44.6,0-66.9,0-111.6c0-10.6-0.8-21-2.3-31.2c-6.6-43.6-29.8-83.5-61.7-114.7
				c-7-6.9-10.5-10.3-17.5-17.1c-219.4-195.4-591.4-241.2-870.9-239.2c-285.8,2.1-641.4,45.6-870.8,239.2c-6.5,6.4-9.8,9.6-16.3,16
				c-39.8,38.9-65.1,91.2-65.2,145.8c0,0.4,0,0.9,0,1.3c0,44.6,0,66.9,0,111.4v0.1l0,0c0,0.1,0,0.1,0,0.1c0,44.5,0,66.9,0,111.4
				c0,0.4,0,0.8,0,1.3c0.2,54.6,25.5,106.9,65.2,145.8c6.5,6.4,9.8,9.6,16.3,16c229.4,193.6,585.1,237.1,870.8,239.2
				c279.5,2,651.5-43.8,870.9-239.2c7-6.9,10.5-10.3,17.5-17.2c32-31.2,55.2-71.1,61.7-114.7c1.5-10.2,2.3-20.6,2.3-31.2
				C3549.2,2451.1,3549.2,2428.8,3549.2,2384.2L3549.2,2384.2z M2725.3,2769h-247c-29.5,0-53.4-23.9-53.4-53.4s23.9-53.4,53.4-53.4
				h247c29.5,0,53.4,23.9,53.4,53.4S2754.8,2769,2725.3,2769z M2596.8,2533.2c-512.9,0-857.2-193.8-862.9-297.8
				c5.7-104,350-297.8,862.9-297.8s857.1,193.8,862.9,297.8C3453.9,2339.4,3109.6,2533.2,2596.8,2533.2z"/>
		</g>
		<g>
			<g>
				<path class="st3" d="M2596.8,741.1c-144.8,0-262.1,117.3-262.1,262.1s117.4,262.1,262.1,262.1c144.8,0,262.1-117.3,262.1-262.1
					S2741.5,741.1,2596.8,741.1z M2596.8,1099.7c-53.3,0-96.5-43.2-96.5-96.5s43.2-96.5,96.5-96.5s96.5,43.2,96.5,96.5
					C2693.2,1056.5,2650,1099.7,2596.8,1099.7z"/>
				<path class="st3" d="M2596.8,1333c-37.2,0-67.3,30.2-67.3,67.3v101.3c0,37.2,30.1,67.3,67.3,67.3s67.3-30.2,67.3-67.3v-101.3
					C2664.1,1363.2,2634,1333,2596.8,1333z"/>
			</g>
			<g>
				<path class="st3" d="M1290.9,1282c-102.4,102.4-102.4,268.3,0,370.7s268.3,102.4,370.7,0s102.4-268.3,0-370.7
					C1559.2,1179.6,1393.3,1179.6,1290.9,1282z M1544.5,1535.5c-37.7,37.7-98.8,37.7-136.4,0c-37.7-37.7-37.7-98.8,0-136.4
					c37.7-37.7,98.8-37.7,136.4,0S1582.2,1497.8,1544.5,1535.5z"/>
				<path class="st3" d="M1709.5,1700.6c-26.3,26.3-26.3,68.9,0,95.2l71.6,71.6c26.3,26.3,68.9,26.3,95.2,0
					c26.3-26.3,26.3-68.9,0-95.2l-71.6-71.6C1778.4,1674.3,1735.8,1674.3,1709.5,1700.6z"/>
			</g>
			<g>
				<path class="st3" d="M750,2587.8c0,144.8,117.3,262.1,262.1,262.1s262.1-117.4,262.1-262.1s-117.3-262.1-262.1-262.1
					S750,2443.1,750,2587.8z M1108.6,2587.8c0,53.3-43.2,96.5-96.5,96.5s-96.5-43.2-96.5-96.5s43.2-96.5,96.5-96.5
					C1065.4,2491.3,1108.6,2534.5,1108.6,2587.8z"/>
				<path class="st3" d="M1342,2587.8c0,37.2,30.2,67.3,67.3,67.3h101.3c37.2,0,67.3-30.1,67.3-67.3s-30.2-67.3-67.3-67.3h-101.3
					C1372.1,2520.5,1342,2550.6,1342,2587.8z"/>
			</g>
			<g>
				<path class="st3" d="M1290.9,3893.7c102.4,102.4,268.3,102.4,370.7,0c102.4-102.4,102.4-268.3,0-370.7s-268.3-102.4-370.7,0
					S1188.6,3791.3,1290.9,3893.7z M1544.5,3640.1c37.7,37.7,37.7,98.8,0,136.4s-98.8,37.7-136.4,0c-37.7-37.7-37.7-98.8,0-136.4
					C1445.7,3602.4,1506.8,3602.4,1544.5,3640.1z"/>
				<path class="st3" d="M1709.5,3475.1c26.3,26.3,68.9,26.3,95.2,0l71.6-71.6c26.3-26.3,26.3-68.9,0-95.2s-68.9-26.3-95.2,0
					l-71.6,71.6C1683.2,3406.1,1683.2,3448.8,1709.5,3475.1z"/>
			</g>
			<g>
				<path class="st3" d="M2596.8,4434.6c144.8,0,262.1-117.4,262.1-262.1c0-144.8-117.4-262.1-262.1-262.1
					c-144.8,0-262.1,117.4-262.1,262.1C2334.6,4317.2,2452,4434.6,2596.8,4434.6z M2596.8,4076c53.3,0,96.5,43.2,96.5,96.5
					s-43.2,96.5-96.5,96.5s-96.5-43.2-96.5-96.5S2543.5,4076,2596.8,4076z"/>
				<path class="st3" d="M2596.8,3842.6c37.2,0,67.3-30.1,67.3-67.3V3674c0-37.2-30.1-67.3-67.3-67.3s-67.3,30.1-67.3,67.3v101.3
					C2529.4,3812.4,2559.6,3842.6,2596.8,3842.6z"/>
			</g>
			<g>
				<path class="st3" d="M3902.6,3893.7c102.4-102.4,102.4-268.3,0-370.7s-268.3-102.4-370.7,0s-102.4,268.3,0,370.7
					C3634.3,3996,3800.3,3996,3902.6,3893.7z M3649.1,3640.1c37.7-37.7,98.8-37.7,136.4,0s37.7,98.8,0,136.4s-98.8,37.7-136.4,0
					C3611.4,3738.9,3611.4,3677.8,3649.1,3640.1z"/>
				<path class="st3" d="M3484,3475.1c26.3-26.3,26.3-68.9,0-95.2l-71.6-71.6c-26.3-26.3-68.9-26.3-95.2,0s-26.3,68.9,0,95.2
					l71.6,71.6C3415.1,3501.4,3457.7,3501.4,3484,3475.1z"/>
			</g>
			<g>
				<path class="st3" d="M4443.5,2587.8c0-144.8-117.4-262.1-262.1-262.1c-144.8,0-262.1,117.4-262.1,262.1s117.4,262.1,262.1,262.1
					C4326.2,2849.9,4443.5,2732.6,4443.5,2587.8z M4084.9,2587.8c0-53.3,43.2-96.5,96.5-96.5s96.5,43.2,96.5,96.5
					s-43.2,96.5-96.5,96.5S4084.9,2641.1,4084.9,2587.8z"/>
				<path class="st3" d="M3851.5,2587.8c0-37.2-30.1-67.3-67.3-67.3h-101.3c-37.2,0-67.3,30.1-67.3,67.3s30.1,67.3,67.3,67.3h101.3
					C3821.4,2655.1,3851.5,2625,3851.5,2587.8z"/>
			</g>
			<g>
				<path class="st3" d="M3902.6,1282c-102.4-102.4-268.3-102.4-370.7,0s-102.4,268.3,0,370.7s268.3,102.4,370.7,0
					C4005,1550.3,4005,1384.3,3902.6,1282z M3649.1,1535.5c-37.7-37.7-37.7-98.8,0-136.4c37.7-37.7,98.8-37.7,136.4,0
					s37.7,98.8,0,136.4C3747.8,1573.2,3686.7,1573.2,3649.1,1535.5z"/>
				<path class="st3" d="M3484,1700.6c-26.3-26.3-68.9-26.3-95.2,0l-71.6,71.6c-26.3,26.3-26.3,68.9,0,95.2
					c26.3,26.3,68.9,26.3,95.2,0l71.6-71.6C3510.3,1769.5,3510.3,1726.8,3484,1700.6z"/>
			</g>
		</g>
	</g>
</g>
</svg>
