<?xml version="1.0" encoding="utf-8"?>
<!-- Generator: Adobe Illustrator 25.2.3, SVG Export Plug-In . SVG Version: 6.00 Build 0)  -->
<svg version="1.1" id="Layer_1" xmlns="http://www.w3.org/2000/svg" xmlns:xlink="http://www.w3.org/1999/xlink" x="0px" y="0px" viewBox="0 0 5195 5195" style="enable-background:new 0 0 5195 5195;" xml:space="preserve">
<style type="text/css">
	.st0{fill:#FFFFFF;}
	.st1{fill:none;stroke:#3E83A6;stroke-width:100;stroke-miterlimit:10;}
	.st2{fill:#092348;}
	.st3{fill:#F7836E;}
</style>
<circle class="st0" cx="2597.5" cy="2597.5" r="2500"/>
<g id="Layer_2_1_">
	<circle class="st1" cx="2597.5" cy="2597.5" r="2547.5"/>
</g>
<g id="Layer_1_1_">
	<g>
		<g>
			<path class="st2" d="M2408,2443.9c-80.9-156.2-19.9-348.3,136.3-429.2c0.5-0.2,1-0.4,1.5-0.8c-77.9,5.3-155.9,26.1-229.6,64.2
				c-286.5,148.6-398.5,501-250.1,787.7c141.6,273.4,468.7,384.9,747.3,265.9V2587C2662,2650.8,2485,2592.3,2408,2443.9z
				 M2584.9,1287.7c-1083.6,0-1927.5,1198.4-1962.9,1249.4l-70.3,101.5l73.5,99c35.4,47.8,879.5,1168.7,1959.8,1168.7
				c77.6,0,153.6-7.2,228.5-17.9V3357c-72.9,22-148.5,37.5-228.5,37.5c-439.8,0-797.5-357.7-797.5-797.4
				c0-439.9,357.7-797.6,797.5-797.6c80,0,155.6,15.4,228.5,37.5v-530.2C2738.4,1295.3,2662.5,1287.7,2584.9,1287.7z M1545.5,2597.1
				c0,317.6,146.3,598.8,371.3,789.4c-437.1-217.2-785.3-579.8-935-755c142.8-179.3,473.4-551.2,891.2-787.7
				C1672.4,2033.3,1545.5,2299.8,1545.5,2597.1z"/>
		</g>
		<path class="st3" d="M3719.3,2597.2c0-410.7-305.2-748.7-700.3-806.6v1613C3414.1,3345.8,3719.3,3007.9,3719.3,2597.2z"/>
		<path class="st3" d="M4148.3,2491.1l213.8-160.6l-10.6-48.6c-37.3-173.4-105.3-337.4-202.2-487.7l-27-41.8l-264.1,37.8l-150-149.9
			l37.9-264.2l-41.9-26.9c-149.7-96.5-313.8-164.6-487.9-202.2l-48.6-10.7L3019,1334.6V1591c505.3,59.1,900.3,484.9,900.3,1006.1
			s-395,947-900.3,1006.1v256.4l148.6,198.2l48.6-10.7c173.7-37.4,337.7-105.7,487.9-202.4l41.9-27.1l-37.9-264.2l149.7-149.7
			l264.4,38.1l27-42.3c96.9-150.3,164.9-314.3,202.2-487.5l10.6-48.6L4148.3,2703V2491.1z"/>
	</g>
</g>
</svg>
