<?xml version="1.0" encoding="utf-8"?>
<!-- Generator: Adobe Illustrator 25.2.3, SVG Export Plug-In . SVG Version: 6.00 Build 0)  -->
<svg version="1.1" id="Layer_1" xmlns="http://www.w3.org/2000/svg" xmlns:xlink="http://www.w3.org/1999/xlink" x="0px" y="0px" viewBox="0 0 5195 5195" style="enable-background:new 0 0 5195 5195;" xml:space="preserve">
<style type="text/css">
	.st0{fill:#FFFFFF;}
	.st1{fill:none;stroke:#3E83A6;stroke-width:100;stroke-miterlimit:10;}
	.st2{fill:#F7836E;}
	.st3{fill-rule:evenodd;clip-rule:evenodd;fill:#092348;}
</style>
<circle class="st0" cx="2597.5" cy="2597.5" r="2500"/>
<g id="Layer_2_1_">
	<circle class="st1" cx="2597.5" cy="2597.5" r="2547.5"/>
</g>
<g id="Layer_1_1_">
	<g>
		<path class="st2" d="M4190.7,3050.1c-80.1-257.6-255.9-468.9-495.2-594.8c-238.7-125.4-512.5-150.5-771.1-70.5
			c-257.8,80.4-469,256.3-594.8,495.5c-30.9,58.8-56.3,121.2-75.5,185.6l-1.4,5v0.1c-54.8,189.2-52.6,389.7,6.4,580.2
			c80.6,258.3,256.6,469.6,495.4,594.8c145.2,76.4,307.4,116.8,469.1,116.8c101.6,0,203.2-15.5,301.7-46.2
			c258.2-80.4,469.4-256.3,594.8-495.2C4245.9,3582,4271,3308.1,4190.7,3050.1z M3962.7,3566.5c-14.2,47.9-33.6,95.7-57.8,141.8
			c-95.5,181.7-256,315.2-451.9,375.8c-196.7,60.8-404.6,41.8-585.4-53.3c-181.6-95.6-315.2-256.2-376.1-452.3
			c-61.1-195.4-42.2-403.3,53.4-585.5c95.5-181.7,256-315.2,452-375.9c75.1-23.4,152.2-35.3,229.3-35.3
			c122.7,0,245.9,30.6,356.3,88.6c181.9,95.6,315.5,256.1,376.1,452C4003.9,3267.6,4005.4,3421.2,3962.7,3566.5z"/>
		<polygon class="st2" points="2407.9,3501.5 1693.2,3890 1940.3,4343.9 2654.4,3955.4 		"/>
		<path class="st3" d="M3275.6,2792.8c-16.8-1.5-33.4-6.1-50.3-6.1c-56.1,0-112.6,8.7-167.6,25.8
			c-143.8,44.8-261.5,142.7-331.7,276.1c-70,133.2-83.8,285.6-39.1,429.4c44.8,143.8,142.7,261.2,275.9,331.2
			c133.4,70.5,285.6,84.1,429.6,39.6c33.7-10.4,65.6-24.4,96.2-40.6C3522.7,3434.7,3421.1,3098.9,3275.6,2792.8z"/>
		<path class="st3" d="M3199.3,1808l-71.1-78.4c0,0-29.8-508.3-293.8-651.4c0,0-62.7-154.6-19.9-398.9c0,0-214,17.4-345,216.5
			c-636.3-186.2-1150.7,294.1-1215.7,918.8c0,0,195.8-90,329,17.2c24.2,19.5,45.5,44.6,63.9,71.5c69.9,102.1,74.6,228.1,83.6,351.5
			c17.2,235.9-12.2,443.1-128,688.3c-309.9,84.9-640.8,353-643.4,698.9c0,1.9,0,3.9,0,3.9v72.5H978h601.9l438.3-238.5
			c-17.2-158-6-317.8,39.4-471.7l0.3-1.1c22.8-76.8,53.1-151.4,90.3-222.2c110.4-210.1,276.7-378.2,478.7-492
			c-167.7-212.8-298.9-412.2-211.8-486.9c0,0,237.3,189.5,441.4,201.2c0,0,57.7,254.5,283.4,140.6c22.2-11.1,45.4-20.7,64.3-37
			C3296.5,2030.8,3303.4,1919.5,3199.3,1808z M2711,1568.1c-88.6,0-160.4-71.8-160.4-160.4s71.8-160.4,160.4-160.4
			c88.6,0,160.4,71.8,160.4,160.4S2799.6,1568.1,2711,1568.1z"/>
	</g>
</g>
</svg>
