<?xml version="1.0" encoding="utf-8"?>
<!-- Generator: Adobe Illustrator 25.3.1, SVG Export Plug-In . SVG Version: 6.00 Build 0)  -->










<svg version="1.1" id="Layer_1" xmlns="http://www.w3.org/2000/svg" xmlns:xlink="http://www.w3.org/1999/xlink" x="0px" y="0px" viewBox="0 0 688.5 978.5" style="enable-background:new 0 0 688.5 978.5;" xml:space="preserve">
<style type="text/css">
	.st0{fill:#989898;}
	.st1{fill:#CCCCCC;}
	.st2{fill:#FFFFFF;}
	.st3{fill:#C2C2C2;}
	.st4{fill:#D7D6D6;}
	.st5{fill:#DCDBDB;}
	.st6{fill:#333333;}
	.st7{fill:#555554;}
	.st8{fill:#818181;}
	.st9{fill:#E6E6E5;}
	.st10{fill:#B0B1B1;}
	.st11{fill:#434343;}
	.st12{opacity:0.8;fill:#434343;}
	.st13{opacity:0.8;fill:#555554;}
</style>
<metadata>
	<sfw xmlns="&amp;ns_sfw;">
		<slices/>
		<sliceSourceBounds bottomLeftOrigin="true" height="978.5" width="688.5" x="158.2" y="-983.2"/>
	</sfw>
</metadata>
<switch>
	
	<g>
		<g>
			<g>
				<g>
					<path class="st0" d="M158.3,851.5l71.6-41.3c14.2-8.2,23-23.4,23-39.9v-76.5l169.5,97.9v73.5c0,18.3-9.8,35.2-25.6,44.3
						l-86.6,50c-18.4,10.6-41.1,10.6-59.6,0l-3.4-2v-7.9L158.3,851.5z"/>
					<path class="st1" d="M134.5,865.2l4.6-2.6l19.3-11.2l89,98.2v7.9L139,895l-4.6-2.6C124,886.3,124,871.3,134.5,865.2z"/>
					<g>
						<path class="st2" d="M134.5,857.4l77.4-44.7l169.5,97.9l-71,41c-18.4,10.6-41.1,10.6-59.6,0l-116.3-67.2
							C124,878.5,124,863.4,134.5,857.4z"/>
						<path class="st3" d="M224.9,805.2c14.2-8.2,23-23.4,23-39.9v-76.5l169.5,97.9v76.5c0,16.4-8.8,31.6-23,39.9l-13.1,7.5
							l-169.5-97.9L224.9,805.2z"/>
					</g>
				</g>
				<g>
					<path class="st4" d="M18.5,19l-5.9-5.2l16.3-9.3c1.1-0.7,2.2-1.4,3.4-2l0,0c6.2-3,13.6-3.5,20.5-0.7L17.9,22
						C18,21,18.2,20,18.5,19z"/>
					<path class="st1" d="M416.5,500.4l247.6-143c11.2,11,19,25.1,22.4,40.5L462.8,527.1L416.5,500.4z"/>
					<path class="st0" d="M688.5,942.4c0,10.1-5.5,18.2-13.2,22.5l-17.2,9.9l-3.1-7.7c-1.8-0.6-3.5-1.3-5.2-2.3l-187-437.8
						l223.7-129.2c1.3,5.9,2,11.9,2,18V942.4z"/>
					<path class="st5" d="M58.8,624.1c-25.5-14.7-41.2-41.9-41.2-71.3l0-527c0-1.3,0.1-2.6,0.3-3.8l35-20.2c1.2,0.5,2.3,1,3.5,1.7
						l591.1,341.2c6.2,3.6,11.8,7.9,16.7,12.7l-247.6,143L58.8,624.1z"/>
				</g>
				<path class="st2" d="M508,568.7L42.7,630.4c-25.5-14.7-41.2-41.9-41.2-71.3l0-527c0-19.9,21.5-32.3,38.8-22.4l593.1,342.4
					c14.9,8.6,26.4,21.4,33.4,36.4l-197,113.8L508,568.7z"/>
				<path class="st2" d="M674.5,949.9c0,19.9-21.5,32.3-38.7,22.4L508,568.7l-38.3-66.3l197-113.8c5,10.7,7.7,22.6,7.7,34.8V949.9z"/>
				<g>
					<path class="st2" d="M632.2,975l-591-340.7C15.7,619.6,0,592.4,0,563v-41.2l670.9,387.4l0,43.4
						C670.9,972.5,649.4,984.9,632.2,975z"/>
					<path class="st6" d="M639.6,856.9V400.7L404.3,264.8l13.5-32.4l212,122.4c25.4,14.7,41.1,41.8,41.1,71.2l0,449.3v33.8
						L239.3,659.9l11.5-27.5L639.6,856.9z"/>
					<path class="st7" d="M0,37.9L0,36C0,16.1,21.5,3.7,38.8,13.7l379,218.8l-13.5,32.4L27.7,47.4v456.2l223.1,128.8l-11.5,27.5
						L0,521.8L0,37.9z"/>
				</g>
				
					<ellipse transform="matrix(0.8105 -0.5858 0.5858 0.8105 -376.3797 312.3876)" class="st8" cx="294.6" cy="737.8" rx="12.8" ry="18.7"/>
			</g>
			<g>
				<g>
					<g>
						<g>
							<polygon class="st9" points="639.6,856.9 395.5,716 639.6,808 							"/>
							<path class="st0" d="M414.2,501.5l225.3,129.7V750l-265-248.2C386.7,494.7,401.9,494.5,414.2,501.5z"/>
						</g>
						<path class="st2" d="M415.4,490.7l224.2,129.1v192.8L375.7,491C387.9,483.8,403,483.7,415.4,490.7z"/>
						<polygon class="st2" points="639.6,802.9 639.6,856.9 250.7,632.4 192.3,598.7 222.2,581.1 						"/>
						<path class="st9" d="M414.2,487.4l225.4,129.8v239.7L250.7,632.4l-61.9-35.7l185.6-109C386.7,480.5,401.8,480.4,414.2,487.4z"/>
					</g>
					<g>
						<g>
							<g>
								<g>
									<path class="st10" d="M622.6,708.3l17-8.8v24.3l-15-8.6C621.9,713.7,622.6,711.3,622.6,708.3z"/>
								</g>
								<path class="st7" d="M624.6,704.4l15-8.6V720l-15-8.6C621.9,709.8,621.9,705.9,624.6,704.4z"/>
							</g>
							<g>
								<g>
									<path class="st11" d="M619.1,677l18.8,9.7c0,2.6,0.7,5.4-2,6.9l-16.9,9.7c-2.4,1.4-5.1,2.1-7.8,2V675
										C613.9,675,616.7,675.6,619.1,677z"/>
									<path class="st10" d="M604.2,677c2.2-1.3,4.6-1.9,7.1-2v30.4c-2.5-0.1-4.9-0.7-7.1-2l-16.9-9.7c-2.7-1.5-2-4-2-6.9
										L604.2,677z"/>
								</g>
								<path class="st7" d="M587.3,682.9l16.9-9.7c4.6-2.7,10.3-2.7,14.9,0l16.9,9.7c2.7,1.5,2.7,5.4,0,6.9l-16.9,9.7
									c-4.6,2.7-10.3,2.7-14.9,0l-16.9-9.7C584.6,688.3,584.6,684.4,587.3,682.9z"/>
								<path class="st0" d="M605.3,685.7l4.4-2.6c1.2-0.7,2.7-0.7,3.9,0l4.4,2.6c0.7,0.4,0.7,1.4,0,1.8l-4.4,2.6
									c-1.2,0.7-2.7,0.7-3.9,0l-4.4-2.6C604.6,687.1,604.6,686.1,605.3,685.7z"/>
							</g>
							<g>
								<g>
									<path class="st11" d="M581.8,655.5l18.8,9.7c0,2.6,0.7,5.4-2,6.9l-16.9,9.7c-2.4,1.4-5.1,2.1-7.8,2v-30.4
										C576.7,653.5,579.4,654.1,581.8,655.5z"/>
									<path class="st10" d="M566.9,655.5c2.2-1.3,4.6-1.9,7.1-2v30.4c-2.5-0.1-4.9-0.7-7.1-2l-16.9-9.7c-2.7-1.5-2-4-2-6.9
										L566.9,655.5z"/>
								</g>
								<path class="st7" d="M550,661.4l16.9-9.7c4.6-2.7,10.3-2.7,14.9,0l16.9,9.7c2.7,1.5,2.7,5.4,0,6.9l-16.9,9.7
									c-4.6,2.7-10.3,2.7-14.9,0l-16.9-9.7C547.4,666.8,547.4,662.9,550,661.4z"/>
								<path class="st0" d="M568,664.2l4.4-2.6c1.2-0.7,2.7-0.7,3.9,0l4.4,2.6c0.7,0.4,0.7,1.4,0,1.8l-4.4,2.6
									c-1.2,0.7-2.7,0.7-3.9,0L568,666C567.3,665.6,567.3,664.6,568,664.2z"/>
							</g>
							<g>
								<g>
									<path class="st11" d="M544.5,634l18.8,9.7c0,2.6,0.7,5.4-2,6.9l-16.9,9.7c-2.4,1.4-5.1,2.1-7.8,2V632
										C539.4,631.9,542.1,632.6,544.5,634z"/>
									<path class="st10" d="M529.6,634c2.2-1.3,4.6-1.9,7.1-2v30.4c-2.5-0.1-4.9-0.7-7.1-2l-16.9-9.7c-2.7-1.5-2-4-2-6.9
										L529.6,634z"/>
								</g>
								<path class="st7" d="M512.7,639.8l16.9-9.7c4.6-2.7,10.3-2.7,14.9,0l16.9,9.7c2.7,1.5,2.7,5.4,0,6.9l-16.9,9.7
									c-4.6,2.7-10.3,2.7-14.9,0l-16.9-9.7C510.1,645.2,510.1,641.4,512.7,639.8z"/>
								<path class="st0" d="M530.8,642.7l4.4-2.6c1.2-0.7,2.7-0.7,3.9,0l4.4,2.6c0.7,0.4,0.7,1.4,0,1.8l-4.4,2.6
									c-1.2,0.7-2.7,0.7-3.9,0l-4.4-2.6C530.1,644.1,530.1,643.1,530.8,642.7z"/>
							</g>
							<g>
								<g>
									<path class="st11" d="M507.2,612.5l18.8,9.7c0,2.6,0.7,5.4-2,6.9l-16.9,9.7c-2.4,1.4-5.1,2.1-7.8,2v-30.4
										C502.1,610.4,504.8,611.1,507.2,612.5z"/>
									<path class="st10" d="M492.3,612.5c2.2-1.3,4.6-1.9,7.1-2v30.4c-2.5-0.1-4.9-0.7-7.1-2l-16.9-9.7c-2.7-1.5-2-4-2-6.9
										L492.3,612.5z"/>
								</g>
								<path class="st7" d="M475.5,618.3l16.9-9.7c4.6-2.7,10.3-2.7,14.9,0l16.9,9.7c2.7,1.5,2.7,5.4,0,6.9l-16.9,9.7
									c-4.6,2.7-10.3,2.7-14.9,0l-16.9-9.7C472.8,623.7,472.8,619.9,475.5,618.3z"/>
								<path class="st2" d="M493.5,621.2l4.4-2.6c1.2-0.7,2.7-0.7,3.9,0l4.4,2.6c0.7,0.4,0.7,1.4,0,1.8l-4.4,2.6
									c-1.2,0.7-2.7,0.7-3.9,0l-4.4-2.6C492.8,622.6,492.8,621.6,493.5,621.2z"/>
							</g>
							<g>
								<g>
									<path class="st11" d="M470,591l18.8,9.7c0,2.6,0.7,5.4-2,6.9l-16.9,9.7c-2.4,1.4-5.1,2.1-7.8,2V589
										C464.8,588.9,467.5,589.6,470,591z"/>
									<path class="st10" d="M455.1,591c2.2-1.3,4.6-1.9,7.1-2v30.4c-2.5-0.1-4.9-0.7-7.1-2l-16.9-9.7c-2.7-1.5-2-4-2-6.9
										L455.1,591z"/>
								</g>
								<path class="st7" d="M438.2,596.8l16.9-9.7c4.6-2.7,10.3-2.7,14.9,0l16.9,9.7c2.7,1.5,2.7,5.4,0,6.9l-16.9,9.7
									c-4.6,2.7-10.3,2.7-14.9,0l-16.9-9.7C435.5,602.2,435.5,598.3,438.2,596.8z"/>
								<path class="st0" d="M456.2,599.6l4.4-2.6c1.2-0.7,2.7-0.7,3.9,0l4.4,2.6c0.7,0.4,0.7,1.4,0,1.8l-4.4,2.6
									c-1.2,0.7-2.7,0.7-3.9,0l-4.4-2.6C455.5,601.1,455.5,600,456.2,599.6z"/>
							</g>
							<g>
								<g>
									<path class="st11" d="M432.7,569.4l18.8,9.7c0,2.6,0.7,5.4-2,6.9l-16.9,9.7c-2.4,1.4-5.1,2.1-7.8,2v-30.4
										C427.6,567.4,430.3,568,432.7,569.4z"/>
									<path class="st10" d="M417.8,569.4c2.2-1.3,4.6-1.9,7.1-2v30.4c-2.5-0.1-4.9-0.7-7.1-2l-16.9-9.7c-2.7-1.5-2-4-2-6.9
										L417.8,569.4z"/>
								</g>
								<path class="st7" d="M400.9,575.3l16.9-9.7c4.6-2.7,10.3-2.7,14.9,0l16.9,9.7c2.7,1.5,2.7,5.4,0,6.9l-16.9,9.7
									c-4.6,2.7-10.3,2.7-14.9,0l-16.9-9.7C398.3,580.7,398.3,576.8,400.9,575.3z"/>
								<path class="st0" d="M418.9,578.1l4.4-2.6c1.2-0.7,2.7-0.7,3.9,0l4.4,2.6c0.7,0.4,0.7,1.4,0,1.8l-4.4,2.6
									c-1.2,0.7-2.7,0.7-3.9,0l-4.4-2.6C418.2,579.5,418.2,578.5,418.9,578.1z"/>
							</g>
							<g>
								<g>
									<path class="st11" d="M358.1,526.4l55.7,31c0,2.6,0.7,5.4-2,6.9l-16.9,9.7c-2.4,1.4-5.1,2.1-7.8,2l-36.8-51.6
										C353,524.3,355.7,525,358.1,526.4z"/>
									<path class="st10" d="M343.2,526.4c2.2-1.3,4.6-1.9,7.1-2l37.2,39l-0.4,12.7c-2.5-0.1-4.9-0.7-7.1-2l-53.7-31
										c-2.7-1.5-2-4-2-6.9L343.2,526.4z"/>
								</g>
								<path class="st7" d="M326.4,532.2l16.9-9.7c4.6-2.7,10.3-2.7,14.9,0l53.7,31c2.7,1.5,2.7,5.4,0,6.9l-16.9,9.7
									c-4.6,2.7-10.3,2.7-14.9,0l-53.7-31C323.7,537.6,323.7,533.8,326.4,532.2z"/>
								<path class="st0" d="M344.4,535.1l4.4-2.6c1.2-0.7,2.7-0.7,3.9,0l4.4,2.6c0.7,0.4,0.7,1.4,0,1.8l-4.4,2.6
									c-1.2,0.7-2.7,0.7-3.9,0l-4.4-2.6C343.7,536.5,343.7,535.5,344.4,535.1z"/>
							</g>
						</g>
						<g>
							<g>
								<g>
									<path class="st11" d="M635.8,762.9v-30.4c1.3,0,2.5,0.1,3.8,0.4v29.6C638.3,762.8,637,762.9,635.8,762.9z"/>
									<path class="st10" d="M628.7,734.5c2.2-1.3,4.6-1.9,7.1-2v30.4c-2.5-0.1-4.9-0.7-7.1-2l-16.9-9.7c-2.7-1.5-2-4-2-6.9
										L628.7,734.5z"/>
								</g>
								<path class="st7" d="M628.7,757l-16.9-9.7c-2.7-1.5-2.7-5.4,0-6.9l16.9-9.7c3.3-1.9,7.2-2.5,10.9-1.6v29.6
									C635.9,759.5,632,759,628.7,757z"/>
							</g>
							<g>
								<g>
									<path class="st11" d="M606.3,713l18.8,9.7c0,2.6,0.7,5.4-2,6.9l-16.9,9.7c-2.4,1.4-5.1,2.1-7.8,2V711
										C601.2,710.9,603.9,711.6,606.3,713z"/>
									<path class="st10" d="M591.4,713c2.2-1.3,4.6-1.9,7.1-2v30.4c-2.5-0.1-4.9-0.7-7.1-2l-16.9-9.7c-2.7-1.5-2-4-2-6.9
										L591.4,713z"/>
								</g>
								<path class="st7" d="M574.5,718.8l16.9-9.7c4.6-2.7,10.3-2.7,14.9,0l16.9,9.7c2.7,1.5,2.7,5.4,0,6.9l-16.9,9.7
									c-4.6,2.7-10.3,2.7-14.9,0l-16.9-9.7C571.9,724.2,571.9,720.4,574.5,718.8z"/>
								<path class="st0" d="M592.5,721.7l4.4-2.6c1.2-0.7,2.7-0.7,3.9,0l4.4,2.6c0.7,0.4,0.7,1.4,0,1.8l-4.4,2.6
									c-1.2,0.7-2.7,0.7-3.9,0l-4.4-2.6C591.8,723.1,591.8,722.1,592.5,721.7z"/>
							</g>
							<g>
								<g>
									<path class="st11" d="M569,691.5l18.8,9.7c0,2.6,0.7,5.4-2,6.9l-16.9,9.7c-2.4,1.4-5.1,2.1-7.8,2v-30.4
										C563.9,689.4,566.6,690.1,569,691.5z"/>
									<path class="st10" d="M554.1,691.5c2.2-1.3,4.6-1.9,7.1-2v30.4c-2.5-0.1-4.9-0.7-7.1-2l-16.9-9.7c-2.7-1.5-2-4-2-6.9
										L554.1,691.5z"/>
								</g>
								<path class="st7" d="M537.3,697.3l16.9-9.7c4.6-2.7,10.3-2.7,14.9,0l16.9,9.7c2.7,1.5,2.7,5.4,0,6.9L569,714
									c-4.6,2.7-10.3,2.7-14.9,0l-16.9-9.7C534.6,702.7,534.6,698.9,537.3,697.3z"/>
								<path class="st0" d="M555.3,700.2l4.4-2.6c1.2-0.7,2.7-0.7,3.9,0l4.4,2.6c0.7,0.4,0.7,1.4,0,1.8l-4.4,2.6
									c-1.2,0.7-2.7,0.7-3.9,0l-4.4-2.6C554.6,701.6,554.6,700.6,555.3,700.2z"/>
							</g>
							<g>
								<g>
									<path class="st11" d="M531.7,670l18.8,9.7c0,2.6,0.7,5.4-2,6.9l-16.9,9.7c-2.4,1.4-5.1,2.1-7.8,2V668
										C526.6,667.9,529.3,668.6,531.7,670z"/>
									<path class="st10" d="M516.8,670c2.2-1.3,4.6-1.9,7.1-2v30.4c-2.5-0.1-4.9-0.7-7.1-2l-16.9-9.7c-2.7-1.5-2-4-2-6.9
										L516.8,670z"/>
								</g>
								<path class="st7" d="M500,675.8l16.9-9.7c4.6-2.7,10.3-2.7,14.9,0l16.9,9.7c2.7,1.5,2.7,5.4,0,6.9l-16.9,9.7
									c-4.6,2.7-10.3,2.7-14.9,0l-16.9-9.7C497.3,681.2,497.3,677.3,500,675.8z"/>
								<path class="st0" d="M518,678.6l4.4-2.6c1.2-0.7,2.7-0.7,3.9,0l4.4,2.6c0.7,0.4,0.7,1.4,0,1.8l-4.4,2.6
									c-1.2,0.7-2.7,0.7-3.9,0l-4.4-2.6C517.3,680.1,517.3,679,518,678.6z"/>
							</g>
							<g>
								<g>
									<path class="st11" d="M494.5,648.4l18.8,9.7c0,2.6,0.7,5.4-2,6.9l-16.9,9.7c-2.4,1.4-5.1,2.1-7.8,2v-30.4
										C489.3,646.4,492.1,647,494.5,648.4z"/>
									<path class="st10" d="M479.6,648.4c2.2-1.3,4.6-1.9,7.1-2v30.4c-2.5-0.1-4.9-0.7-7.1-2l-16.9-9.7c-2.7-1.5-2-4-2-6.9
										L479.6,648.4z"/>
								</g>
								<path class="st7" d="M462.7,654.3l16.9-9.7c4.6-2.7,10.3-2.7,14.9,0l16.9,9.7c2.7,1.5,2.7,5.4,0,6.9l-16.9,9.7
									c-4.6,2.7-10.3,2.7-14.9,0l-16.9-9.7C460,659.7,460,655.8,462.7,654.3z"/>
								<path class="st0" d="M480.7,657.1l4.4-2.6c1.2-0.7,2.7-0.7,3.9,0l4.4,2.6c0.7,0.4,0.7,1.4,0,1.8l-4.4,2.6
									c-1.2,0.7-2.7,0.7-3.9,0l-4.4-2.6C480,658.5,480,657.5,480.7,657.1z"/>
							</g>
							<g>
								<g>
									<path class="st11" d="M457.2,626.9l18.8,9.7c0,2.6,0.7,5.4-2,6.9l-16.9,9.7c-2.4,1.4-5.1,2.1-7.8,2v-30.4
										C452.1,624.9,454.8,625.5,457.2,626.9z"/>
									<path class="st10" d="M442.3,626.9c2.2-1.3,4.6-1.9,7.1-2v30.4c-2.5-0.1-4.9-0.7-7.1-2l-16.9-9.7c-2.7-1.5-2-4-2-6.9
										L442.3,626.9z"/>
								</g>
								<path class="st7" d="M425.4,632.8l16.9-9.7c4.6-2.7,10.3-2.7,14.9,0l16.9,9.7c2.7,1.5,2.7,5.4,0,6.9l-16.9,9.7
									c-4.6,2.7-10.3,2.7-14.9,0l-16.9-9.7C422.8,638.1,422.8,634.3,425.4,632.8z"/>
							</g>
							<g>
								<g>
									<path class="st11" d="M419.9,605.4l18.8,9.7c0,2.6,0.7,5.4-2,6.9l-16.9,9.7c-2.4,1.4-5.1,2.1-7.8,2v-30.4
										C414.8,603.3,417.5,604,419.9,605.4z"/>
									<path class="st10" d="M405,605.4c2.2-1.3,4.6-1.9,7.1-2v30.4c-2.5-0.1-4.9-0.7-7.1-2l-16.9-9.7c-2.7-1.5-2-4-2-6.9
										L405,605.4z"/>
								</g>
								<path class="st7" d="M388.1,611.2l16.9-9.7c4.6-2.7,10.3-2.7,14.9,0l16.9,9.7c2.7,1.5,2.7,5.4,0,6.9l-16.9,9.7
									c-4.6,2.7-10.3,2.7-14.9,0l-16.9-9.7C385.5,616.6,385.5,612.8,388.1,611.2z"/>
								<path class="st0" d="M406.2,614.1l4.4-2.6c1.2-0.7,2.7-0.7,3.9,0l4.4,2.6c0.7,0.4,0.7,1.4,0,1.8l-4.4,2.6
									c-1.2,0.7-2.7,0.7-3.9,0l-4.4-2.6C405.5,615.5,405.5,614.5,406.2,614.1z"/>
							</g>
							<g>
								<g>
									<path class="st11" d="M382.6,583.9l18.8,9.7c0,2.6,0.7,5.4-2,6.9l-16.9,9.7c-2.4,1.4-5.1,2.1-7.8,2v-30.4
										C377.5,581.8,380.2,582.5,382.6,583.9z"/>
									<path class="st10" d="M367.7,583.9c2.2-1.3,4.6-1.9,7.1-2v30.4c-2.5-0.1-4.9-0.7-7.1-2l-16.9-9.7c-2.7-1.5-2-4-2-6.9
										L367.7,583.9z"/>
								</g>
								<path class="st7" d="M350.9,589.7l16.9-9.7c4.6-2.7,10.3-2.7,14.9,0l16.9,9.7c2.7,1.5,2.7,5.4,0,6.9l-16.9,9.7
									c-4.6,2.7-10.3,2.7-14.9,0l-16.9-9.7C348.2,595.1,348.2,591.3,350.9,589.7z"/>
								<path class="st0" d="M368.9,592.6l4.4-2.6c1.2-0.7,2.7-0.7,3.9,0l4.4,2.6c0.7,0.4,0.7,1.4,0,1.8l-4.4,2.6
									c-1.2,0.7-2.7,0.7-3.9,0l-4.4-2.6C368.2,594,368.2,593,368.9,592.6z"/>
							</g>
							<g>
								<g>
									<path class="st11" d="M320.6,548.1l43.2,23.8c0,2.6,0.7,5.4-2,6.9l-16.9,9.7c-2.4,1.4-5.1,2.1-7.8,2l-24.3-44.4
										C315.5,546,318.2,546.7,320.6,548.1z"/>
									<path class="st10" d="M305.7,548.1c2.2-1.3,4.6-1.9,7.1-2l24.3,34v10.4c-2.5-0.1-4.9-0.7-7.1-2l-41.2-23.8
										c-2.7-1.5-2-4-2-6.9L305.7,548.1z"/>
								</g>
								<path class="st7" d="M288.8,553.9l16.9-9.7c4.6-2.7,10.3-2.7,14.9,0l41.2,23.8c2.7,1.5,2.7,5.4,0,6.9l-16.9,9.7
									c-4.6,2.7-10.3,2.7-14.9,0l-41.2-23.8C286.2,559.3,286.2,555.4,288.8,553.9z"/>
								<path class="st0" d="M306.9,556.7l4.4-2.6c1.2-0.7,2.7-0.7,3.9,0l4.4,2.6c0.7,0.4,0.7,1.4,0,1.8l-4.4,2.6
									c-1.2,0.7-2.7,0.7-3.9,0l-4.4-2.6C306.2,558.2,306.2,557.1,306.9,556.7z"/>
							</g>
						</g>
						<g>
							<g>
								<g>
									<path class="st11" d="M635.2,806.3v-30.4c1.5,0,3,0.2,4.4,0.6v29.3C638.1,806.1,636.6,806.3,635.2,806.3z"/>
									<path class="st10" d="M628.1,777.9c2.2-1.3,4.6-1.9,7.1-2v30.4c-2.5-0.1-4.9-0.7-7.1-2l-16.9-9.7c-2.7-1.5-2-4-2-6.9
										L628.1,777.9z"/>
								</g>
								<path class="st7" d="M628.1,800.4l-16.9-9.7c-2.7-1.5-2.7-5.4,0-6.9l16.9-9.7c3.5-2,7.7-2.5,11.5-1.4v29.3
									C635.7,802.9,631.6,802.5,628.1,800.4z"/>
								<path class="st0" d="M633.6,791l-4.4-2.6c-0.7-0.4-0.7-1.4,0-1.8l4.4-2.6c1.2-0.7,2.7-0.7,3.9,0l2,1.2v4.6l-2,1.2
									C636.3,791.7,634.8,791.7,633.6,791z"/>
							</g>
							<g>
								<g>
									<path class="st11" d="M605.7,756.4l18.8,9.7c0,2.6,0.7,5.4-2,6.9l-16.9,9.7c-2.4,1.4-5.1,2.1-7.8,2v-30.4
										C600.6,754.3,603.3,755,605.7,756.4z"/>
									<path class="st10" d="M590.8,756.4c2.2-1.3,4.6-1.9,7.1-2v30.4c-2.5-0.1-4.9-0.7-7.1-2l-16.9-9.7c-2.7-1.5-2-4-2-6.9
										L590.8,756.4z"/>
								</g>
								<path class="st7" d="M573.9,762.2l16.9-9.7c4.6-2.7,10.3-2.7,14.9,0l16.9,9.7c2.7,1.5,2.7,5.4,0,6.9l-16.9,9.7
									c-4.6,2.7-10.3,2.7-14.9,0l-16.9-9.7C571.3,767.6,571.3,763.8,573.9,762.2z"/>
							</g>
							<g>
								<g>
									<path class="st11" d="M568.4,734.9l18.8,9.7c0,2.6,0.7,5.4-2,6.9l-16.9,9.7c-2.4,1.4-5.1,2.1-7.8,2v-30.4
										C563.3,732.8,566,733.5,568.4,734.9z"/>
									<path class="st10" d="M553.5,734.9c2.2-1.3,4.6-1.9,7.1-2v30.4c-2.5-0.1-4.9-0.7-7.1-2l-16.9-9.7c-2.7-1.5-2-4-2-6.9
										L553.5,734.9z"/>
								</g>
								<path class="st7" d="M536.6,740.7l16.9-9.7c4.6-2.7,10.3-2.7,14.9,0l16.9,9.7c2.7,1.5,2.7,5.4,0,6.9l-16.9,9.7
									c-4.6,2.7-10.3,2.7-14.9,0l-16.9-9.7C534,746.1,534,742.3,536.6,740.7z"/>
								<path class="st0" d="M554.7,743.6l4.4-2.6c1.2-0.7,2.7-0.7,3.9,0l4.4,2.6c0.7,0.4,0.7,1.4,0,1.8l-4.4,2.6
									c-1.2,0.7-2.7,0.7-3.9,0l-4.4-2.6C554,745,554,744,554.7,743.6z"/>
							</g>
							<g>
								<g>
									<path class="st11" d="M531.1,713.3l18.8,9.7c0,2.6,0.7,5.4-2,6.9l-16.9,9.7c-2.4,1.4-5.1,2.1-7.8,2v-30.4
										C526,711.3,528.7,712,531.1,713.3z"/>
									<path class="st10" d="M516.2,713.3c2.2-1.3,4.6-1.9,7.1-2v30.4c-2.5-0.1-4.9-0.7-7.1-2l-16.9-9.7c-2.7-1.5-2-4-2-6.9
										L516.2,713.3z"/>
								</g>
								<path class="st7" d="M499.4,719.2l16.9-9.7c4.6-2.7,10.3-2.7,14.9,0l16.9,9.7c2.7,1.5,2.7,5.4,0,6.9l-16.9,9.7
									c-4.6,2.7-10.3,2.7-14.9,0l-16.9-9.7C496.7,724.6,496.7,720.7,499.4,719.2z"/>
								<path class="st0" d="M517.4,722l4.4-2.6c1.2-0.7,2.7-0.7,3.9,0l4.4,2.6c0.7,0.4,0.7,1.4,0,1.8l-4.4,2.6
									c-1.2,0.7-2.7,0.7-3.9,0l-4.4-2.6C516.7,723.5,516.7,722.4,517.4,722z"/>
							</g>
							<g>
								<g>
									<path class="st11" d="M493.9,691.8l18.8,9.7c0,2.6,0.7,5.4-2,6.9l-16.9,9.7c-2.4,1.4-5.1,2.1-7.8,2v-30.4
										C488.7,689.8,491.4,690.4,493.9,691.8z"/>
									<path class="st10" d="M478.9,691.8c2.2-1.3,4.6-1.9,7.1-2v30.4c-2.5-0.1-4.9-0.7-7.1-2l-16.9-9.7c-2.7-1.5-2-4-2-6.9
										L478.9,691.8z"/>
								</g>
								<path class="st7" d="M462.1,697.7l16.9-9.7c4.6-2.7,10.3-2.7,14.9,0l16.9,9.7c2.7,1.5,2.7,5.4,0,6.9l-16.9,9.7
									c-4.6,2.7-10.3,2.7-14.9,0l-16.9-9.7C459.4,703.1,459.4,699.2,462.1,697.7z"/>
								<path class="st0" d="M480.1,700.5l4.4-2.6c1.2-0.7,2.7-0.7,3.9,0l4.4,2.6c0.7,0.4,0.7,1.4,0,1.8l-4.4,2.6
									c-1.2,0.7-2.7,0.7-3.9,0l-4.4-2.6C479.4,701.9,479.4,700.9,480.1,700.5z"/>
							</g>
							<g>
								<g>
									<path class="st11" d="M456.6,670.3l18.8,9.7c0,2.6,0.7,5.4-2,6.9l-16.9,9.7c-2.4,1.4-5.1,2.1-7.8,2v-30.4
										C451.5,668.3,454.2,668.9,456.6,670.3z"/>
									<path class="st10" d="M441.7,670.3c2.2-1.3,4.6-1.9,7.1-2v30.4c-2.5-0.1-4.9-0.7-7.1-2l-16.9-9.7c-2.7-1.5-2-4-2-6.9
										L441.7,670.3z"/>
								</g>
								<path class="st7" d="M424.8,676.2l16.9-9.7c4.6-2.7,10.3-2.7,14.9,0l16.9,9.7c2.7,1.5,2.7,5.4,0,6.9l-16.9,9.7
									c-4.6,2.7-10.3,2.7-14.9,0l-16.9-9.7C422.1,681.5,422.1,677.7,424.8,676.2z"/>
								<path class="st0" d="M442.8,679l4.4-2.6c1.2-0.7,2.7-0.7,3.9,0l4.4,2.6c0.7,0.4,0.7,1.4,0,1.8l-4.4,2.6
									c-1.2,0.7-2.7,0.7-3.9,0l-4.4-2.6C442.1,680.4,442.1,679.4,442.8,679z"/>
							</g>
							<g>
								<g>
									<path class="st11" d="M419.3,648.8l18.8,9.7c0,2.6,0.7,5.4-2,6.9l-16.9,9.7c-2.4,1.4-5.1,2.1-7.8,2v-30.4
										C414.2,646.7,416.9,647.4,419.3,648.8z"/>
									<path class="st10" d="M404.4,648.8c2.2-1.3,4.6-1.9,7.1-2v30.4c-2.5-0.1-4.9-0.7-7.1-2l-16.9-9.7c-2.7-1.5-2-4-2-6.9
										L404.4,648.8z"/>
								</g>
								<path class="st7" d="M387.5,654.6l16.9-9.7c4.6-2.7,10.3-2.7,14.9,0l16.9,9.7c2.7,1.5,2.7,5.4,0,6.9l-16.9,9.7
									c-4.6,2.7-10.3,2.7-14.9,0l-16.9-9.7C384.9,660,384.9,656.2,387.5,654.6z"/>
							</g>
							<g>
								<g>
									<path class="st11" d="M382,627.3l18.8,9.7c0,2.6,0.7,5.4-2,6.9l-16.9,9.7c-2.4,1.4-5.1,2.1-7.8,2v-30.4
										C376.9,625.2,379.6,625.9,382,627.3z"/>
									<path class="st10" d="M367.1,627.3c2.2-1.3,4.6-1.9,7.1-2v30.4c-2.5-0.1-4.9-0.7-7.1-2l-16.9-9.7c-2.7-1.5-2-4-2-6.9
										L367.1,627.3z"/>
								</g>
								<path class="st7" d="M350.3,633.1l16.9-9.7c4.6-2.7,10.3-2.7,14.9,0l16.9,9.7c2.7,1.5,2.7,5.4,0,6.9l-16.9,9.7
									c-4.6,2.7-10.3,2.7-14.9,0l-16.9-9.7C347.6,638.5,347.6,634.6,350.3,633.1z"/>
								<path class="st0" d="M368.3,636l4.4-2.6c1.2-0.7,2.7-0.7,3.9,0l4.4,2.6c0.7,0.4,0.7,1.4,0,1.8l-4.4,2.6
									c-1.2,0.7-2.7,0.7-3.9,0l-4.4-2.6C367.6,637.4,367.6,636.4,368.3,636z"/>
							</g>
							<g>
								<g>
									<path class="st11" d="M344.7,605.7l18.8,9.7c0,2.6,0.7,5.4-2,6.9l-16.9,9.7c-2.4,1.4-5.1,2.1-7.8,2v-30.4
										C339.6,603.7,342.3,604.3,344.7,605.7z"/>
									<path class="st10" d="M329.8,605.7c2.2-1.3,4.6-1.9,7.1-2v30.4c-2.5-0.1-4.9-0.7-7.1-2l-16.9-9.7c-2.7-1.5-2-4-2-6.9
										L329.8,605.7z"/>
								</g>
								<path class="st7" d="M313,611.6l16.9-9.7c4.6-2.7,10.3-2.7,14.9,0l16.9,9.7c2.7,1.5,2.7,5.4,0,6.9l-16.9,9.7
									c-4.6,2.7-10.3,2.7-14.9,0l-16.9-9.7C310.3,617,310.3,613.1,313,611.6z"/>
								<path class="st0" d="M331,614.4l4.4-2.6c1.2-0.7,2.7-0.7,3.9,0l4.4,2.6c0.7,0.4,0.7,1.4,0,1.8l-4.4,2.6
									c-1.2,0.7-2.7,0.7-3.9,0l-4.4-2.6C330.3,615.8,330.3,614.8,331,614.4z"/>
							</g>
							<g>
								<g>
									<path class="st11" d="M282.7,569.9l43.2,23.8c0,2.6,0.7,5.4-2,6.9l-16.9,9.7c-2.4,1.4-5.1,2.1-7.8,2l-24.3-44.4
										C277.6,567.9,280.3,568.5,282.7,569.9z"/>
									<path class="st10" d="M267.8,569.9c2.2-1.3,4.6-1.9,7.1-2l24.3,34v10.4c-2.5-0.1-4.9-0.7-7.1-2L251,586.6
										c-2.7-1.5-2-4-2-6.9L267.8,569.9z"/>
								</g>
								<path class="st7" d="M251,575.8l16.9-9.7c4.6-2.7,10.3-2.7,14.9,0l41.2,23.8c2.7,1.5,2.7,5.4,0,6.9l-16.9,9.7
									c-4.6,2.7-10.3,2.7-14.9,0L251,582.7C248.3,581.2,248.3,577.3,251,575.8z"/>
								<path class="st0" d="M269,578.6l4.4-2.6c1.2-0.7,2.7-0.7,3.9,0l4.4,2.6c0.7,0.4,0.7,1.4,0,1.8l-4.4,2.6
									c-1.2,0.7-2.7,0.7-3.9,0l-4.4-2.6C268.3,580,268.3,579,269,578.6z"/>
							</g>
						</g>
						<g>
							<g>
								<g>
									<path class="st10" d="M621.2,844.1c-2.7-1.5-2-4-2-6.9l18.8-9.7c0.5-0.3,1-0.5,1.5-0.8v27.9c-0.5-0.2-1-0.5-1.5-0.8
										L621.2,844.1z"/>
								</g>
								<path class="st7" d="M621.2,840.2c-2.7-1.5-2.7-5.4,0-6.9l16.9-9.7c0.5-0.3,1-0.5,1.5-0.8v27.9c-0.5-0.2-1-0.5-1.5-0.8
									L621.2,840.2z"/>
								<path class="st0" d="M639.2,836.1l0.4-0.2v2.3l-0.4-0.2C638.5,837.5,638.5,836.5,639.2,836.1z"/>
							</g>
							<g>
								<g>
									<path class="st11" d="M615.6,805.9l18.8,9.7c0,2.6,0.7,5.4-2,6.9l-16.9,9.7c-2.4,1.4-5.1,2.1-7.8,2v-30.4
										C610.5,803.8,613.2,804.5,615.6,805.9z"/>
									<path class="st10" d="M600.7,805.9c2.2-1.3,4.6-1.9,7.1-2v30.4c-2.5-0.1-4.9-0.7-7.1-2l-16.9-9.7c-2.7-1.5-2-4-2-6.9
										L600.7,805.9z"/>
								</g>
								<path class="st7" d="M583.9,811.7l16.9-9.7c4.6-2.7,10.3-2.7,14.9,0l16.9,9.7c2.7,1.5,2.7,5.4,0,6.9l-16.9,9.7
									c-4.6,2.7-10.3,2.7-14.9,0l-16.9-9.7C581.2,817.1,581.2,813.3,583.9,811.7z"/>
								<path class="st0" d="M601.9,814.6l4.4-2.6c1.2-0.7,2.7-0.7,3.9,0l4.4,2.6c0.7,0.4,0.7,1.4,0,1.8l-4.4,2.6
									c-1.2,0.7-2.7,0.7-3.9,0l-4.4-2.6C601.2,816,601.2,815,601.9,814.6z"/>
							</g>
							<g>
								<g>
									<path class="st11" d="M578.4,784.4l18.8,9.7c0,2.6,0.7,5.4-2,6.9l-16.9,9.7c-2.4,1.4-5.1,2.1-7.8,2v-30.4
										C573.2,782.3,576,783,578.4,784.4z"/>
									<path class="st10" d="M563.5,784.4c2.2-1.3,4.6-1.9,7.1-2v30.4c-2.5-0.1-4.9-0.7-7.1-2l-16.9-9.7c-2.7-1.5-2-4-2-6.9
										L563.5,784.4z"/>
								</g>
								<path class="st7" d="M546.6,790.2l16.9-9.7c4.6-2.7,10.3-2.7,14.9,0l16.9,9.7c2.7,1.5,2.7,5.4,0,6.9l-16.9,9.7
									c-4.6,2.7-10.3,2.7-14.9,0l-16.9-9.7C543.9,795.6,543.9,791.8,546.6,790.2z"/>
								<path class="st0" d="M564.6,793.1l4.4-2.6c1.2-0.7,2.7-0.7,3.9,0l4.4,2.6c0.7,0.4,0.7,1.4,0,1.8l-4.4,2.6
									c-1.2,0.7-2.7,0.7-3.9,0l-4.4-2.6C563.9,794.5,563.9,793.5,564.6,793.1z"/>
							</g>
							<g>
								<g>
									<path class="st11" d="M541.1,762.8l18.8,9.7c0,2.6,0.7,5.4-2,6.9l-16.9,9.7c-2.4,1.4-5.1,2.1-7.8,2v-30.4
										C536,760.8,538.7,761.5,541.1,762.8z"/>
									<path class="st10" d="M526.2,762.8c2.2-1.3,4.6-1.9,7.1-2v30.4c-2.5-0.1-4.9-0.7-7.1-2l-16.9-9.7c-2.7-1.5-2-4-2-6.9
										L526.2,762.8z"/>
								</g>
								<path class="st7" d="M509.3,768.7l16.9-9.7c4.6-2.7,10.3-2.7,14.9,0l16.9,9.7c2.7,1.5,2.7,5.4,0,6.9l-16.9,9.7
									c-4.6,2.7-10.3,2.7-14.9,0l-16.9-9.7C506.7,774.1,506.7,770.2,509.3,768.7z"/>
							</g>
							<g>
								<g>
									<path class="st11" d="M503.8,741.3l18.8,9.7c0,2.6,0.7,5.4-2,6.9l-16.9,9.7c-2.4,1.4-5.1,2.1-7.8,2v-30.4
										C498.7,739.3,501.4,739.9,503.8,741.3z"/>
									<path class="st10" d="M488.9,741.3c2.2-1.3,4.6-1.9,7.1-2v30.4c-2.5-0.1-4.9-0.7-7.1-2L472,758c-2.7-1.5-2-4-2-6.9
										L488.9,741.3z"/>
								</g>
								<path class="st7" d="M472,747.2l16.9-9.7c4.6-2.7,10.3-2.7,14.9,0l16.9,9.7c2.7,1.5,2.7,5.4,0,6.9l-16.9,9.7
									c-4.6,2.7-10.3,2.7-14.9,0l-16.9-9.7C469.4,752.6,469.4,748.7,472,747.2z"/>
								<path class="st0" d="M490.1,750l4.4-2.6c1.2-0.7,2.7-0.7,3.9,0l4.4,2.6c0.7,0.4,0.7,1.4,0,1.8l-4.4,2.6
									c-1.2,0.7-2.7,0.7-3.9,0l-4.4-2.6C489.4,751.4,489.4,750.4,490.1,750z"/>
							</g>
							<g>
								<g>
									<path class="st11" d="M466.5,719.8l18.8,9.7c0,2.6,0.7,5.4-2,6.9l-16.9,9.7c-2.4,1.4-5.1,2.1-7.8,2v-30.4
										C461.4,717.7,464.1,718.4,466.5,719.8z"/>
									<path class="st10" d="M451.6,719.8c2.2-1.3,4.6-1.9,7.1-2v30.4c-2.5-0.1-4.9-0.7-7.1-2l-16.9-9.7c-2.7-1.5-2-4-2-6.9
										L451.6,719.8z"/>
								</g>
								<path class="st7" d="M434.8,725.7l16.9-9.7c4.6-2.7,10.3-2.7,14.9,0l16.9,9.7c2.7,1.5,2.7,5.4,0,6.9l-16.9,9.7
									c-4.6,2.7-10.3,2.7-14.9,0l-16.9-9.7C432.1,731,432.1,727.2,434.8,725.7z"/>
								<path class="st0" d="M452.8,728.5l4.4-2.6c1.2-0.7,2.7-0.7,3.9,0l4.4,2.6c0.7,0.4,0.7,1.4,0,1.8l-4.4,2.6
									c-1.2,0.7-2.7,0.7-3.9,0l-4.4-2.6C452.1,729.9,452.1,728.9,452.8,728.5z"/>
							</g>
							<g>
								<g>
									<path class="st11" d="M429.3,698.3l18.8,9.7c0,2.6,0.7,5.4-2,6.9l-16.9,9.7c-2.4,1.4-5.1,2.1-7.8,2v-30.4
										C424.1,696.2,426.8,696.9,429.3,698.3z"/>
									<path class="st10" d="M414.4,698.3c2.2-1.3,4.6-1.9,7.1-2v30.4c-2.5-0.1-4.9-0.7-7.1-2l-16.9-9.7c-2.7-1.5-2-4-2-6.9
										L414.4,698.3z"/>
								</g>
								<path class="st7" d="M397.5,704.1l16.9-9.7c4.6-2.7,10.3-2.7,14.9,0l16.9,9.7c2.7,1.5,2.7,5.4,0,6.9l-16.9,9.7
									c-4.6,2.7-10.3,2.7-14.9,0l-16.9-9.7C394.8,709.5,394.8,705.7,397.5,704.1z"/>
								<path class="st0" d="M415.5,707l4.4-2.6c1.2-0.7,2.7-0.7,3.9,0l4.4,2.6c0.7,0.4,0.7,1.4,0,1.8l-4.4,2.6
									c-1.2,0.7-2.7,0.7-3.9,0l-4.4-2.6C414.8,708.4,414.8,707.4,415.5,707z"/>
							</g>
							<g>
								<g>
									<path class="st11" d="M392,676.8l18.8,9.7c0,2.6,0.7,5.4-2,6.9l-16.9,9.7c-2.4,1.4-5.1,2.1-7.8,2v-30.4
										C386.9,674.7,389.6,675.4,392,676.8z"/>
									<path class="st10" d="M377.1,676.8c2.2-1.3,4.6-1.9,7.1-2v30.4c-2.5-0.1-4.9-0.7-7.1-2l-16.9-9.7c-2.7-1.5-2-4-2-6.9
										L377.1,676.8z"/>
								</g>
								<path class="st7" d="M360.2,682.6l16.9-9.7c4.6-2.7,10.3-2.7,14.9,0l16.9,9.7c2.7,1.5,2.7,5.4,0,6.9l-16.9,9.7
									c-4.6,2.7-10.3,2.7-14.9,0l-16.9-9.7C357.5,688,357.5,684.1,360.2,682.6z"/>
								<path class="st0" d="M378.2,685.5l4.4-2.6c1.2-0.7,2.7-0.7,3.9,0l4.4,2.6c0.7,0.4,0.7,1.4,0,1.8l-4.4,2.6
									c-1.2,0.7-2.7,0.7-3.9,0l-4.4-2.6C377.5,686.9,377.5,685.9,378.2,685.5z"/>
							</g>
							<g>
								<g>
									<path class="st11" d="M354.7,655.2l18.8,9.7c0,2.6,0.7,5.4-2,6.9l-16.9,9.7c-2.4,1.4-5.1,2.1-7.8,2v-30.4
										C349.6,653.2,352.3,653.8,354.7,655.2z"/>
									<path class="st10" d="M339.8,655.2c2.2-1.3,4.6-1.9,7.1-2v30.4c-2.5-0.1-4.9-0.7-7.1-2l-16.9-9.7c-2.7-1.5-2-4-2-6.9
										L339.8,655.2z"/>
								</g>
								<path class="st7" d="M322.9,661.1l16.9-9.7c4.6-2.7,10.3-2.7,14.9,0l16.9,9.7c2.7,1.5,2.7,5.4,0,6.9l-16.9,9.7
									c-4.6,2.7-10.3,2.7-14.9,0l-16.9-9.7C320.3,666.5,320.3,662.6,322.9,661.1z"/>
							</g>
							<g>
								<g>
									<path class="st11" d="M317.4,633.7l18.8,9.7c0,2.6,0.7,5.4-2,6.9l-16.9,9.7c-2.4,1.4-5.1,2.1-7.8,2v-30.4
										C312.3,631.7,315,632.3,317.4,633.7z"/>
									<path class="st10" d="M302.5,633.7c2.2-1.3,4.6-1.9,7.1-2v30.4c-2.5-0.1-4.9-0.7-7.1-2l-16.9-9.7c-2.7-1.5-2-4-2-6.9
										L302.5,633.7z"/>
								</g>
								<path class="st7" d="M285.7,639.6l16.9-9.7c4.6-2.7,10.3-2.7,14.9,0l16.9,9.7c2.7,1.5,2.7,5.4,0,6.9l-16.9,9.7
									c-4.6,2.7-10.3,2.7-14.9,0l-16.9-9.7C283,645,283,641.1,285.7,639.6z"/>
								<path class="st0" d="M303.7,642.4l4.4-2.6c1.2-0.7,2.7-0.7,3.9,0l4.4,2.6c0.7,0.4,0.7,1.4,0,1.8l-4.4,2.6
									c-1.2,0.7-2.7,0.7-3.9,0l-4.4-2.6C303,643.8,303,642.8,303.7,642.4z"/>
							</g>
							<g>
								<g>
									<path class="st11" d="M244.8,591.8l54.3,30.2c0,2.6,0.7,5.4-2,6.9l-16.9,9.7c-2.4,1.4-5.1,2.1-7.8,2L237,589.8
										C239.7,589.7,242.4,590.4,244.8,591.8z"/>
									<path class="st10" d="M229.9,591.8c2.2-1.3,4.6-1.9,7.1-2l35.4,40.4v10.4c-2.5-0.1-4.9-0.7-7.1-2l-52.3-30.2
										c-2.7-1.5-2-4-2-6.9L229.9,591.8z"/>
								</g>
								<path class="st7" d="M213.1,597.6l16.9-9.7c4.6-2.7,10.3-2.7,14.9,0l52.3,30.2c2.7,1.5,2.7,5.4,0,6.9l-16.9,9.7
									c-4.6,2.7-10.3,2.7-14.9,0l-52.3-30.2C210.4,603,210.4,599.2,213.1,597.6z"/>
								<path class="st0" d="M231.1,600.5l4.4-2.6c1.2-0.7,2.7-0.7,3.9,0l4.4,2.6c0.7,0.4,0.7,1.4,0,1.8l-4.4,2.6
									c-1.2,0.7-2.7,0.7-3.9,0l-4.4-2.6C230.4,601.9,230.4,600.9,231.1,600.5z"/>
							</g>
						</g>
						<g>
							<g>
								<g>
									<path class="st11" d="M569.9,605.2l69.7,39.7v18.8l-77.5-60.5C564.8,603.1,567.5,603.8,569.9,605.2z"/>
									<path class="st10" d="M536.2,614.9l18.8-9.7c2.2-1.3,4.6-1.9,7.1-2l77.5,55.8v21.4l-101.4-58.6
										C535.5,620.3,536.2,617.9,536.2,614.9z"/>
								</g>
								<path class="st7" d="M538.1,611l16.9-9.7c4.6-2.7,10.3-2.7,14.9,0l69.7,40.2v35L538.1,618
									C535.5,616.4,535.5,612.6,538.1,611z"/>
							</g>
							<g>
								<g>
									<path class="st11" d="M532.5,583.6l18.8,9.7c0,2.6,0.7,5.4-2,6.9l-16.9,9.7c-2.4,1.4-5.1,2.1-7.8,2v-30.4
										C527.4,581.5,530.1,582.2,532.5,583.6z"/>
									<path class="st10" d="M517.6,583.6c2.2-1.3,4.6-1.9,7.1-2V612c-2.5-0.1-4.9-0.7-7.1-2l-16.9-9.7c-2.7-1.5-2-4-2-6.9
										L517.6,583.6z"/>
								</g>
								<path class="st7" d="M500.7,589.4l16.9-9.7c4.6-2.7,10.3-2.7,14.9,0l16.9,9.7c2.7,1.5,2.7,5.4,0,6.9l-16.9,9.7
									c-4.6,2.7-10.3,2.7-14.9,0l-16.9-9.7C498,594.8,498,591,500.7,589.4z"/>
							</g>
							<g>
								<g>
									<path class="st11" d="M495.2,562l18.8,9.7c0,2.6,0.7,5.4-2,6.9l-16.9,9.7c-2.4,1.4-5.1,2.1-7.8,2v-30.4
										C490.1,560,492.8,560.7,495.2,562z"/>
									<path class="st10" d="M480.3,562c2.2-1.3,4.6-1.9,7.1-2v30.4c-2.5-0.1-4.9-0.7-7.1-2l-16.9-9.7c-2.7-1.5-2-4-2-6.9
										L480.3,562z"/>
								</g>
								<path class="st7" d="M463.4,567.9l16.9-9.7c4.6-2.7,10.3-2.7,14.9,0l16.9,9.7c2.7,1.5,2.7,5.4,0,6.9l-16.9,9.7
									c-4.6,2.7-10.3,2.7-14.9,0l-16.9-9.7C460.8,573.3,460.8,569.4,463.4,567.9z"/>
								<path class="st0" d="M481.5,570.7l4.4-2.6c1.2-0.7,2.7-0.7,3.9,0l4.4,2.6c0.7,0.4,0.7,1.4,0,1.8l-4.4,2.6
									c-1.2,0.7-2.7,0.7-3.9,0l-4.4-2.6C480.8,572.1,480.8,571.1,481.5,570.7z"/>
							</g>
							<g>
								<g>
									<path class="st11" d="M457.9,540.5l18.8,9.7c0,2.6,0.7,5.4-2,6.9l-16.9,9.7c-2.4,1.4-5.1,2.1-7.8,2v-30.4
										C452.8,538.5,455.5,539.1,457.9,540.5z"/>
									<path class="st10" d="M443,540.5c2.2-1.3,4.6-1.9,7.1-2v30.4c-2.5-0.1-4.9-0.7-7.1-2l-16.9-9.7c-2.7-1.5-2-4-2-6.9
										L443,540.5z"/>
								</g>
								<path class="st7" d="M426.2,546.4l16.9-9.7c4.6-2.7,10.3-2.7,14.9,0l16.9,9.7c2.7,1.5,2.7,5.4,0,6.9l-16.9,9.7
									c-4.6,2.7-10.3,2.7-14.9,0l-16.9-9.7C423.5,551.8,423.5,547.9,426.2,546.4z"/>
								<path class="st0" d="M444.2,549.2l4.4-2.6c1.2-0.7,2.7-0.7,3.9,0l4.4,2.6c0.7,0.4,0.7,1.4,0,1.8l-4.4,2.6
									c-1.2,0.7-2.7,0.7-3.9,0l-4.4-2.6C443.5,550.6,443.5,549.6,444.2,549.2z"/>
							</g>
							<g>
								<g>
									<path class="st11" d="M395.9,504.7l43.2,23.8c0,2.6,0.7,5.4-2,6.9l-16.9,9.7c-2.4,1.4-5.1,2.1-7.8,2l-24.3-44.4
										C390.8,502.7,393.5,503.3,395.9,504.7z"/>
									<path class="st10" d="M381,504.7c2.2-1.3,4.6-1.9,7.1-2l24.3,34v10.4c-2.5-0.1-4.9-0.7-7.1-2l-41.2-23.8
										c-2.7-1.5-2-4-2-6.9L381,504.7z"/>
								</g>
								<path class="st7" d="M364.1,510.6l16.9-9.7c4.6-2.7,10.3-2.7,14.9,0l41.2,23.8c2.7,1.5,2.7,5.4,0,6.9l-16.9,9.7
									c-4.6,2.7-10.3,2.7-14.9,0l-41.2-23.8C361.5,515.9,361.5,512.1,364.1,510.6z"/>
								<path class="st0" d="M382.1,513.4l4.4-2.6c1.2-0.7,2.7-0.7,3.9,0l4.4,2.6c0.7,0.4,0.7,1.4,0,1.8l-4.4,2.6
									c-1.2,0.7-2.7,0.7-3.9,0l-4.4-2.6C381.4,514.8,381.4,513.8,382.1,513.4z"/>
							</g>
						</g>
					</g>
				</g>
				<polygon class="st12" points="639.6,400.7 639.6,856.9 250.7,632.4 404.3,264.8 				"/>
				<polygon class="st13" points="27.7,47.4 404.3,264.8 250.7,632.4 27.7,503.6 				"/>
			</g>
		</g>
	</g>
</switch>

</svg>
